<svg id="book" xmlns="http://www.w3.org/2000/svg" width="49.631" height="49.631" viewBox="0 0 49.631 49.631">
  <path id="Vector" d="M1.551,36.19A1.562,1.562,0,0,1,0,34.639V11.891C0,2.771,2.771,0,11.891,0H26.367c9.12,0,11.891,2.771,11.891,11.891v20.68c0,.331,0,.641-.021.972a1.554,1.554,0,0,1-3.1-.207c.021-.248.021-.517.021-.765V11.891c0-7.383-1.386-8.789-8.789-8.789H11.891C4.488,3.1,3.1,4.508,3.1,11.891V34.639A1.562,1.562,0,0,1,1.551,36.19Z" transform="translate(5.687 2.585)" fill="#fafafa"/>
  <path id="Vector-2" data-name="Vector" d="M29.469,17.578H8.789A8.808,8.808,0,0,1,0,8.789V7.445A7.453,7.453,0,0,1,7.445,0H36.707a1.562,1.562,0,0,1,1.551,1.551V8.789A8.808,8.808,0,0,1,29.469,17.578ZM7.445,3.1A4.342,4.342,0,0,0,3.1,7.445V8.789a5.684,5.684,0,0,0,5.687,5.687h20.68a5.684,5.684,0,0,0,5.687-5.687V3.1Z" transform="translate(5.687 29.469)" fill="#fafafa"/>
  <path id="Vector-3" data-name="Vector" d="M18.095,3.1H1.551A1.562,1.562,0,0,1,0,1.551,1.562,1.562,0,0,1,1.551,0H18.095a1.562,1.562,0,0,1,1.551,1.551A1.562,1.562,0,0,1,18.095,3.1Z" transform="translate(14.993 12.925)" fill="#fafafa"/>
  <path id="Vector-4" data-name="Vector" d="M11.891,3.1H1.551A1.562,1.562,0,0,1,0,1.551,1.562,1.562,0,0,1,1.551,0h10.34a1.562,1.562,0,0,1,1.551,1.551A1.562,1.562,0,0,1,11.891,3.1Z" transform="translate(14.993 20.163)" fill="#fafafa"/>
  <path id="Vector-5" data-name="Vector" d="M0,0H49.631V49.631H0Z" fill="none" opacity="0"/>
</svg>
