<svg xmlns="http://www.w3.org/2000/svg" width="53.898" height="53.848" viewBox="0 0 53.898 53.848">
  <g id="nft_certificate" transform="translate(0)">
    <path id="Trazado_796" data-name="Trazado 796" d="M51.234,18.175l.086-.087C55.009,14.4,54.509,7.9,50.206,3.6A12,12,0,0,0,42.872.044a8.658,8.658,0,0,0-7.244,2.523C33.034,6.13,27.62,13.561,25,17.127a17.292,17.292,0,0,1-3.232,3.347c-.011.008-19.188,15.138-19.3,15.253C-1.219,39.415-.719,45.916,3.584,50.219c4.186,4.186,10.709,4.9,14.492,1.115.118-.118,8.747-11.062,8.756-11.073L37.964,53.849l2.721-6.607,5.129,5.16v-6.68h6.62L47.36,40.589,53.9,37.9,40.083,26.311ZM28.109,34.612a4.729,4.729,0,1,1,6.689,0A4.735,4.735,0,0,1,28.109,34.612ZM15.839,49.1l-4.451-4.451,4.369-4.369c1.824,2.534,2.169,5.631.873,7.819Zm1.122-12.255a12.145,12.145,0,0,0-6.487-3.431l8.206-6.479a14.193,14.193,0,0,1,4.972,3.227,7.875,7.875,0,0,0,2.027,6.473l-5.287,6.7a12.147,12.147,0,0,0-3.431-6.487ZM38.026,4.631c2.217-2.119,6.617-2.138,9.95,1.195,3.04,3.04,3.562,7.476,1.195,9.951l-12.8,9.335a7.883,7.883,0,0,0-6.037-1.645,17.451,17.451,0,0,0-4-2.985c.425-.478.829-.975,1.208-1.491C30.57,14.869,37.041,5.984,38.026,4.631ZM23.913,22.8a14.271,14.271,0,0,1,3.131,1.939,7.868,7.868,0,0,0-2.2,2.236,17.354,17.354,0,0,0-3.371-2.244c1.223-.968,1.919-1.511,2.439-1.931ZM5.813,47.99c-3.052-3.052-3.565-7.51-1.165-9.98A5.612,5.612,0,0,1,8.7,36.4a8.385,8.385,0,0,1,4.826,1.652l-6.6,6.6,5.939,5.939A8.4,8.4,0,0,1,5.813,47.99Zm31.245-.222-7.2-8.783a7.887,7.887,0,0,0,2.7.084l5.712,5.747Zm5.6-5.2v2.188l-6.866-6.908a7.9,7.9,0,0,0,2.227-2.223l6.862,6.942Zm2.305-4.4-5.712-5.779a7.954,7.954,0,0,0-.088-2.73l8.715,7.31Zm0,0" transform="translate(0.001 -0.001)" fill="#fafafa"/>
    <path id="Trazado_797" data-name="Trazado 797" d="M279.855,280.31l-2.23-2.23,2.23-2.229,2.23,2.229Zm0,0" transform="translate(-247.369 -239.599)" fill="#fafafa"/>
  </g>
</svg>
