<svg xmlns="http://www.w3.org/2000/svg" width="26.6" height="26.6" viewBox="0 0 26.6 26.6">
  <g id="contribution" transform="translate(-747.7 -187.7)">
    <path id="Vector" d="M11.646,23.357a2.454,2.454,0,0,1-1.95-1.04L8.071,20.15a.408.408,0,0,0-.227-.108H7.313C2.8,20.042,0,18.817,0,12.729V7.313C0,2.524,2.524,0,7.313,0h4.333a.818.818,0,0,1,.813.813.818.818,0,0,1-.812.813H7.313c-3.878,0-5.688,1.809-5.688,5.688v5.417c0,4.9,1.679,5.688,5.688,5.688h.542a2.032,2.032,0,0,1,1.517.758L11,21.342a.752.752,0,0,0,1.3,0l1.625-2.167a1.9,1.9,0,0,1,1.517-.758h.542c3.878,0,5.688-1.809,5.688-5.688V7.313a.813.813,0,1,1,1.625,0v5.417c0,4.788-2.524,7.313-7.313,7.313h-.542a.283.283,0,0,0-.217.108L13.6,22.317A2.454,2.454,0,0,1,11.646,23.357Z" transform="translate(749.354 189.354)" fill="#fff"/>
    <path id="Vector_-_Contorno" data-name="Vector - Contorno" d="M11.646,23.357a2.454,2.454,0,0,0,1.95-1.04l1.625-2.167a.283.283,0,0,1,.217-.108h.542c4.788,0,7.313-2.524,7.313-7.313V7.313a.813.813,0,0,0-1.625,0v5.417c0,3.878-1.809,5.688-5.687,5.688h-.542a1.9,1.9,0,0,0-1.517.758L12.3,21.342a.752.752,0,0,1-1.3,0L9.371,19.175a2.032,2.032,0,0,0-1.517-.758H7.313c-4.008,0-5.687-.791-5.687-5.688V7.313c0-3.878,1.809-5.687,5.687-5.687h4.333a.818.818,0,0,0,.813-.813A.818.818,0,0,0,11.646,0H7.313C2.524,0,0,2.524,0,7.313v5.417c0,6.088,2.795,7.313,7.312,7.313h.531a.408.408,0,0,1,.227.108L9.7,22.317a2.454,2.454,0,0,0,1.95,1.04m0,.3A2.76,2.76,0,0,1,9.456,22.5L7.85,20.355l-.029-.014H7.313c-2.652,0-4.362-.445-5.544-1.444C.357,17.706-.3,15.746-.3,12.729V7.313A7.705,7.705,0,0,1,1.648,1.648,7.705,7.705,0,0,1,7.313-.3h4.333a1.112,1.112,0,1,1,0,2.225H7.313a5.531,5.531,0,0,0-4.086,1.3,5.531,5.531,0,0,0-1.3,4.086v5.417c0,2.327.382,3.7,1.239,4.455.88.774,2.3.933,4.149.933h.542a2.341,2.341,0,0,1,1.756.877l1.626,2.168a.458.458,0,0,0,.821,0L13.681,19a2.206,2.206,0,0,1,1.757-.878h.542a5.531,5.531,0,0,0,4.086-1.3,5.531,5.531,0,0,0,1.3-4.086V7.313a1.112,1.112,0,1,1,2.225,0v5.417a7.705,7.705,0,0,1-1.948,5.664,7.705,7.705,0,0,1-5.664,1.948h-.527L13.836,22.5A2.761,2.761,0,0,1,11.646,23.657Z" transform="translate(749.354 189.354)" fill="#fff"/>
    <path id="Vector-2" data-name="Vector" d="M1.083,2.167A1.083,1.083,0,1,1,2.167,1.083,1.08,1.08,0,0,1,1.083,2.167Z" transform="translate(759.917 198.833)" fill="#fff"/>
    <path id="Vector_-_Contorno-2" data-name="Vector - Contorno" d="M1.083,2.167A1.083,1.083,0,1,0,0,1.083,1.08,1.08,0,0,0,1.083,2.167m0,.3A1.383,1.383,0,1,1,2.467,1.083,1.385,1.385,0,0,1,1.083,2.467Z" transform="translate(759.917 198.833)" fill="#fff"/>
    <path id="Vector-3" data-name="Vector" d="M1.083,2.167A1.083,1.083,0,1,1,2.167,1.083,1.08,1.08,0,0,1,1.083,2.167Z" transform="translate(764.25 198.833)" fill="#fff"/>
    <path id="Vector_-_Contorno-3" data-name="Vector - Contorno" d="M1.083,2.167A1.083,1.083,0,1,0,0,1.083,1.08,1.08,0,0,0,1.083,2.167m0,.3A1.383,1.383,0,1,1,2.467,1.083,1.385,1.385,0,0,1,1.083,2.467Z" transform="translate(764.25 198.833)" fill="#fff"/>
    <path id="Vector-4" data-name="Vector" d="M1.083,2.167A1.083,1.083,0,1,1,2.167,1.083,1.08,1.08,0,0,1,1.083,2.167Z" transform="translate(755.583 198.833)" fill="#fff"/>
    <path id="Vector_-_Contorno-4" data-name="Vector - Contorno" d="M1.083,2.167A1.083,1.083,0,1,0,0,1.083,1.08,1.08,0,0,0,1.083,2.167m0,.3A1.383,1.383,0,1,1,2.467,1.083,1.385,1.385,0,0,1,1.083,2.467Z" transform="translate(755.583 198.833)" fill="#fff"/>
    <path id="Vector-5" data-name="Vector" d="M3.968,7.037a4.89,4.89,0,0,1-3.8-3.131A3.194,3.194,0,0,1,.339,1.458,2.681,2.681,0,0,1,1.931.114,2.508,2.508,0,0,1,3.968.353,2.528,2.528,0,0,1,6.015.114,2.681,2.681,0,0,1,7.608,1.458a3.194,3.194,0,0,1,.173,2.448A4.989,4.989,0,0,1,3.968,7.037ZM1.7,3.386A3.493,3.493,0,0,0,3.989,5.412,3.552,3.552,0,0,0,6.243,3.4a1.609,1.609,0,0,0-.076-1.192,1.017,1.017,0,0,0-.628-.531.793.793,0,0,0-.9.217.832.832,0,0,1-.65.358.858.858,0,0,1-.672-.325A.863.863,0,0,0,2.4,1.674a1.017,1.017,0,0,0-.628.531A1.635,1.635,0,0,0,1.7,3.386Z" transform="translate(763.532 189.359)" fill="#fff"/>
    <path id="Vector_-_Contorno-5" data-name="Vector - Contorno" d="M3.968,7.037A4.989,4.989,0,0,0,7.781,3.906a3.194,3.194,0,0,0-.173-2.448A2.681,2.681,0,0,0,6.015.114,2.528,2.528,0,0,0,3.968.353,2.508,2.508,0,0,0,1.931.114,2.681,2.681,0,0,0,.339,1.458,3.194,3.194,0,0,0,.165,3.906a4.89,4.89,0,0,0,3.8,3.131m-1.292-5.4a.8.8,0,0,1,.642.289.858.858,0,0,0,.672.325.832.832,0,0,0,.65-.357.793.793,0,0,1,.9-.217,1.017,1.017,0,0,1,.628.531A1.609,1.609,0,0,1,6.243,3.4,3.552,3.552,0,0,1,3.989,5.412,3.493,3.493,0,0,1,1.7,3.386a1.635,1.635,0,0,1,.065-1.181A1.017,1.017,0,0,1,2.4,1.674a.989.989,0,0,1,.279-.04m1.292,5.7A4.3,4.3,0,0,1,1.8,6.476,5.033,5.033,0,0,1-.12,4,3.488,3.488,0,0,1,.073,1.319,2.982,2.982,0,0,1,1.842-.172,2.879,2.879,0,0,1,2.69-.3,2.763,2.763,0,0,1,3.968.008,2.77,2.77,0,0,1,5.249-.3,2.942,2.942,0,0,1,6.1-.173,2.984,2.984,0,0,1,7.874,1.32,3.488,3.488,0,0,1,8.065,4,5.014,5.014,0,0,1,6.1,6.491,4.421,4.421,0,0,1,3.968,7.337Zm-1.931-5a1.337,1.337,0,0,0-.049.951,3.242,3.242,0,0,0,2,1.816A3.3,3.3,0,0,0,5.958,3.3a1.318,1.318,0,0,0-.058-.96.721.721,0,0,0-.45-.382l-.013,0a.629.629,0,0,0-.209-.035.411.411,0,0,0-.341.138A1.13,1.13,0,0,1,4,2.548H3.989a1.164,1.164,0,0,1-.907-.439.508.508,0,0,0-.407-.175.691.691,0,0,0-.193.027A.719.719,0,0,0,2.037,2.34Z" transform="translate(763.532 189.359)" fill="#fff"/>
    <path id="Vector-6" data-name="Vector" d="M0,0V26H26V0H0M-.3-.3H26.3V26.3H-.3Z" transform="translate(748 188)" fill="#fff" opacity="0"/>
  </g>
</svg>
