<svg xmlns="http://www.w3.org/2000/svg" width="24" height="24" viewBox="0 0 24 24">
  <g id="flag" transform="translate(-236 -380)">
    <path id="Vector" d="M13.62,10.33,12.4,9.11a1.39,1.39,0,0,1-.47-1.03,1.65,1.65,0,0,1,.49-1.23l1.2-1.2c1.04-1.04,1.43-2.04,1.1-2.83s-1.31-1.21-2.77-1.21H1.5V.75A.755.755,0,0,0,.75,0,.755.755,0,0,0,0,.75v18.5A.755.755,0,0,0,.75,20a.755.755,0,0,0,.75-.75V14.37H11.95c1.44,0,2.41-.44,2.74-1.23S14.64,11.36,13.62,10.33Z" transform="translate(240.4 382)" fill="#fff"/>
    <path id="Vector-2" data-name="Vector" d="M0,0H24V24H0Z" transform="translate(260 404) rotate(180)" fill="none" opacity="0"/>
  </g>
</svg>
