<svg xmlns="http://www.w3.org/2000/svg" width="26.6" height="26.6" viewBox="0 0 26.6 26.6">
  <g id="gallery" transform="translate(0.3 0.3)">
    <path id="Vector" d="M14.9,23.292H8.4c-5.883,0-8.4-2.513-8.4-8.4V8.4C0,2.513,2.513,0,8.4,0h6.5c5.882,0,8.4,2.513,8.4,8.4v6.5C23.292,20.778,20.778,23.292,14.9,23.292ZM8.4,1.625C3.4,1.625,1.625,3.4,1.625,8.4v6.5c0,4.994,1.777,6.771,6.771,6.771h6.5c4.994,0,6.771-1.777,6.771-6.771V8.4c0-4.994-1.777-6.771-6.771-6.771Z" transform="translate(1.354 1.354)" fill="#fff"/>
    <path id="Vector_-_Contorno" data-name="Vector - Contorno" d="M14.9,23.292c5.882,0,8.4-2.513,8.4-8.4V8.4c0-5.882-2.513-8.4-8.4-8.4H8.4C2.513,0,0,2.513,0,8.4v6.5c0,5.882,2.513,8.4,8.4,8.4h6.5M8.4,1.625h6.5c4.994,0,6.771,1.777,6.771,6.771v6.5c0,4.994-1.777,6.771-6.771,6.771H8.4c-4.994,0-6.771-1.777-6.771-6.771V8.4C1.625,3.4,3.4,1.625,8.4,1.625m6.5,21.967H8.4c-3.052,0-5.216-.68-6.616-2.08S-.3,17.948-.3,14.9V8.4c0-3.052.68-5.216,2.08-6.616S5.343-.3,8.4-.3h6.5c3.052,0,5.216.68,6.616,2.08s2.08,3.564,2.08,6.616v6.5c0,3.052-.68,5.216-2.08,6.616S17.948,23.592,14.9,23.592ZM8.4,1.925c-2.471,0-4.074.453-5.046,1.425S1.925,5.925,1.925,8.4v6.5c0,2.471.453,4.074,1.425,5.046S5.925,21.367,8.4,21.367h6.5c2.471,0,4.074-.453,5.046-1.425s1.425-2.575,1.425-5.046V8.4c0-2.471-.453-4.074-1.425-5.046S17.366,1.925,14.9,1.925Z" transform="translate(1.354 1.354)" fill="#fff"/>
    <path id="Vector-2" data-name="Vector" d="M2.979,5.958A2.979,2.979,0,1,1,5.958,2.979,2.977,2.977,0,0,1,2.979,5.958Zm0-4.333A1.354,1.354,0,1,0,4.333,2.979,1.355,1.355,0,0,0,2.979,1.625Z" transform="translate(6.771 5.688)" fill="#fff"/>
    <path id="Vector_-_Contorno-2" data-name="Vector - Contorno" d="M2.979,5.958A2.979,2.979,0,1,0,0,2.979,2.977,2.977,0,0,0,2.979,5.958m0-4.333A1.354,1.354,0,1,1,1.625,2.979,1.355,1.355,0,0,1,2.979,1.625m0,4.633A3.279,3.279,0,1,1,6.258,2.979,3.283,3.283,0,0,1,2.979,6.258Zm0-4.333A1.054,1.054,0,1,0,4.033,2.979,1.055,1.055,0,0,0,2.979,1.925Z" transform="translate(6.771 5.688)" fill="#fff"/>
    <path id="Vector-3" data-name="Vector" d="M.809,9.157A.808.808,0,0,1,.365,7.673L5.706,4.087a3.237,3.237,0,0,1,3.846.206l.357.314a1.6,1.6,0,0,0,1.993,0L16.409.739a3.235,3.235,0,0,1,4.117,0l1.766,1.517A.814.814,0,0,1,21.23,3.491L19.464,1.974a1.612,1.612,0,0,0-2,0L12.953,5.842a3.235,3.235,0,0,1-4.117,0l-.358-.314A1.611,1.611,0,0,0,6.6,5.441L1.264,9.027A.881.881,0,0,1,.809,9.157Z" transform="translate(2.083 12.185)" fill="#fff"/>
    <path id="Vector_-_Contorno-3" data-name="Vector - Contorno" d="M.809,9.157a.881.881,0,0,0,.455-.13L6.605,5.441a1.611,1.611,0,0,1,1.874.087l.358.314a3.235,3.235,0,0,0,4.117,0L17.46,1.974a1.612,1.612,0,0,1,2,0L21.23,3.491a.814.814,0,1,0,1.062-1.235L20.526.739a3.235,3.235,0,0,0-4.117,0L11.9,4.607a1.6,1.6,0,0,1-1.993,0l-.357-.314a3.237,3.237,0,0,0-3.846-.206L.365,7.673A.808.808,0,0,0,.809,9.157m0,.3a1.119,1.119,0,0,1-.921-.491A1.109,1.109,0,0,1,.2,7.422L5.539,3.838a3.537,3.537,0,0,1,4.207.226l0,0,.357.314a1.245,1.245,0,0,0,.8.275,1.214,1.214,0,0,0,.795-.275L16.214.512A3.446,3.446,0,0,1,18.463-.3,3.479,3.479,0,0,1,20.72.511l1.767,1.518A1.114,1.114,0,0,1,21.037,3.72L19.269,2.2a1.313,1.313,0,0,0-1.613,0L13.149,6.07a3.535,3.535,0,0,1-4.506,0l-.359-.315a1.313,1.313,0,0,0-1.509-.067L1.421,9.282A1.184,1.184,0,0,1,.809,9.457Z" transform="translate(2.083 12.185)" fill="#fff"/>
    <path id="Vector-4" data-name="Vector" d="M0,0V26H26V0H0M-.3-.3H26.3V26.3H-.3Z" fill="#fff" opacity="0"/>
  </g>
</svg>
