<svg xmlns="http://www.w3.org/2000/svg" width="24" height="24" viewBox="0 0 24 24">
  <g id="lock_" transform="translate(-172.312 -251.594)">
    <g id="Grupo_1895" data-name="Grupo 1895" transform="translate(4.514 5.006)">
      <path id="Vector" d="M8.134,6.651a.507.507,0,0,1-.478-.525v-1.4c0-2.205-.568-3.675-3.349-3.675S.957,2.52.957,4.726v1.4a.507.507,0,0,1-.478.525A.507.507,0,0,1,0,6.126v-1.4C0,2.7.447,0,4.306,0S8.613,2.7,8.613,4.726v1.4A.507.507,0,0,1,8.134,6.651Z" transform="translate(175.35 251.889)" fill="#fff"/>
      <path id="Vector_-_Contorno" data-name="Vector - Contorno" d="M8.134,6.651a.507.507,0,0,0,.478-.525v-1.4C8.613,2.7,8.166,0,4.306,0S0,2.7,0,4.726v1.4a.507.507,0,0,0,.478.525.507.507,0,0,0,.478-.525v-1.4c0-2.205.568-3.675,3.349-3.675S7.656,2.52,7.656,4.726v1.4a.507.507,0,0,0,.478.525m0,.3a.8.8,0,0,1-.778-.825v-1.4a4.021,4.021,0,0,0-.57-2.483A2.922,2.922,0,0,0,4.306,1.35a2.922,2.922,0,0,0-2.479.892,4.021,4.021,0,0,0-.57,2.483v1.4a.8.8,0,0,1-.778.825A.8.8,0,0,1-.3,6.126v-1.4A6.154,6.154,0,0,1,.453,1.44,4.236,4.236,0,0,1,4.306-.3,4.236,4.236,0,0,1,8.16,1.44a6.154,6.154,0,0,1,.753,3.286v1.4A.8.8,0,0,1,8.134,6.951Z" transform="translate(175.35 251.889)" fill="#fff"/>
      <path id="Vector-2" data-name="Vector" d="M10.048,8.613H3.668C.855,8.613,0,7.758,0,4.944V3.668C0,.855.855,0,3.668,0h6.38c2.813,0,3.668.855,3.668,3.668V4.944C13.716,7.758,12.862,8.613,10.048,8.613Z" transform="translate(172.798 257.89)" fill="#fff"/>
    </g>
    <path id="Vector-3" data-name="Vector" d="M0,0H24V24H0Z" transform="translate(172.312 251.594)" fill="none" opacity="0"/>
  </g>
</svg>
