<svg xmlns="http://www.w3.org/2000/svg" width="24" height="24" viewBox="0 0 24 24">
  <g id="message-favorite" transform="translate(-748)">
    <path id="Vector" d="M4.97,0H2.03A1.866,1.866,0,0,0,0,2.03V4.97A1.866,1.866,0,0,0,2.03,7H4.97A1.866,1.866,0,0,0,7,4.97V2.03A1.866,1.866,0,0,0,4.97,0Zm.64,3.68A2.826,2.826,0,0,1,3.5,5.5,2.8,2.8,0,0,1,1.39,3.68a1.836,1.836,0,0,1-.09-.57A1.552,1.552,0,0,1,2.32,1.57a1.226,1.226,0,0,1,1.16.2,1.293,1.293,0,0,1,1.18-.2A1.633,1.633,0,0,1,5.61,3.68Z" transform="translate(764 1)" fill="#fff"/>
    <path id="Vector-2" data-name="Vector" d="M16.03,7.5A3.529,3.529,0,0,1,12.5,3.97V1a1,1,0,0,0-1-1H5A4.991,4.991,0,0,0,0,4.98v6.97a5,5,0,0,0,5,5H6.5a1.112,1.112,0,0,1,.8.4l1.5,1.99a1.421,1.421,0,0,0,2.4,0l1.5-1.99a1.014,1.014,0,0,1,.8-.4h1.51A4.985,4.985,0,0,0,20,11.96V8.5a1,1,0,0,0-1-1ZM6,10A1,1,0,1,1,7,9,1,1,0,0,1,6,10Zm4,0a1,1,0,1,1,1-1A1,1,0,0,1,10,10Z" transform="translate(750 2)" fill="#fff"/>
    <path id="Vector-3" data-name="Vector" d="M0,0H24V24H0Z" transform="translate(748)" fill="none" opacity="0"/>
    <path id="Vector-4" data-name="Vector" d="M0,0H24V24H0Z" transform="translate(772 24) rotate(180)" fill="none" opacity="0"/>
  </g>
</svg>
