<svg xmlns="http://www.w3.org/2000/svg" width="24" height="24" viewBox="0 0 24 24">
  <g id="message" transform="translate(-684)">
    <path id="Exclusión_1" data-name="Exclusión 1" d="M10,20a1.5,1.5,0,0,1-1.2-.661l-1.5-1.99a1.153,1.153,0,0,0-.8-.4H5a5,5,0,0,1-5-4.984V4.981A5,5,0,0,1,5,0H15a5,5,0,0,1,5,4.981v6.983a5,5,0,0,1-5,4.984H13.5a1.006,1.006,0,0,0-.8.4l-1.5,1.99A1.51,1.51,0,0,1,10,20Zm-.113-6.591a1.115,1.115,0,0,0-.773.282.958.958,0,0,0-.313.747.9.9,0,0,0,.313.69,1.113,1.113,0,0,0,.773.285,1.03,1.03,0,0,0,.729-.285.919.919,0,0,0,.3-.69.985.985,0,0,0-.3-.747A1.033,1.033,0,0,0,9.887,13.409Zm.172-7.219a1.231,1.231,0,0,1,.83.273.891.891,0,0,1,.314.7,2,2,0,0,1-.373,1.1,4.438,4.438,0,0,1-.771.9,2.99,2.99,0,0,0-.746,1.346,8.414,8.414,0,0,0-.285,1.69c0,.342.289.516.859.516a.96.96,0,0,0,.715-.2.39.39,0,0,0,.086-.315A3.222,3.222,0,0,1,10.8,10.83a2.436,2.436,0,0,1,.572-.973,8.047,8.047,0,0,0,1.061-1.174,2.507,2.507,0,0,0,.486-1.518,2.744,2.744,0,0,0-.646-1.805A2.839,2.839,0,0,0,10,4.586a2.634,2.634,0,0,0-2.175.86,3.5,3.5,0,0,0-.744,2.063c0,.36.3.543.889.543s.887-.183.887-.543a1.461,1.461,0,0,1,.3-.96A1.12,1.12,0,0,1,10.059,6.19Z" transform="translate(686.03 2)" fill="#fff"/>
    <path id="Vector" d="M0,0H24V24H0Z" transform="translate(684)" fill="none" opacity="0"/>
    <path id="Vector-2" data-name="Vector" d="M0,0H24V24H0Z" transform="translate(708 24) rotate(180)" fill="none" opacity="0"/>
  </g>
</svg>
