<svg xmlns="http://www.w3.org/2000/svg" width="26" height="26" viewBox="0 0 26 26">
  <g id="question" transform="translate(-1382 -932)">
    <g id="question-2" data-name="question" transform="translate(698 744)">
      <path id="Vector" d="M11.646,23.357a2.454,2.454,0,0,1-1.95-1.04L8.071,20.15a.512.512,0,0,0-.217-.108H7.313C2.8,20.042,0,18.817,0,12.729V7.313C0,2.524,2.524,0,7.313,0h8.667c4.788,0,7.313,2.524,7.313,7.313v5.417c0,4.788-2.524,7.313-7.313,7.313h-.542a.283.283,0,0,0-.217.108L13.6,22.317A2.454,2.454,0,0,1,11.646,23.357ZM7.313,1.625c-3.878,0-5.688,1.809-5.688,5.688v5.417c0,4.9,1.679,5.688,5.688,5.688h.542a2.032,2.032,0,0,1,1.517.758L11,21.342a.752.752,0,0,0,1.3,0l1.625-2.167a1.9,1.9,0,0,1,1.517-.758h.542c3.878,0,5.688-1.809,5.688-5.688V7.313c0-3.878-1.809-5.688-5.688-5.688Z" transform="translate(685.354 189.354)" fill="#fff"/>
      <path id="Vector_-_Contorno" data-name="Vector - Contorno" d="M11.646,23.357a2.454,2.454,0,0,0,1.95-1.04l1.625-2.167a.283.283,0,0,1,.217-.108h.542c4.788,0,7.313-2.524,7.313-7.313V7.313C23.292,2.524,20.768,0,15.979,0H7.313C2.524,0,0,2.524,0,7.313v5.417c0,6.088,2.795,7.313,7.312,7.313h.542a.512.512,0,0,1,.217.108L9.7,22.317a2.454,2.454,0,0,0,1.95,1.04M7.313,1.625h8.667c3.878,0,5.688,1.809,5.688,5.688v5.417c0,3.878-1.809,5.688-5.687,5.688h-.542a1.9,1.9,0,0,0-1.517.758L12.3,21.342a.752.752,0,0,1-1.3,0L9.371,19.175a2.032,2.032,0,0,0-1.517-.758H7.313c-4.008,0-5.687-.791-5.687-5.688V7.313c0-3.878,1.809-5.687,5.687-5.687m4.333,22.032A2.76,2.76,0,0,1,9.456,22.5l-1.6-2.137-.042-.018h-.5c-2.652,0-4.362-.445-5.544-1.444C.357,17.706-.3,15.746-.3,12.729V7.313A7.705,7.705,0,0,1,1.648,1.648,7.705,7.705,0,0,1,7.313-.3h8.667a7.705,7.705,0,0,1,5.664,1.948,7.705,7.705,0,0,1,1.948,5.664v5.417a7.705,7.705,0,0,1-1.948,5.664,7.705,7.705,0,0,1-5.664,1.948h-.527L13.836,22.5A2.761,2.761,0,0,1,11.646,23.657ZM7.313,1.925a5.531,5.531,0,0,0-4.086,1.3,5.531,5.531,0,0,0-1.3,4.086v5.417c0,2.327.382,3.7,1.239,4.455.88.774,2.3.933,4.149.933h.542a2.341,2.341,0,0,1,1.756.877l1.626,2.168a.458.458,0,0,0,.821,0L13.681,19a2.206,2.206,0,0,1,1.757-.878h.542a5.531,5.531,0,0,0,4.086-1.3,5.531,5.531,0,0,0,1.3-4.086V7.313a5.531,5.531,0,0,0-1.3-4.086,5.531,5.531,0,0,0-4.086-1.3Z" transform="translate(685.354 189.354)" fill="#fff"/>
      <path id="Trazado_810" data-name="Trazado 810" d="M3.482-8.812a2.62,2.62,0,0,0-2.176.859A3.473,3.473,0,0,0,.563-5.893q0,.544.887.544t.887-.544a1.443,1.443,0,0,1,.3-.959,1.111,1.111,0,0,1,.9-.358,1.225,1.225,0,0,1,.83.272.884.884,0,0,1,.315.7,1.982,1.982,0,0,1-.372,1.1,4.372,4.372,0,0,1-.773.9A2.979,2.979,0,0,0,2.8-2.887,8.448,8.448,0,0,0,2.509-1.2q0,.515.859.515t.8-.515a3.2,3.2,0,0,1,.115-1.374,2.441,2.441,0,0,1,.573-.973A7.846,7.846,0,0,0,5.916-4.719,2.485,2.485,0,0,0,6.4-6.236a2.732,2.732,0,0,0-.644-1.8A2.832,2.832,0,0,0,3.482-8.812ZM3.368,0a1.112,1.112,0,0,0-.773.284.956.956,0,0,0-.315.745.9.9,0,0,0,.315.69,1.112,1.112,0,0,0,.773.284,1.023,1.023,0,0,0,.73-.284.915.915,0,0,0,.3-.69A.978.978,0,0,0,4.1.289,1.023,1.023,0,0,0,3.368,0Z" transform="translate(693.188 203.319)" fill="#fff"/>
      <path id="Trazado_810_-_Contorno" data-name="Trazado 810 - Contorno" d="M3.482-8.812a2.62,2.62,0,0,0-2.176.859A3.473,3.473,0,0,0,.563-5.893q0,.544.887.544t.887-.544a1.443,1.443,0,0,1,.3-.959,1.111,1.111,0,0,1,.9-.358,1.225,1.225,0,0,1,.83.272.884.884,0,0,1,.315.7,1.982,1.982,0,0,1-.372,1.1,4.372,4.372,0,0,1-.773.9A2.979,2.979,0,0,0,2.8-2.887,8.448,8.448,0,0,0,2.509-1.2q0,.515.859.515t.8-.515a3.2,3.2,0,0,1,.115-1.374,2.441,2.441,0,0,1,.573-.973A7.846,7.846,0,0,0,5.916-4.719,2.485,2.485,0,0,0,6.4-6.236a2.732,2.732,0,0,0-.644-1.8,2.832,2.832,0,0,0-2.276-.773M3.368,0a1.112,1.112,0,0,0-.773.284.956.956,0,0,0-.315.745.9.9,0,0,0,.315.69,1.112,1.112,0,0,0,.773.284,1.023,1.023,0,0,0,.73-.284.915.915,0,0,0,.3-.69A.978.978,0,0,0,4.1.289,1.023,1.023,0,0,0,3.368,0m.115-9.017a3.026,3.026,0,0,1,2.429.845A2.939,2.939,0,0,1,6.6-6.236,2.692,2.692,0,0,1,6.077-4.6,8.086,8.086,0,0,1,4.994-3.4a2.259,2.259,0,0,0-.521.892A3.02,3.02,0,0,0,4.368-1.22a.582.582,0,0,1-.136.47,1.118,1.118,0,0,1-.864.267c-.875,0-1.059-.389-1.059-.715v-.013A8.688,8.688,0,0,1,2.6-2.94a3.189,3.189,0,0,1,.8-1.434l.011-.01a4.2,4.2,0,0,0,.737-.861,1.8,1.8,0,0,0,.339-.991.687.687,0,0,0-.246-.55,1.025,1.025,0,0,0-.7-.223.916.916,0,0,0-.749.286,1.257,1.257,0,0,0-.254.83c0,.339-.189.744-1.087.744a1.468,1.468,0,0,1-.77-.165.646.646,0,0,1-.317-.578V-5.9a3.684,3.684,0,0,1,.788-2.177A2.819,2.819,0,0,1,3.482-9.012ZM3.368-.2a1.222,1.222,0,0,1,.867.339,1.175,1.175,0,0,1,.363.89,1.112,1.112,0,0,1-.363.836,1.222,1.222,0,0,1-.867.339,1.311,1.311,0,0,1-.907-.336,1.092,1.092,0,0,1-.381-.839A1.152,1.152,0,0,1,2.461.14,1.311,1.311,0,0,1,3.368-.2Z" transform="translate(693.188 203.319)" fill="#fff"/>
      <path id="Vector-2" data-name="Vector" d="M0,0H26V26H0Z" transform="translate(684 188)" fill="none" opacity="0"/>
    </g>
  </g>
</svg>
