<svg xmlns="http://www.w3.org/2000/svg" width="26.6" height="26.6" viewBox="0 0 26.6 26.6">
  <g id="send" transform="translate(0.3 0.3)">
    <path id="Vector" d="M3.438,21.507a3.39,3.39,0,0,1-2.515-.915c-.971-.97-1.655-3.032.529-7.409l.96-1.907a1.521,1.521,0,0,0,0-1.036l-.96-1.907C-.742,3.955-.047,1.882.923.923s3.033-1.665,7.4.529l9.442,4.719c2.35,1.169,3.64,2.8,3.64,4.587s-1.291,3.418-3.629,4.587L8.336,20.063A11.34,11.34,0,0,1,3.438,21.507Zm0-19.845a1.861,1.861,0,0,0-1.346.43c-.805.794-.485,2.856.838,5.491L3.89,9.5a3.116,3.116,0,0,1,0,2.514l-.96,1.907c-1.324,2.646-1.644,4.7-.838,5.491s2.857.485,5.5-.838l9.442-4.719c1.732-.86,2.714-2,2.714-3.109S18.76,8.5,17.028,7.637L7.586,2.929A10.15,10.15,0,0,0,3.438,1.661Z" transform="translate(2.293 2.243)" fill="#fff"/>
    <path id="Vector_-_Contorno" data-name="Vector - Contorno" d="M3.438,21.507a11.34,11.34,0,0,0,4.9-1.444l9.442-4.719c2.338-1.169,3.629-2.8,3.629-4.587s-1.291-3.418-3.64-4.587L8.325,1.452C3.957-.742,1.883-.047.923.923s-1.666,3.032.529,7.409l.96,1.907a1.521,1.521,0,0,1,0,1.036l-.96,1.907c-2.184,4.377-1.5,6.439-.529,7.409a3.39,3.39,0,0,0,2.515.915m0-19.845A10.15,10.15,0,0,1,7.586,2.929l9.442,4.708c1.732.86,2.725,2,2.725,3.109S18.771,13,17.039,13.855L7.6,18.574c-2.647,1.323-4.71,1.643-5.5.838s-.485-2.845.838-5.491l.96-1.907a3.116,3.116,0,0,0,0-2.514l-.96-1.918c-1.324-2.635-1.644-4.7-.838-5.491a1.861,1.861,0,0,1,1.346-.43m0,20.145a3.7,3.7,0,0,1-2.727-1c-1.034-1.033-1.791-3.218.473-7.755l.959-1.905a1.271,1.271,0,0,0,0-.773l-.958-1.9C-1.095,3.922-.33,1.74.712.709A3.679,3.679,0,0,1,3.439-.3,11.733,11.733,0,0,1,8.459,1.184L17.9,5.9c2.454,1.221,3.806,2.945,3.806,4.855s-1.348,3.632-3.795,4.855L8.47,20.331A11.788,11.788,0,0,1,3.438,21.807Zm0-19.845A1.591,1.591,0,0,0,2.3,2.3,2.1,2.1,0,0,0,2.01,4.1,11.915,11.915,0,0,0,3.2,7.447l.96,1.919a3.4,3.4,0,0,1,0,2.781L3.2,14.056C1.954,16.545,1.61,18.516,2.3,19.2a1.548,1.548,0,0,0,1.133.351,10.012,10.012,0,0,0,4.027-1.244L16.9,13.587c1.619-.8,2.548-1.839,2.548-2.841s-.932-2.033-2.558-2.84L7.452,3.2A9.96,9.96,0,0,0,3.438,1.961Z" transform="translate(2.293 2.243)" fill="#fff"/>
    <path id="Vector-2" data-name="Vector" d="M6.15,1.5H.75A.755.755,0,0,1,0,.75.755.755,0,0,1,.75,0h5.4A.755.755,0,0,1,6.9.75.755.755,0,0,1,6.15,1.5Z" transform="translate(5.239 12.25)" fill="#fff"/>
    <path id="Vector_-_Contorno-2" data-name="Vector - Contorno" d="M6.15,1.5A.755.755,0,0,0,6.9.75.755.755,0,0,0,6.15,0H.75A.755.755,0,0,0,0,.75a.755.755,0,0,0,.75.75h5.4m0,.3H.75a1.05,1.05,0,1,1,0-2.1h5.4a1.05,1.05,0,0,1,0,2.1Z" transform="translate(5.239 12.25)" fill="#fff"/>
    <path id="Vector-3" data-name="Vector" d="M0,0V26H26V0H0M-.3-.3H26.3V26.3H-.3Z" fill="#fff" opacity="0"/>
  </g>
</svg>
