<svg xmlns="http://www.w3.org/2000/svg" viewBox="0 0 86.83 57.89"><defs><style>.cls-1{fill:#fff;}</style></defs><title>Recurso 24</title><g id="Capa_2" data-name="Capa 2"><g id="private"><path class="cls-1" d="M12.35,21.71H54.27a3.62,3.62,0,0,0,0-7.24H12.35l8.3-8.29a3.62,3.62,0,0,0-5.12-5.12L1.06,15.53a2.1,2.1,0,0,0-.24.27l-.1.12-.11.16a1.4,1.4,0,0,0-.1.16,1,1,0,0,0-.08.14,1.3,1.3,0,0,0-.08.17l-.08.15a1.09,1.09,0,0,0-.05.17A.85.85,0,0,0,.16,17c0,.05,0,.11,0,.16s0,.12,0,.18l0,.19a1,1,0,0,0,0,.16,2.89,2.89,0,0,0,0,.72.77.77,0,0,0,0,.15l0,.2c0,.06,0,.12,0,.17s0,.12.05.17a1.15,1.15,0,0,0,.06.17.76.76,0,0,0,.06.16.77.77,0,0,0,.07.16,1.19,1.19,0,0,0,.08.16,1.09,1.09,0,0,0,.08.15,1.4,1.4,0,0,0,.1.16l.11.15.1.13a2.91,2.91,0,0,0,.24.27h0L15.53,35.12A3.62,3.62,0,1,0,20.65,30Z" transform="translate(0)"/><path class="cls-1" d="M86,42.09,86.1,42l.12-.16.09-.15.09-.15s0-.11.08-.16,0-.11.07-.16l.06-.16.06-.17a1,1,0,0,0,0-.17c0-.06,0-.12.05-.18l0-.19a1,1,0,0,1,0-.16,4.21,4.21,0,0,0,0-.71.88.88,0,0,1,0-.16l0-.19c0-.06,0-.12-.05-.18a.94.94,0,0,0,0-.16l-.06-.18-.06-.16-.07-.15c0-.06,0-.12-.08-.17L86.31,38l-.09-.16-.12-.16L86,37.5l-.24-.26h0L71.3,22.77a3.62,3.62,0,0,0-5.12,5.11l8.29,8.3H32.56a3.62,3.62,0,1,0,0,7.23H74.47l-8.29,8.3a3.62,3.62,0,0,0,5.12,5.12L85.77,42.35h0Z" transform="translate(0)"/></g></g></svg>