<svg id="instagram" xmlns="http://www.w3.org/2000/svg" width="95.667" height="95.667" viewBox="0 0 95.667 95.667">
  <g id="Grupo_10" data-name="Grupo 10">
    <g id="Grupo_9" data-name="Grupo 9">
      <path id="Trazado_63" data-name="Trazado 63" d="M65.771,0H29.9A29.9,29.9,0,0,0,0,29.9V65.771a29.9,29.9,0,0,0,29.9,29.9H65.771a29.9,29.9,0,0,0,29.9-29.9V29.9A29.9,29.9,0,0,0,65.771,0ZM86.7,65.771A20.95,20.95,0,0,1,65.771,86.7H29.9A20.95,20.95,0,0,1,8.969,65.771V29.9A20.95,20.95,0,0,1,29.9,8.969H65.771A20.95,20.95,0,0,1,86.7,29.9Z" fill="#fff"/>
    </g>
  </g>
  <g id="Grupo_12" data-name="Grupo 12" transform="translate(23.917 23.917)">
    <g id="Grupo_11" data-name="Grupo 11">
      <path id="Trazado_64" data-name="Trazado 64" d="M151.917,128a23.917,23.917,0,1,0,23.917,23.917A23.918,23.918,0,0,0,151.917,128Zm0,38.865a14.948,14.948,0,1,1,14.948-14.948A14.969,14.969,0,0,1,151.917,166.865Z" transform="translate(-128 -128)" fill="#fff"/>
    </g>
  </g>
  <g id="Grupo_14" data-name="Grupo 14" transform="translate(70.357 18.936)">
    <g id="Grupo_13" data-name="Grupo 13">
      <circle id="Elipse_51" data-name="Elipse 51" cx="3.187" cy="3.187" r="3.187" fill="#fff"/>
    </g>
  </g>
</svg>
