<svg xmlns="http://www.w3.org/2000/svg" viewBox="0 0 40 40"><defs><style>.cls-1{fill:none;stroke:#979797;stroke-opacity:0;}.cls-2{fill:#fff;fill-rule:evenodd;}</style></defs><title>Tiktok@x1</title><g id="Capa_2" data-name="Capa 2"><g id="Capa_1-2" data-name="Capa 1"><g id="TickTock"><g id="Artboard"><g id="ic_tiktok" data-name="ic tiktok"><rect id="Rectangle" class="cls-1" x="0.5" y="0.5" width="39" height="39"/><path id="Shape" class="cls-2" d="M18.75,3.25a15.47,15.47,0,0,0-5.66,1.54A14.92,14.92,0,0,0,8.7,7.9a16,16,0,0,0-.2,22.43A15.67,15.67,0,0,0,13,33.59,16,16,0,0,0,29.58,32a16.22,16.22,0,0,0,5.22-6.74,16,16,0,0,0-12.86-22,18.24,18.24,0,0,0-3.19-.08m1.71,13.19,0,6.51-.17.42a3,3,0,0,1-4,1.61,2.93,2.93,0,0,1,0-5.31,2.62,2.62,0,0,1,1.43-.27l.93,0V16.16h-1a5.48,5.48,0,0,0-2.94.67,6.29,6.29,0,0,0-2.8,2.88A6.21,6.21,0,0,0,21.57,27a6.83,6.83,0,0,0,1.52-2c.59-1.25.56-1,.59-5.82l0-4.29.24.22a6.94,6.94,0,0,0,3.37,1.68c.81.17.72.28,1-1.31.15-.78.28-1.48.29-1.55s-.06-.16-.46-.24a6,6,0,0,1-3.86-2.75c-.2-.3-.42-.66-.49-.78l-.12-.24H20.48l0,6.52"/></g></g></g></g></g></svg>