<svg id="gorjeo" xmlns="http://www.w3.org/2000/svg" width="100.096" height="81.328" viewBox="0 0 100.096 81.328">
  <g id="Grupo_8" data-name="Grupo 8" transform="translate(0 0)">
    <path id="Trazado_31" data-name="Trazado 31" d="M100.1,57.628a42.783,42.783,0,0,1-11.824,3.241A20.405,20.405,0,0,0,97.3,49.526a41.009,41.009,0,0,1-13.013,4.967,20.519,20.519,0,0,0-35.5,14.032,21.13,21.13,0,0,0,.475,4.68,58.084,58.084,0,0,1-42.3-21.464,20.526,20.526,0,0,0,6.306,27.426A20.265,20.265,0,0,1,4,76.64v.225A20.615,20.615,0,0,0,20.445,97.028a20.482,20.482,0,0,1-5.38.676,18.145,18.145,0,0,1-3.885-.35,20.716,20.716,0,0,0,19.175,14.3A41.233,41.233,0,0,1,4.911,120.4,38.435,38.435,0,0,1,0,120.119a57.771,57.771,0,0,0,31.48,9.209c37.761,0,58.406-31.28,58.406-58.394,0-.907-.031-1.783-.075-2.653A40.937,40.937,0,0,0,100.1,57.628Z" transform="translate(0 -48)" fill="#fff"/>
  </g>
</svg>
