<svg xmlns="http://www.w3.org/2000/svg" xmlns:xlink="http://www.w3.org/1999/xlink" viewBox="0 0 194.52 212.43"><defs><style>.cls-1{fill:url(#Degradado_sin_nombre_104);}.cls-2{fill:url(#Degradado_sin_nombre_81);}.cls-3{fill:#744809;}.cls-4{fill:url(#Degradado_sin_nombre_88);}.cls-5{fill:url(#Degradado_sin_nombre_112);}.cls-6{fill:url(#Degradado_sin_nombre_111);}</style><linearGradient id="Degradado_sin_nombre_104" x1="-8060.97" y1="84.09" x2="-8294.03" y2="130.34" gradientTransform="matrix(-0.62, -0.78, -0.78, 0.62, -4911.78, -6320.11)" gradientUnits="userSpaceOnUse"><stop offset="0.22" stop-color="#dda728"/><stop offset="0.45" stop-color="#c89421"/><stop offset="0.93" stop-color="#946310"/><stop offset="1" stop-color="#8c5c0e"/></linearGradient><linearGradient id="Degradado_sin_nombre_81" x1="-8249.85" y1="48.27" x2="-8063.98" y2="207.83" gradientTransform="matrix(-1, 0, 0, 1, -8047.93, 0)" gradientUnits="userSpaceOnUse"><stop offset="0.18" stop-color="#644013"/><stop offset="0.43" stop-color="#8c5c0e"/><stop offset="0.44" stop-color="#88590e"/><stop offset="0.5" stop-color="#754c11"/><stop offset="0.56" stop-color="#674213"/><stop offset="0.64" stop-color="#5f3d14"/><stop offset="0.79" stop-color="#5d3b14"/><stop offset="0.86" stop-color="#5d3f1c" stop-opacity="0.97"/><stop offset="0.9" stop-color="#5e4b35" stop-opacity="0.86"/><stop offset="0.94" stop-color="#5f5f60" stop-opacity="0.69"/><stop offset="0.98" stop-color="#617b9d" stop-opacity="0.44"/><stop offset="1" stop-color="#628abe" stop-opacity="0.3"/></linearGradient><linearGradient id="Degradado_sin_nombre_88" x1="-8041.5" y1="65.2" x2="-8281.14" y2="146.02" gradientTransform="matrix(-1, 0, 0, 1, -8047.93, 0)" gradientUnits="userSpaceOnUse"><stop offset="0" stop-color="#f3ba2f"/><stop offset="0.17" stop-color="#ebb32d"/><stop offset="0.43" stop-color="#d6a026"/><stop offset="0.75" stop-color="#b3801b"/><stop offset="1" stop-color="#926210"/></linearGradient><linearGradient id="Degradado_sin_nombre_112" x1="9.93" y1="165.04" x2="178.5" y2="232.25" gradientTransform="translate(10.11 -95.38) rotate(-1.32)" gradientUnits="userSpaceOnUse"><stop offset="0" stop-color="#f3ba2f"/><stop offset="0.3" stop-color="#f0b72e"/><stop offset="0.5" stop-color="#e7af2b"/><stop offset="0.69" stop-color="#d8a126"/><stop offset="0.85" stop-color="#c28d1f"/><stop offset="1" stop-color="#a77517"/></linearGradient><linearGradient id="Degradado_sin_nombre_111" x1="62.41" y1="182.5" x2="97.93" y2="214.58" gradientTransform="translate(10.11 -95.38) rotate(-1.32)" gradientUnits="userSpaceOnUse"><stop offset="0" stop-color="#f3ba2f"/><stop offset="0.2" stop-color="#ebb32d"/><stop offset="0.51" stop-color="#d69f26"/><stop offset="0.89" stop-color="#b3801b"/><stop offset="1" stop-color="#a77517"/></linearGradient></defs><title>BNB</title><g id="Capa_2" data-name="Capa 2"><g id="private"><ellipse class="cls-1" cx="88.7" cy="99.37" rx="115.78" ry="65.83" transform="translate(-44.3 106.66) rotate(-51.38)"/><path class="cls-2" d="M31.51,197.21c.74.19,1.5.35,2.27.51l.62.12c.65.12,1.3.23,2,.33l.39.06q1.16.17,2.34.27l.6.05c.64,0,1.29.09,1.94.12l.57,0c.8,0,1.6,0,2.41,0h.51c.67,0,1.35,0,2-.07l.66,0c.83,0,1.67-.11,2.5-.19l.24,0c.77-.08,1.55-.17,2.32-.28l.75-.1,1.69-.27.68-.11c.78-.14,1.56-.29,2.35-.46l.29-.06c.7-.15,1.39-.31,2.09-.48l.77-.19c.56-.14,1.12-.28,1.68-.44l.8-.22c.63-.17,1.26-.36,1.9-.55l.53-.16c.8-.25,1.61-.52,2.42-.79l.61-.22,1.84-.65.83-.31,1.73-.68.76-.3,2.25-.94.19-.08c.81-.36,1.62-.72,2.43-1.1l.75-.35c.58-.27,1.15-.54,1.73-.83l.85-.42,1.73-.88.74-.38c.82-.43,1.64-.87,2.45-1.32l.16-.09c.77-.42,1.53-.85,2.29-1.29l.78-.46,1.71-1,.84-.51,1.77-1.11.66-.42c1.06-.67,2.11-1.37,3.17-2.09l.61-.41c1-.72,2.1-1.45,3.15-2.21l.47-.34c1.05-.76,2.09-1.53,3.14-2.32l.18-.14q1.59-1.22,3.18-2.49l.57-.45c1-.82,2-1.66,3-2.52l.57-.48c1-.89,2.08-1.78,3.11-2.7l.22-.2c1-.89,2-1.8,3-2.72l.44-.41c1-.94,2-1.88,3-2.85.24-.23.48-.46.71-.7l1.32-1.31.83-.84,1.38-1.42c.24-.26.49-.51.73-.76.6-.63,1.19-1.26,1.78-1.9l.3-.32c.69-.75,1.37-1.5,2.05-2.26l.61-.69,1.42-1.62.76-.88c.42-.49.84-1,1.25-1.48.27-.31.53-.63.79-.94l1.21-1.47.78-1,1.23-1.54c.23-.31.47-.6.71-.91.46-.6.93-1.2,1.39-1.81l.51-.67c.63-.83,1.25-1.66,1.86-2.51.14-.18.28-.37.41-.56.48-.66,1-1.32,1.43-2l.64-.92,1.16-1.68.69-1,1.09-1.62.69-1,1.07-1.66.65-1c.38-.61.76-1.22,1.13-1.83l.54-.87c.55-.91,1.09-1.82,1.63-2.74.69-1.17,1.35-2.35,2-3.53.38-.67.74-1.34,1.1-2s.79-1.46,1.17-2.19.7-1.34,1-2l1.09-2.17,1-2c.34-.72.68-1.44,1-2.16s.6-1.33.9-2,.63-1.43.93-2.15l.83-2c.29-.72.58-1.43.86-2.14s.51-1.3.75-2,.53-1.42.79-2.12.46-1.29.68-1.94.48-1.4.71-2.09.42-1.29.62-1.92c.26-.85.52-1.69.76-2.53.09-.31.19-.62.28-.92.34-1.19.66-2.38,1-3.56,0-.22.1-.44.16-.66.24-1,.47-1.94.68-2.9l.24-1.06c.19-.92.38-1.83.55-2.74l.15-.77c.21-1.14.4-2.28.57-3.4,0-.26.07-.53.11-.79.12-.88.24-1.76.34-2.62,0-.34.08-.68.11-1,.1-.87.18-1.74.25-2.6l.06-.77c.08-1.09.14-2.18.18-3.25,0-.25,0-.5,0-.75,0-.83,0-1.65,0-2.46,0-.35,0-.69,0-1,0-.75,0-1.5-.06-2.24,0-.31,0-.62,0-.92-.05-1-.12-2-.22-3a1.36,1.36,0,0,0,0-.2c-.09-.92-.2-1.84-.32-2.75,0-.3-.09-.6-.13-.9q-.17-1.07-.36-2.1c0-.26-.09-.51-.14-.76-.18-.92-.37-1.83-.59-2.71,0-.09-.05-.17-.07-.26-.2-.8-.42-1.6-.66-2.38-.07-.25-.15-.5-.23-.74-.21-.7-.44-1.38-.69-2.06l-.18-.51c-.3-.81-.63-1.62-1-2.4-.08-.2-.17-.38-.26-.57q-.42-.93-.87-1.83c-.1-.21-.21-.42-.32-.63-.39-.75-.8-1.49-1.23-2.21l-.07-.11c-.41-.68-.84-1.34-1.29-2l-.4-.57c-.39-.54-.78-1.07-1.19-1.59l-.33-.42c-.52-.64-1.05-1.25-1.6-1.85l-.39-.4q-.67-.7-1.38-1.38l-.5-.47c-.6-.55-1.21-1.09-1.86-1.6h0l17.14,13.7c.64.51,1.26,1.05,1.86,1.6l.5.47c.47.44.93.9,1.38,1.37l.39.41c.55.6,1.08,1.21,1.59,1.84.12.14.22.28.33.42.41.52.81,1.05,1.19,1.59.14.19.28.38.41.58.44.65.88,1.31,1.29,2l.07.11c.43.71.83,1.45,1.23,2.2l.32.63q.45.9.87,1.83l.26.57c.34.79.66,1.59,1,2.41l.18.51c.24.67.47,1.36.69,2.05l.23.74c.23.79.45,1.58.66,2.39l.06.25c.22.89.42,1.8.6,2.71.05.25.09.51.14.76s.13.66.19,1,.11.74.16,1.11.09.6.14.9c.12.9.23,1.81.32,2.74a1.36,1.36,0,0,0,0,.2c.09,1,.16,2,.22,3l0,.91c0,.74.05,1.49.06,2.24,0,.35,0,.69,0,1,0,.81,0,1.63,0,2.45,0,.26,0,.5,0,.76q-.06,1.6-.18,3.24c0,.26,0,.52-.07.78,0,.6-.09,1.21-.15,1.82,0,.25-.06.52-.09.78s-.07.66-.11,1c-.1.87-.22,1.75-.35,2.63,0,.26-.07.52-.11.78-.17,1.13-.35,2.26-.56,3.4l-.15.77c-.17.91-.36,1.83-.56,2.75-.07.35-.15.7-.23,1.06-.21,1-.44,1.92-.68,2.89-.06.22-.11.44-.17.67-.3,1.18-.62,2.36-1,3.55l-.27.92c-.16.55-.31,1.09-.48,1.63-.09.3-.19.6-.29.9-.2.64-.4,1.28-.62,1.92s-.46,1.4-.7,2.1-.45,1.29-.69,1.93-.51,1.41-.78,2.12-.5,1.3-.76,2-.56,1.42-.86,2.13-.54,1.32-.82,2-.62,1.43-.94,2.15-.59,1.32-.89,2-.67,1.44-1,2.16-.64,1.33-1,2-.72,1.45-1.09,2.17-.68,1.35-1,2-.77,1.45-1.17,2.18-.73,1.35-1.1,2l-.42.78-1.58,2.75c-.54.91-1.08,1.82-1.63,2.73l-.54.88c-.38.61-.75,1.22-1.14,1.83l-.64,1-1.07,1.66-.7,1.06c-.35.54-.71,1.08-1.08,1.61l-.69,1c-.39.56-.77,1.12-1.16,1.67l-.65.93c-.47.67-1,1.33-1.43,2l-.4.55c-.61.84-1.24,1.68-1.86,2.51l-.51.66c-.46.61-.93,1.22-1.4,1.82l-.7.89-1.24,1.56c-.25.32-.51.63-.77.95l-1.21,1.47-.79.95-1.25,1.47-.76.89-1.42,1.61-.61.69c-.68.76-1.37,1.52-2.06,2.27l-.28.29q-.88,1-1.8,1.92l-.72.75-1.39,1.44-.82.83-1.32,1.32-.42.42a3.83,3.83,0,0,0-.29.28c-1,1-2,1.91-3,2.84l-.44.41c-1,.92-2,1.83-3,2.72l-.22.21c-1,.91-2.07,1.81-3.11,2.69l-.57.49c-1,.85-2,1.69-3.05,2.51l-.57.46c-1.06.84-2.12,1.67-3.18,2.48l-.19.14c-1,.79-2.08,1.56-3.13,2.32l-.48.35c-1,.75-2.09,1.48-3.14,2.2l-.62.42c-1,.71-2.11,1.41-3.16,2.09l-.15.09-.51.33-1.77,1.1-.85.52-1.7,1-.78.46q-1.14.66-2.28,1.29l-.17.1c-.82.45-1.63.89-2.45,1.31l-.74.39-1.74.88-.84.42-1.74.83-.74.35c-.81.37-1.62.74-2.44,1.09l-.17.08c-.75.32-1.51.64-2.26.94l-.26.11-.5.2-1.74.67-.82.31c-.61.23-1.23.45-1.85.66L86,208c-.81.28-1.62.54-2.43.79L83,209c-.63.2-1.26.38-1.89.56l-.8.22-1.69.44-.76.19c-.7.17-1.4.33-2.09.47l-.29.07-2.36.45-.68.12-1.69.26-.4.07-.34,0-2.33.27-.23,0c-.84.08-1.67.14-2.5.19l-.66,0-2,.06h-.5c-.81,0-1.62,0-2.42,0l-.56,0c-.65,0-1.3-.07-1.94-.13l-.6-.05c-.79-.07-1.57-.16-2.34-.26-.13,0-.26-.05-.39-.06-.66-.1-1.32-.21-2-.34l-.62-.12c-.76-.15-1.52-.32-2.27-.51a40.13,40.13,0,0,1-13.5-6.16q-.82-.59-1.62-1.23L16.38,189.82A39.72,39.72,0,0,0,31.51,197.21Z"/><path class="cls-3" d="M134.56,19.86C104.64,12.22,59.64,41.35,34.25,84.78s-21.69,85,8.23,92.59,74.93-21.47,100.31-64.9,21.7-85-8.23-92.61M37.88,185.24C5,176.85.9,131.17,28.83,83.4S106.25,3.59,139.16,12s37,54.1,9.06,101.87S70.8,193.64,37.88,185.24"/><path class="cls-4" d="M132.86,18.35C102.94,10.71,57.94,39.84,32.55,83.27s-21.69,85,8.24,92.59S115.71,154.38,141.1,111s21.69-85-8.24-92.61M36.18,183.73c-32.91-8.39-37-54.07-9-101.84S104.55,2.08,137.46,10.47s37,54.1,9.06,101.87S69.1,192.13,36.18,183.73"/><g id="bnb"><path class="cls-3" d="M77.89,76.55l27.79-16-.3,32.09,16.17-9.32L122,32.57l-44,25.32-.17,18.66M50.47,73.79l16.17-9.32-.17,18.66L50.3,92.44ZM66.35,96.31l-.3,32.07,27.8-16L93.69,131h0l-44,25.33.47-50.73v0l16.17-9.29m38.9,9.49,16.17-9.32-.17,18.66-16.17,9.32Z"/><path class="cls-3" d="M94,99.19h0l.18-18.93L82,87.24h0l-1.39.81L77.77,89.7h0v0l-.17,18.92L94,99.21h0"/></g><g id="bnb-2" data-name="bnb"><path class="cls-5" d="M75.75,73.76l27.79-16-.3,32.09,16.17-9.32.47-50.74-44,25.32-.17,18.66M48.33,71l16.18-9.32-.18,18.66L48.16,89.65ZM64.21,93.52l-.3,32.07,27.8-16-.16,18.66h0l-44,25.33L48,102.83v0l16.17-9.29M103.12,103l16.17-9.32-.18,18.66-16.17,9.32Z"/><path class="cls-6" d="M91.84,96.4h0L92,77.47l-12.12,7h0l-1.4.81-2.87,1.65h0v0l-.18,18.92,16.41-9.45h0"/></g></g></g></svg>