<svg xmlns="http://www.w3.org/2000/svg" viewBox="0 0 227.01 66.4"><defs><style>.cls-1{fill:#fff;}.cls-2,.cls-3{fill:none;}.cls-3{stroke:#fff;stroke-width:4px;}</style></defs><title>LOGO CONT</title><g id="Capa_2" data-name="Capa 2"><g id="Capa_2-2" data-name="Capa 2"><path class="cls-1" d="M122.62,45.59a5.08,5.08,0,0,1-1.74,3.81A5.76,5.76,0,0,1,116.79,51a6.66,6.66,0,0,1-4.73-2.1L92.26,29.78V45.27a5.68,5.68,0,0,1-1.73,4.36,6.71,6.71,0,0,1-4.73,1.61,6.48,6.48,0,0,1-4.62-1.61,5.73,5.73,0,0,1-1.7-4.36V10.16a5.67,5.67,0,0,1,1.7-4.3,6.48,6.48,0,0,1,4.62-1.6,6.71,6.71,0,0,1,4.73,1.6,5.62,5.62,0,0,1,1.73,4.3V24.6L111.78,6a5.75,5.75,0,0,1,8.13-.17,5,5,0,0,1,1.74,3.78,5.37,5.37,0,0,1-2,4L105.39,26.83l15.42,15A5,5,0,0,1,122.62,45.59Z"/><path class="cls-1" d="M130.43,49.63a5.73,5.73,0,0,1-1.7-4.36V10.16a5.67,5.67,0,0,1,1.7-4.3,6.48,6.48,0,0,1,4.62-1.6,6.71,6.71,0,0,1,4.73,1.6,5.62,5.62,0,0,1,1.73,4.3V45.27a5.68,5.68,0,0,1-1.73,4.36,6.71,6.71,0,0,1-4.73,1.61A6.48,6.48,0,0,1,130.43,49.63Z"/><path class="cls-1" d="M152.7,49.4a5.49,5.49,0,0,1-1.53-4.2v-35a5.67,5.67,0,0,1,1.7-4.3,6.48,6.48,0,0,1,4.62-1.6,6.67,6.67,0,0,1,4.72,1.6,5.59,5.59,0,0,1,1.74,4.3V41.07h16q6,0,6,4.92a4.4,4.4,0,0,1-1.49,3.67,7.26,7.26,0,0,1-4.55,1.18H157.07A6.12,6.12,0,0,1,152.7,49.4Z"/><path class="cls-1" d="M193.2,49.4a5.49,5.49,0,0,1-1.53-4.2v-35a5.63,5.63,0,0,1,1.7-4.3A6.44,6.44,0,0,1,198,4.26a6.68,6.68,0,0,1,4.72,1.6,5.59,5.59,0,0,1,1.74,4.3V41.07h16c4,0,6,1.64,6,4.92a4.37,4.37,0,0,1-1.5,3.67,7.23,7.23,0,0,1-4.54,1.18H197.57A6.11,6.11,0,0,1,193.2,49.4Z"/><path class="cls-1" d="M79.12,54.59h2.29v9.65H79.12Zm1.38,5.88,4.87-5.88h2.88l-7.46,8.24Zm2-1.11,2-1,4.27,5.87H86Z"/><path class="cls-1" d="M92.66,64.24H90.28V54.59h2.38Z"/><path class="cls-1" d="M95.35,54.59h2.29v9.65H95.35Zm1,7.9h7.12v1.75H96.37Z"/><path class="cls-1" d="M105.35,54.59h2.28v9.65h-2.28Zm1,7.9h7.12v1.75h-7.12Z"/><path class="cls-1" d="M128.76,58.84v1.89a3.26,3.26,0,0,1-.55,1.89,3.5,3.5,0,0,1-1.55,1.27,5.58,5.58,0,0,1-2.32.45,6.1,6.1,0,0,1-2.34-.42,3.55,3.55,0,0,1-1.57-1.19,3,3,0,0,1-.56-1.79V58.09a3.3,3.3,0,0,1,.55-1.89A3.55,3.55,0,0,1,122,54.94a5.62,5.62,0,0,1,2.32-.45,5.48,5.48,0,0,1,2,.36,4.07,4.07,0,0,1,1.53,1,3.36,3.36,0,0,1,.83,1.51h-2.47a1.26,1.26,0,0,0-.42-.53,2,2,0,0,0-.67-.34,3.1,3.1,0,0,0-.81-.11,2.59,2.59,0,0,0-1.07.21,1.64,1.64,0,0,0-.72.6,1.6,1.6,0,0,0-.25.9v2.85a1.31,1.31,0,0,0,.25.8,1.72,1.72,0,0,0,.74.53,3.09,3.09,0,0,0,1.1.18,2.6,2.6,0,0,0,1.08-.2,1.56,1.56,0,0,0,.72-.59,1.66,1.66,0,0,0,.25-.9V60.6h-1.84V58.84Z"/><path class="cls-1" d="M134.35,54.59h1.45l4.64,9.65H138l-2.91-6.59-2.91,6.59H129.7Zm-2.42,6.35h6.39v1.75h-6.39Z"/><path class="cls-1" d="M140.13,54.59H149v1.75h-8.9Zm3.31.79h2.29v8.86h-2.29Z"/><path class="cls-1" d="M150.56,54.59h2.29v9.65h-2.29Zm.83,0h7.31v1.75h-7.31Zm0,4h6.39v1.75h-6.39Zm0,3.92h7.31v1.75h-7.31Z"/><path class="cls-1" d="M163.92,64.34l-.83-.14a8.09,8.09,0,0,1-1.56-.41,5.93,5.93,0,0,1-1.31-.65l1.06-1.5a5.42,5.42,0,0,0,1.62.71,7,7,0,0,0,1.89.25,4.09,4.09,0,0,0,1.74-.3.93.93,0,0,0,.61-.85h0a.75.75,0,0,0-.27-.61,1.72,1.72,0,0,0-.72-.33,10.77,10.77,0,0,0-1.14-.2h-.09l-.18,0a13.84,13.84,0,0,1-2-.38,3,3,0,0,1-1.36-.8,2.23,2.23,0,0,1-.56-1.63h0a2.5,2.5,0,0,1,.52-1.6,3.24,3.24,0,0,1,1.53-1,7.5,7.5,0,0,1,2.42-.35,7.76,7.76,0,0,1,1.34.12,9,9,0,0,1,1.33.35,8.48,8.48,0,0,1,1.23.54l-1,1.54a6.68,6.68,0,0,0-1.47-.6,5.55,5.55,0,0,0-1.47-.21,3.79,3.79,0,0,0-1.63.28.84.84,0,0,0-.57.77h0a.83.83,0,0,0,.3.66,1.88,1.88,0,0,0,.74.35,11.71,11.71,0,0,0,1.25.24h.13l.1,0h.09a12.44,12.44,0,0,1,1.93.44,3,3,0,0,1,1.29.82,2.23,2.23,0,0,1,.52,1.55h0a2.36,2.36,0,0,1-.55,1.58,3.35,3.35,0,0,1-1.58,1,8,8,0,0,1-2.5.35Z"/><path class="cls-1" d="M174.81,54.59h8.9v1.75h-8.9Zm3.3.79h2.29v8.86h-2.29Z"/><path class="cls-1" d="M186.76,63.9a3.62,3.62,0,0,1-1.56-1.25,3.22,3.22,0,0,1-.55-1.87V58.05a3.22,3.22,0,0,1,.55-1.87,3.62,3.62,0,0,1,1.56-1.25,6.36,6.36,0,0,1,4.65,0A3.62,3.62,0,0,1,193,56.18a3.22,3.22,0,0,1,.55,1.87v2.73a3.22,3.22,0,0,1-.55,1.87,3.62,3.62,0,0,1-1.56,1.25,6.36,6.36,0,0,1-4.65,0Zm3.41-1.59a1.69,1.69,0,0,0,.72-.59,1.6,1.6,0,0,0,.26-.89V58a1.6,1.6,0,0,0-.26-.89,1.69,1.69,0,0,0-.72-.59,2.91,2.91,0,0,0-2.17,0,1.69,1.69,0,0,0-.72.59A1.6,1.6,0,0,0,187,58v2.83a1.6,1.6,0,0,0,.26.89,1.69,1.69,0,0,0,.72.59,2.91,2.91,0,0,0,2.17,0Z"/><path class="cls-1" d="M196,54.59h2.29v9.65H196Zm1.38,5.88,4.87-5.88h2.88l-7.45,8.24Zm2-1.11,2-1,4.26,5.87h-2.71Z"/><path class="cls-1" d="M207.3,54.59h2.28v9.65H207.3Zm.82,0h7.31v1.75h-7.31Zm0,4h6.39v1.75h-6.39Zm0,3.92h7.31v1.75h-7.31Z"/><path class="cls-1" d="M217.71,54.59h2.8L225,62l-.2.17V54.59H227v9.64H224.2L219.7,57l.2-.17v7.45h-2.19Z"/><g id="Grupo_6" data-name="Grupo 6"><path id="Trazado_7" data-name="Trazado 7" class="cls-1" d="M28.18,25.37c-7.93,0-8.3,5.25-8.24,7.12.1,3.59,2,7.31,6.72,3.86,3.54-2.59,5.46-4.57,5.46-6.62C32.11,26.41,31.43,25.37,28.18,25.37Z"/><path id="Trazado_8" data-name="Trazado 8" class="cls-1" d="M34.08,9.66c-13,0-22.86,10.59-22.86,24.63,0,8,4.42,12.54,12.15,12.6v3.54c0,6.91,4.77,7.11,5.32,7.11a5.09,5.09,0,0,0,2.1-.46A4.72,4.72,0,0,0,34.1,57a4.58,4.58,0,0,0,1.72.33,4.9,4.9,0,0,0,1.6-.28,5.29,5.29,0,0,0,2.08.45c.54,0,5.28-.2,5.28-7.09V46.87c7.73-.08,12.16-4.65,12.16-12.58C56.94,20.25,47.11,9.66,34.08,9.66Zm10.5,33.65A22.18,22.18,0,0,1,41.22,43v7.4c0,2.65-.85,3.52-1.72,3.52a2,2,0,0,1-1.82-1.78s-.79,1.61-1.86,1.61c-.53,0-1.14-.4-1.74-1.61-.61,1.21-1.2,1.61-1.74,1.61-1.05,0-1.84-1.61-1.84-1.61A2,2,0,0,1,28.68,54c-.87,0-1.74-.88-1.74-3.54V43a20.6,20.6,0,0,1-3.42.3c-5.24,0-8.73-2.5-8.73-9,0-11.64,7.65-21.07,19.29-21.07s19.29,9.43,19.29,21.07c0,6.58-3.53,9-8.79,9Z"/><path id="Trazado_9" data-name="Trazado 9" class="cls-1" d="M40,25.37c-3.26,0-3.94,1-3.94,4.36,0,2.05,1.92,4,5.46,6.62,4.69,3.45,6.62-.27,6.72-3.86C48.28,30.62,47.91,25.37,40,25.37Z"/><path id="Trazado_10" data-name="Trazado 10" class="cls-1" d="M36.37,39.9a2.39,2.39,0,0,0-2.29,1.9S33.26,40,32,40c-2.88,0-.72,2.73.48,6.18.39,1.11,1.62.69,1.62-.5,0,1.25,1.17,1.84,1.76.19C37.08,42.34,38.79,39.9,36.37,39.9Z"/><g id="Elipse_6" data-name="Elipse 6"><ellipse class="cls-2" cx="34.29" cy="33.2" rx="33.09" ry="32"/><ellipse class="cls-3" cx="34.29" cy="33.2" rx="32.29" ry="31.2"/></g></g></g></g></svg>