<svg xmlns="http://www.w3.org/2000/svg" viewBox="0 0 45.2 41.25"><defs><style>.cls-1{fill:#fff;}</style></defs><title>Academy</title><g id="Capa_2" data-name="Capa 2"><g id="Capa_1-2" data-name="Capa 1"><path class="cls-1" d="M45.2,32.09a2.81,2.81,0,0,1-1.1,2.24v5.18a1.75,1.75,0,0,1-3.49,0V34.33a2.83,2.83,0,0,1,0-4.48V16.56l2.84-1a3,3,0,0,0,.65-.33V29.85A2.81,2.81,0,0,1,45.2,32.09Z"/><path class="cls-1" d="M44.55,11.38a2.56,2.56,0,0,1-1.1.71L27.32,17.7,23.4,19.06a2.63,2.63,0,0,1-1.73,0l-3.82-1.37L2.23,12.1l-.5-.18a2.65,2.65,0,0,1-1.07-.71A2.62,2.62,0,0,1,.87,7.53h0A2.55,2.55,0,0,1,1.76,7L21.68.15a2.54,2.54,0,0,1,1.7,0l20.08,7A2.62,2.62,0,0,1,44.55,11.38Z"/><path class="cls-1" d="M38.22,17.39v7.33c0,4.07-7,7.37-15.69,7.37S6.84,28.79,6.84,24.72v-7.5l5.42,1.94,9.41,3.36a2.63,2.63,0,0,0,1.73,0L33,19.22Z"/></g></g></svg>