<svg xmlns="http://www.w3.org/2000/svg" viewBox="0 0 49.95 50"><defs><style>.cls-1{fill:#fff;}</style></defs><title>Batalla</title><g id="Capa_2" data-name="Capa 2"><g id="Capa_1-2" data-name="Capa 1"><path class="cls-1" d="M11.15,41.86a7.85,7.85,0,0,0-1.28-1.72,7.6,7.6,0,0,0-1.82-1.33c-.78-.42-.16-1.31-.16-1.31C8.69,36.28,9.43,35.05,10,34L6,29.9H2a1.38,1.38,0,0,1,0-2.75H6.53a1.34,1.34,0,0,1,1,.4L22.4,42.43a1.37,1.37,0,0,1,.4,1V48A1.38,1.38,0,1,1,20,48V44l-4.06-4c-1.09.65-2.36,1.44-3.63,2.31A.79.79,0,0,1,11.15,41.86Z"/><path class="cls-1" d="M4.64,40.73A4.64,4.64,0,0,0,0,45.37a4.56,4.56,0,0,0,1.36,3.27,4.64,4.64,0,0,0,7.92-3.27,4.64,4.64,0,0,0-4.64-4.64Z"/><path class="cls-1" d="M47.76,8.9,20.17,36.49a.64.64,0,0,1-.92,0L13.46,30.7a.64.64,0,0,1,0-.92L41.05,2.19A.66.66,0,0,1,41.34,2L48.42.08l.14,0a1.1,1.1,0,0,1,1.35,1.35l0,.14L47.93,8.61A.66.66,0,0,1,47.76,8.9Z"/><path class="cls-1" d="M37.6,42.23c-1.27-.87-2.54-1.66-3.63-2.31l-4.06,4v4a1.38,1.38,0,1,1-2.76,0V43.4a1.41,1.41,0,0,1,.4-1l14.9-14.88a1.34,1.34,0,0,1,1-.4H48a1.38,1.38,0,0,1,0,2.75H44L39.92,34c.6,1.08,1.34,2.31,2.14,3.53,0,0,.62.89-.16,1.31a7.6,7.6,0,0,0-1.82,1.33,7.85,7.85,0,0,0-1.28,1.72A.79.79,0,0,1,37.6,42.23Z"/><path class="cls-1" d="M42,42.09A4.64,4.64,0,0,0,45.31,50a4.64,4.64,0,1,0,0-9.27A4.64,4.64,0,0,0,42,42.09Z"/><path class="cls-1" d="M2.19,8.9,29.78,36.49a.64.64,0,0,0,.92,0l5.79-5.79a.64.64,0,0,0,0-.92L8.9,2.19A.66.66,0,0,0,8.61,2L1.53.08,1.39,0A1.1,1.1,0,0,0,0,1.39l0,.14L2,8.61A.66.66,0,0,0,2.19,8.9Z"/></g></g></svg>