<svg xmlns="http://www.w3.org/2000/svg" viewBox="0 0 42.51 50"><defs><style>.cls-1{fill:#fff;}</style></defs><title>BrackList</title><g id="Capa_2" data-name="Capa 2"><g id="Capa_1-2" data-name="Capa 1"><path class="cls-1" d="M34.07,0H8.44A8.44,8.44,0,0,0,0,8.45V41.56A8.44,8.44,0,0,0,8.44,50H34.07a8.44,8.44,0,0,0,8.44-8.44V8.45A8.44,8.44,0,0,0,34.07,0ZM10.71,37.51a2.5,2.5,0,1,1,2.5-2.5A2.5,2.5,0,0,1,10.71,37.51Zm0-10a2.5,2.5,0,1,1,2.5-2.5A2.49,2.49,0,0,1,10.71,27.5Zm0-10a2.5,2.5,0,1,1,2.5-2.5A2.5,2.5,0,0,1,10.71,17.5ZM32,36.76H18a1.75,1.75,0,1,1,0-3.49H32a1.75,1.75,0,1,1,0,3.49Zm0-10H18a1.75,1.75,0,1,1,0-3.49H32a1.75,1.75,0,1,1,0,3.49Zm0-10H18a1.75,1.75,0,1,1,0-3.49H32a1.75,1.75,0,1,1,0,3.49Z"/></g></g></svg>