<svg xmlns="http://www.w3.org/2000/svg" viewBox="0 0 50.16 41.15"><defs><style>.cls-1{fill:#fff;}</style></defs><title>Farming</title><g id="Capa_2" data-name="Capa 2"><g id="Capa_1-2" data-name="Capa 1"><path class="cls-1" d="M11.75,17.64A11.76,11.76,0,1,0,23.51,29.39,11.76,11.76,0,0,0,11.75,17.64Zm0,20.57a8.82,8.82,0,1,1,8.82-8.82A8.83,8.83,0,0,1,11.75,38.21Z"/><path class="cls-1" d="M16.16,29.39A4.41,4.41,0,1,1,11.75,25,4.41,4.41,0,0,1,16.16,29.39Z"/><circle class="cls-1" cx="41.34" cy="32.33" r="2.5"/><path class="cls-1" d="M47.22,25.77V20.58a5.88,5.88,0,0,0-5.88-5.88H38.4V7.35a1.47,1.47,0,0,1,1.47-1.47V2.94a4.42,4.42,0,0,0-4.41,4.41V14.7H29L25.65,3.49h2A1.74,1.74,0,0,0,27.92,0l-.27,0H4.74A1.27,1.27,0,0,0,4.4,0a1.74,1.74,0,0,0,.34,3.45h2.6v8.83a17.44,17.44,0,0,0-6.18,3,3.75,3.75,0,0,0-.33.26,1,1,0,0,0-.22.32,1.34,1.34,0,0,0-.18.69v0A1.48,1.48,0,0,0,1.86,18,1.49,1.49,0,0,0,2.33,18a1.61,1.61,0,0,0,.54-.27l0,0A14.69,14.69,0,0,1,26.45,29.39V31.3A2.49,2.49,0,0,0,29,33.8h3.7a8.82,8.82,0,1,0,14.57-8ZM21.49,14.7a17.5,17.5,0,0,0-9.74-2.94q-.73,0-1.47.06V3.49h12.3L25.94,14.7ZM32.65,30.86H29.39V29.39c0-.18,0-.37,0-.55a18.63,18.63,0,0,0-.24-2.38h5.64A8.74,8.74,0,0,0,32.65,30.86Zm-4.27-7.34a17.65,17.65,0,0,0-3.49-5.88H41.34a2.94,2.94,0,0,1,2.94,2.94V24a8.69,8.69,0,0,0-2.94-.5Zm13,14.69a5.88,5.88,0,1,1,5.88-5.88A5.88,5.88,0,0,1,41.34,38.21Z"/><path class="cls-1" d="M2.87,17.7a5.32,5.32,0,0,0-.47.36L2.33,18A1.61,1.61,0,0,0,2.87,17.7Z"/></g></g></svg>