<svg xmlns="http://www.w3.org/2000/svg" viewBox="0 0 49.99 32.32"><defs><style>.cls-1{fill:#fff;}</style></defs><title>Games</title><g id="Capa_2" data-name="Capa 2"><g id="Capa_1-2" data-name="Capa 1"><path class="cls-1" d="M36.1,0a7.15,7.15,0,0,0-3.73.87A10.42,10.42,0,0,1,30.53,2h0a6.19,6.19,0,0,1-1.8.72l-.09,0a12.5,12.5,0,0,1-3.56.51,12.67,12.67,0,0,1-3.24-.42h0a7,7,0,0,1-3-1.25l-.15-.1a4.17,4.17,0,0,1-.56-.37A7.13,7.13,0,0,0,13.91,0C5.49,0,0,16.33,0,24.83c0,6.76,3.16,7.49,4.49,7.49,2.4,0,5.23-1.78,8.67-5.43a10.72,10.72,0,0,1,7.69-3.36h8.31a10.69,10.69,0,0,1,7.68,3.36c3.44,3.65,6.27,5.43,8.66,5.43a3.9,3.9,0,0,0,3.61-2.54,12,12,0,0,0,.88-5C50,16.33,44.5,0,36.1,0ZM18.3,14.92H15V18.2A1.76,1.76,0,0,1,13.29,20h0a1.76,1.76,0,0,1-1.74-1.75V14.92H8.25a1.74,1.74,0,0,1,0-3.48h3.29V8.15a1.75,1.75,0,0,1,1.74-1.74h0A1.75,1.75,0,0,1,15,8.15v3.29H18.3a1.74,1.74,0,0,1,0,3.48ZM36.72,6.71a2.5,2.5,0,0,1,2.5,2.5,2.26,2.26,0,0,1-.11.69.52.52,0,0,1-.07.21c0,.08-.06.15-.08.21s-.07.13-.11.19-.08.13-.13.19a1.15,1.15,0,0,1-.14.17,2.31,2.31,0,0,1-1.11.72,2,2,0,0,1-.61.11h-.3a1.93,1.93,0,0,1-.59-.11,2.39,2.39,0,0,1-1.12-.72.52.52,0,0,1-.13-.17.59.59,0,0,1-.13-.19c-.05-.06-.07-.12-.12-.19s-.06-.13-.08-.21a1.31,1.31,0,0,1-.08-.21,2.25,2.25,0,0,1-.09-.69A2.5,2.5,0,0,1,36.72,6.71Zm-4.39,9a2.5,2.5,0,1,1,2.13-3.8,2.41,2.41,0,0,1,.37,1.3,2.5,2.5,0,0,1-2.5,2.5Zm4.39,4a2.5,2.5,0,1,1,2.5-2.5A2.49,2.49,0,0,1,36.72,19.64Zm4.39-4A2.49,2.49,0,0,1,39,14.48a2.47,2.47,0,0,1,0-2.6,2.5,2.5,0,1,1,2.13,3.8Z"/></g></g></svg>