<svg xmlns="http://www.w3.org/2000/svg" viewBox="0 0 49.23 50"><defs><style>.cls-1{fill:#fff;}</style></defs><title>Market Place</title><g id="Capa_2" data-name="Capa 2"><g id="Capa_1-2" data-name="Capa 1"><path id="Vector-30" class="cls-1" d="M14.35,50A11.84,11.84,0,0,1,2.49,38.19l0-7a2.37,2.37,0,0,1,2.37-2.36,2.45,2.45,0,0,1,.8.14,10.87,10.87,0,0,0,2,.47,6.59,6.59,0,0,0,.88.1,10.88,10.88,0,0,0,1.14.06,12.13,12.13,0,0,0,7.57-2.77,11.46,11.46,0,0,0,7.48,2.74,11.31,11.31,0,0,0,7.45-2.75,12,12,0,0,0,7.49,2.71,10.36,10.36,0,0,0,1.25-.07,7.35,7.35,0,0,0,.82-.11,10.54,10.54,0,0,0,2.06-.52,2.36,2.36,0,0,1,3,1.47,2.11,2.11,0,0,1,.13.75l0,7A11.84,11.84,0,0,1,35.07,50Z"/><path id="Vector-31" class="cls-1" d="M49.16,16.56,48.46,10c-1-7.13-4.25-10-11.19-10L11.83.06C4.89.07,1.67,3,.68,10.2L.05,16.69A9.68,9.68,0,0,0,2,23.6a9.49,9.49,0,0,0,7.64,3.66,9.69,9.69,0,0,0,7.62-3.91A9,9,0,0,0,32,23.42a9.72,9.72,0,0,0,7.59,3.77,9.41,9.41,0,0,0,7.74-3.88A9.52,9.52,0,0,0,49.16,16.56Z"/></g></g></svg>