<svg xmlns="http://www.w3.org/2000/svg" viewBox="0 0 50 50"><defs><style>.cls-1{fill:#fff;}</style></defs><title>NFT</title><g id="Capa_2" data-name="Capa 2"><g id="Capa_1-2" data-name="Capa 1"><path class="cls-1" d="M40.84,0H9.15A9.16,9.16,0,0,0,0,9.16V40.85A9.15,9.15,0,0,0,9.15,50H40.84A9.16,9.16,0,0,0,50,40.85V9.16A9.16,9.16,0,0,0,40.84,0Zm5.57,38.57a7.84,7.84,0,0,1-7.84,7.85H11.43a7.84,7.84,0,0,1-7.85-7.85V21.66a1.2,1.2,0,0,1-.05-.38v-10a1.57,1.57,0,0,1,.08-.49,7.84,7.84,0,0,1,7.05-7.11,6.51,6.51,0,0,1,.77,0H38.57c.23,0,.45,0,.67,0a7.84,7.84,0,0,1,7.17,7.81Z"/><path class="cls-1" d="M25.3,18.6v2.91h4.79a1.26,1.26,0,0,1,1.25,1.25v1A1.25,1.25,0,0,1,30.09,25H25.3v5.88a1.75,1.75,0,0,1-3.49,0v-14a1.75,1.75,0,0,1,1.74-1.74h6.54a1.25,1.25,0,0,1,1.25,1.25v1a1.25,1.25,0,0,1-1.25,1.25Z"/><path class="cls-1" d="M19.79,16.85V30.78A1.8,1.8,0,0,1,19.07,32a1.76,1.76,0,0,1-2.44-.4l-.29-.41-6.44-9v8.64a1.74,1.74,0,0,1-3.48,0v-14a1.74,1.74,0,0,1,3.21-.92,1.63,1.63,0,0,1,.17.2l6.5,9V16.85a1.75,1.75,0,0,1,3.49,0Z"/><path class="cls-1" d="M44.55,16.55v.61a1.45,1.45,0,0,1-1.44,1.44H40.27V30.88a1.75,1.75,0,0,1-3.49,0V18.6H34a1.45,1.45,0,0,1-1.44-1.44v-.61A1.45,1.45,0,0,1,34,15.11h9.09A1.45,1.45,0,0,1,44.55,16.55Z"/></g></g></svg>