<svg xmlns="http://www.w3.org/2000/svg" viewBox="0 0 50 40"><defs><style>.cls-1{fill:#fff;}</style></defs><title>Recompensas</title><g id="Capa_2" data-name="Capa 2"><g id="Capa_1-2" data-name="Capa 1"><path class="cls-1" d="M47.5,16A2.5,2.5,0,0,0,50,13.5V8.19A8.19,8.19,0,0,0,41.81,0H22.09V4.68a1.75,1.75,0,0,1-1.74,1.74h0A1.75,1.75,0,0,1,18.6,4.68V0H8.19A8.19,8.19,0,0,0,0,8.19v5.28A2.49,2.49,0,0,0,2.5,16a4,4,0,0,1,0,8A2.49,2.49,0,0,0,0,26.47v5.34A8.19,8.19,0,0,0,8.19,40H18.6V35.32a1.75,1.75,0,0,1,1.74-1.74h0a1.75,1.75,0,0,1,1.74,1.74V40H41.81A8.19,8.19,0,0,0,50,31.81V26.5A2.5,2.5,0,0,0,47.5,24a4,4,0,0,1,0-8ZM22.09,25a1.75,1.75,0,0,1-1.74,1.74h0A1.75,1.75,0,0,1,18.6,25V15a1.75,1.75,0,0,1,1.74-1.75h0A1.75,1.75,0,0,1,22.09,15Z"/></g></g></svg>