<svg xmlns="http://www.w3.org/2000/svg" viewBox="0 0 50 50"><defs><style>.cls-1{fill:#fff;}</style></defs><title>Scaner </title><g id="Capa_2" data-name="Capa 2"><g id="Capa_1-2" data-name="Capa 1"><g id="vuesax_bold_radar-2" data-name="vuesax bold radar-2"><g id="radar-2"><path id="Vector-2" class="cls-1" d="M50,25A25,25,0,1,0,25,50,25,25,0,0,0,50,25ZM36.62,9.5a19.38,19.38,0,1,1-23.25,31h0a1.88,1.88,0,0,1,2.25-3,15.49,15.49,0,1,0-5-6.4l2.88-1.63A12.2,12.2,0,0,1,12.63,25a12.37,12.37,0,1,1,7.09,11.2l-.12-.06a1.88,1.88,0,0,1,1.72-3.34,8.38,8.38,0,0,0,3.68.82h0A8.62,8.62,0,1,0,16.38,25a8.46,8.46,0,0,0,.42,2.55l7.28-4.18,0,0a1.87,1.87,0,1,1,1.81,3.27L10.75,35.35a1.87,1.87,0,0,1-2.55-.7A19.37,19.37,0,0,1,36.62,9.5Z"/></g></g></g></g></svg>