<svg xmlns="http://www.w3.org/2000/svg" viewBox="0 0 50 40"><defs><style>.cls-1{fill:#fff;}</style></defs><title>Staking</title><g id="Capa_2" data-name="Capa 2"><g id="Capa_1-2" data-name="Capa 1"><path class="cls-1" d="M41.81,0H8.19A8.19,8.19,0,0,0,0,8.19V31.81A8.19,8.19,0,0,0,8.19,40H41.81A8.19,8.19,0,0,0,50,31.81V8.19A8.19,8.19,0,0,0,41.81,0ZM21,35.63A15.63,15.63,0,1,1,36.64,20,15.63,15.63,0,0,1,21,35.63ZM42.67,32.8a1.53,1.53,0,0,1-1.52,1.52h-.46a1.52,1.52,0,0,1-1.51-1.52V25.57a1.52,1.52,0,0,1,1.51-1.51h.46a1.52,1.52,0,0,1,1.52,1.51Zm0-18.37a1.52,1.52,0,0,1-1.52,1.51h-.46a1.52,1.52,0,0,1-1.51-1.51V7.2a1.52,1.52,0,0,1,1.51-1.52h.46A1.53,1.53,0,0,1,42.67,7.2Z"/><path class="cls-1" d="M21,7.68A12.32,12.32,0,1,0,33.32,20,12.32,12.32,0,0,0,21,7.68Zm0,21A8.65,8.65,0,1,1,29.66,20,8.65,8.65,0,0,1,21,28.65Z"/></g></g></svg>