<svg xmlns="http://www.w3.org/2000/svg" viewBox="0 0 49.98 50"><defs><style>.cls-1{fill:#fff;}</style></defs><title>Swap</title><g id="Capa_2" data-name="Capa 2"><g id="Capa_1-2" data-name="Capa 1"><path id="Vector-4" class="cls-1" d="M45.93,17.73A13.57,13.57,0,0,1,34.54,31.15v0A17.06,17.06,0,0,0,18.92,15.53a13.59,13.59,0,0,1,27,2.2Z"/><path id="Vector-5" class="cls-1" d="M48.35,31.27a1.67,1.67,0,0,0-1.65,1.66A13.79,13.79,0,0,1,36.06,46.34l.59-1a1.65,1.65,0,1,0-2.84-1.69L31.5,47.51A1.64,1.64,0,0,0,32.91,50,17.09,17.09,0,0,0,50,32.92a1.63,1.63,0,0,0-1.61-1.65Z"/><path id="Vector-6" class="cls-1" d="M17.08,0A17.1,17.1,0,0,0,0,17.08a1.66,1.66,0,0,0,1.65,1.65A1.66,1.66,0,0,0,3.3,17.08,13.8,13.8,0,0,1,13.94,3.66l-.59,1a1.65,1.65,0,1,0,2.84,1.69L18.5,2.49A1.66,1.66,0,0,0,17.08,0Z"/><path id="Vector-9" class="cls-1" d="M31.24,31.34A13.61,13.61,0,0,0,18.72,18.83c-.35,0-.68,0-1.06,0A13.6,13.6,0,1,0,31.28,32.4C31.28,32,31.26,31.7,31.24,31.34Z"/></g></g></svg>