<svg xmlns="http://www.w3.org/2000/svg" viewBox="0 0 49.43 50"><defs><style>.cls-1{fill:#fff;}</style></defs><title>Voting Zone</title><g id="Capa_2" data-name="Capa 2"><g id="Capa_1-2" data-name="Capa 1"><path class="cls-1" d="M49.43,25.19V42.7a7.3,7.3,0,0,1-7.3,7.3H7.3A7.3,7.3,0,0,1,0,42.7V25.19a7.29,7.29,0,0,1,5.22-7v9.86a1.73,1.73,0,0,0,.48,1.2l0,0a1.65,1.65,0,0,0,1.4.75H42.48a1.68,1.68,0,0,0,1.68-1.68v-.07a0,0,0,0,0,0,0,1.27,1.27,0,0,0,.06-.39V18.2A7.3,7.3,0,0,1,49.43,25.19Z"/><path class="cls-1" d="M33.47,0H16A7.29,7.29,0,0,0,8.66,7.3V26.58H22.92a.47.47,0,0,1,0-.17V8a1.73,1.73,0,1,1,3.45,0V26.41a.47.47,0,0,1,0,.17h5.49a.47.47,0,0,1,0-.17V8a1.73,1.73,0,1,1,3.45,0V26.41a.47.47,0,0,1,0,.17h5.54V7.3A7.3,7.3,0,0,0,33.47,0Zm-16,20.58A1.47,1.47,0,0,1,16,22.05h-.52A1.47,1.47,0,0,1,14,20.58V7.68a1.47,1.47,0,0,1,1.46-1.46H16a1.47,1.47,0,0,1,1.47,1.46Z"/></g></g></svg>