<svg xmlns="http://www.w3.org/2000/svg" width="140" height="140" viewBox="0 0 140 140">
  <g id="dolphin" transform="translate(-19638 -8531)">
    <g id="dolphin-2" data-name="dolphin" transform="translate(19648.014 8562.141)">
      <g id="Capa_1" data-name="Capa 1" transform="translate(-0.013 -0.141)">
        <path id="Trazado_880" data-name="Trazado 880" d="M0,64.914c-.1.8.68,2.99,4.947-.225a53.2,53.2,0,0,0,6.025-4.838c2.618-2.342,2.323-3.131,8.983-4.6a51.787,51.787,0,0,0,15.014-4.96c3.5-1.726,4.831-3.041,6-4.562a1.758,1.758,0,0,1,2.618,0c4.273,4.665,11.71,8.457,21.218,9.336a.815.815,0,0,0,.475-1.5h0c-4.876-4.132-7.911-7.507-8.527-12.7-.154-1.283.09-2.226,2.079-2.618a47.262,47.262,0,0,1,10.7-.225,36.488,36.488,0,0,1,16.56,6.641,31.5,31.5,0,0,1,3.362,2.669,28.366,28.366,0,0,1,4.042,4.549,23.2,23.2,0,0,1,4.177,10.484,21.108,21.108,0,0,1,.173,2.393c-7.16,1.687-9.624,5.242-12.191,9.624-.353.6.1,1.386.738,1.091a8.251,8.251,0,0,1,2.5-.693,15.442,15.442,0,0,1,2.239.045h.045a11.549,11.549,0,0,0,4.389-.526c.115-.038,1.341-.5,1.8-.731a10.773,10.773,0,0,0,2.515-1.732,14.148,14.148,0,0,0,7.674,3.824c2.258.423,3.163-.141,5.839.109,1.283.122,4.3,2.066,4.7,2.335a.937.937,0,0,0,1.36-1.206,17.965,17.965,0,0,0-2.932-4.677,21.738,21.738,0,0,0-5.775-4.491,17.407,17.407,0,0,1-2.348-1.72,37.575,37.575,0,0,1-3.7-3.85,26.46,26.46,0,0,1-4.036-8.983c-.828-3.208-.956-5.839-1.88-8.655-2.053-6.294-3.85-9.964-8.617-15.4-3.67-4.19-7.058-7.7-16.15-12.524-8.534-4.491-12.909-4.19-20.955-4.363a2.566,2.566,0,0,1-2.656-2.278V9.446c0-3.279,1.335-3.85,5.627-8,.687-.642.385-1.771-.545-1.559-11.446,2.643-14.911,6.9-23.1,16.682a65.522,65.522,0,0,0-16.6,11.812C11.224,32.871,6.431,39.05,4.243,44.157c-1.1,2.9-1.405,6.872,0,9.624.237.468.468.95.751,1.392A1.707,1.707,0,0,1,4.859,57.1,40.5,40.5,0,0,0,1.42,61.481C-.133,63.746.034,64.683,0,64.914Z" transform="translate(0.013 0.141)" fill="#c5cee0"/>
      </g>
    </g>
    <rect id="Rectángulo_2528" data-name="Rectángulo 2528" width="140" height="140" transform="translate(19638 8531)" fill="none"/>
  </g>
</svg>
