<svg xmlns="http://www.w3.org/2000/svg" width="140" height="140" viewBox="0 0 140 140">
  <g id="fish" transform="translate(-19861 -8579)">
    <g id="Capa_2" data-name="Capa 2" transform="translate(19878 8618.025)">
      <g id="Capa_1" data-name="Capa 1" transform="translate(0 -0.025)">
        <path id="fish-2" data-name="fish" d="M103.7,47.851a27.711,27.711,0,0,1-15.481-8.608,1.838,1.838,0,0,0-2.776,0c-.421.485-.868.976-1.238,1.327-4.875,4.607-13.056,8.257-23.024,10.21a30.8,30.8,0,0,0-7.536,2.553A18.257,18.257,0,0,0,51.319,54.7c-2.642,1.825-4.186,4.052-4.186,6.458h0a.983.983,0,0,1-1.053,1.008,16.2,16.2,0,0,1-9.125-4.422,19.986,19.986,0,0,1-3.018-3.605C15.43,51.68,0,40.551,0,32.28,0,19.352,17.345,7.508,39.75,6.213A58.007,58.007,0,0,1,51.689,1.65,62.4,62.4,0,0,1,60.068-.009a1.276,1.276,0,0,1,1.474,1.372c-.121,2.048-.051,5.654,1.723,8.053,1.1,1.5,1.417,1.57,3.191,2.387.415.191,2.718.887,3.146,1.027a40.426,40.426,0,0,1,5.4,2.1A55.231,55.231,0,0,1,86.014,22.1a2.048,2.048,0,0,0,2.744,0c2.993-2.642,9.866-8.206,15.379-9.572l.236-.057a.639.639,0,0,1,.574,1.142c-4.365,3.733-7.224,9.98-7.224,17.057a22.755,22.755,0,0,0,6.381,16.279.494.494,0,1,1-.408.9Z" transform="translate(0 0.025)" fill="#c5cee0"/>
      </g>
    </g>
    <rect id="Rectángulo_2529" data-name="Rectángulo 2529" width="140" height="140" transform="translate(19861 8579)" fill="none"/>
  </g>
</svg>
