<svg xmlns="http://www.w3.org/2000/svg" width="140" height="140" viewBox="0 0 140 140">
  <g id="octopus" transform="translate(-19645 -8353)">
    <g id="Octopus-2" data-name="Octopus" transform="translate(19655.063 8382)">
      <g id="Capa_1" data-name="Capa 1" transform="translate(-0.062)">
        <path id="Trazado_873" data-name="Trazado 873" d="M118.256,79.745a36.49,36.49,0,0,0-16.048-3.417A40.013,40.013,0,0,0,89.16,79.019,30.474,30.474,0,0,1,77.825,81.1c-9.256,0-12.819-2.12-15.29-7.127a15.257,15.257,0,0,0-2.789-4.346,15.437,15.437,0,0,0-2.8,4.346c-2.446,5.007-6.026,7.16-15.29,7.127a30.474,30.474,0,0,1-11.335-2.079,40,40,0,0,0-13.048-2.691,36.4,36.4,0,0,0-16.04,3.417.815.815,0,0,1-.979-1.256c4.077-4.526,11.71-6.923,19.172-6.9,4.346,0,14.222,1.24,16.66,1.329,9.035.351,13.578-2.846,13.912-8.546a15.493,15.493,0,0,0,0-2.137.815.815,0,0,0-1.37-.506,14.679,14.679,0,0,1-1.1,1.06,16.693,16.693,0,0,1-17.842,2.642,17.125,17.125,0,0,1-5.211-3.7A19.229,19.229,0,0,1,19.046,50.42c-.449-5.031-.318-14.727-.391-19.221-.114-7.078-.946-8.562-3.686-10.935a7.649,7.649,0,0,0-5.292-2.12A.53.53,0,0,1,9.6,17.125a9.321,9.321,0,0,1,2.088-.318c5.268-.09,10.707,4.746,11.612,14.034.424,4.355.815,13.048,1.46,17.443A10.935,10.935,0,0,0,29.59,55.77a12.1,12.1,0,0,0,6.662,1.973,11.2,11.2,0,0,0,6.98-2.047.815.815,0,0,0-.277-1.427A17.5,17.5,0,0,1,30.585,39.779a18.643,18.643,0,0,1-.188-2.218,19.971,19.971,0,0,1,.489-4.656,16.309,16.309,0,0,1,1.2-3.686.815.815,0,0,1,1.517.506c-.065.359-.122.709-.163,1.044a17.818,17.818,0,0,0,.351,6.344c1.712,7.339,5.178,11.033,12.1,11.107h2.3a.815.815,0,0,0,.742-.75c.114-1.443.073-2.691.147-5.643a17.7,17.7,0,0,0-1.631-7.258C44.7,27.946,40.787,24.4,40.86,15.722,40.909,5.1,50.132,0,59.542,0h.432c9.411,0,18.633,5.1,18.691,15.722a22.2,22.2,0,0,1-1.908,9.427c-1.117,2.577-2.536,4.836-3.882,7.576-.285.579-.555,1.182-.815,1.818A17.59,17.59,0,0,0,70.429,41.8c.082,2.952,0,4.2.147,5.643a.815.815,0,0,0,.742.75h2.308c6.923-.073,10.381-3.751,12.093-11.107a17.622,17.622,0,0,0,.351-6.344c-.041-.334-.1-.685-.163-1.044a.815.815,0,0,1,1.517-.506,16.309,16.309,0,0,1,1.2,3.686,19.971,19.971,0,0,1,.489,4.656,18.64,18.64,0,0,1-.188,2.218,17.5,17.5,0,0,1-12.33,14.515.815.815,0,0,0-.277,1.427,11.18,11.18,0,0,0,6.948,2.031,12.1,12.1,0,0,0,6.662-1.973,10.9,10.9,0,0,0,4.828-7.486c.669-4.363,1.036-13.048,1.46-17.443.905-9.288,6.344-14.124,11.612-14.034a9.321,9.321,0,0,1,2.088.318.53.53,0,0,1-.073,1.036,7.649,7.649,0,0,0-5.292,2.12c-2.74,2.373-3.572,3.857-3.686,10.935-.073,4.493.057,14.189-.391,19.221A19.229,19.229,0,0,1,95.04,61.731a17.125,17.125,0,0,1-5.211,3.678,16.693,16.693,0,0,1-17.842-2.618c-.375-.326-.742-.669-1.1-1.036a.815.815,0,0,0-1.37.506,16.921,16.921,0,0,0,0,2.137c.334,5.708,4.893,8.9,13.92,8.546,2.446-.09,12.305-1.321,16.652-1.329,7.462,0,15.078,2.373,19.18,6.9a.815.815,0,0,1-1.011,1.231Z" transform="translate(0.037 0)" fill="#c5cee0"/>
        <path id="Trazado_874" data-name="Trazado 874" d="M140.936,57.369a20.819,20.819,0,0,1-1.688,9.859,13.048,13.048,0,0,1-6.3,6.956c-3.14,1.7-6.353,2.756-13.048,2.52a18.151,18.151,0,0,1-3.547-.506A20.223,20.223,0,0,0,120.2,72.57a11.964,11.964,0,0,0,2.071-3.14c7.812.285,10.1-.742,12.77-4.314,2.071-2.773,2.748-6.8,2.862-10.21a31.959,31.959,0,0,0-.334-5.92.6.6,0,0,1,1.133-.351,24.742,24.742,0,0,1,2.234,8.734Z" transform="translate(-21.42 -8.906)" fill="#c5cee0"/>
        <path id="Trazado_875" data-name="Trazado 875" d="M-.011,57.369a21.015,21.015,0,0,0,1.7,9.859A13.113,13.113,0,0,0,8,74.184c3.14,1.7,6.353,2.756,13.048,2.52A18.152,18.152,0,0,0,24.6,76.2a20.517,20.517,0,0,1-3.857-3.629,11.693,11.693,0,0,1-2.063-3.14c-7.812.285-10.1-.742-12.77-4.314-2.071-2.773-2.748-6.8-2.862-10.21a31.265,31.265,0,0,1,.334-5.92.6.6,0,0,0-1.134-.351A24.782,24.782,0,0,0-.011,57.369Z" transform="translate(0.062 -8.906)" fill="#c5cee0"/>
      </g>
    </g>
    <rect id="Rectángulo_2527" data-name="Rectángulo 2527" width="140" height="140" transform="translate(19645 8353)" fill="none"/>
  </g>
</svg>
