<svg xmlns="http://www.w3.org/2000/svg" width="140" height="140" viewBox="0 0 140 140">
  <g id="sharck" transform="translate(-19842 -8739)">
    <g id="Capa_2" data-name="Capa 2" transform="translate(19852 8762)">
      <g id="Capa_1" data-name="Capa 1" transform="translate(0 0)">
        <g id="sharck-2" data-name="sharck">
          <path id="Trazado_884" data-name="Trazado 884" d="M.808,44.8a14.172,14.172,0,0,1,2.575-2.958A17.524,17.524,0,0,1,7.82,38.83c2.432-3.883,6.555-8.045,11.614-11.905a55.009,55.009,0,0,1,13.35-7.509,52.53,52.53,0,0,1,5.27-1.622,55.693,55.693,0,0,1,6.281-1.2,16.25,16.25,0,0,0-6.035-.537,20.555,20.555,0,0,0-5.019.817,15.519,15.519,0,0,1,2.175-4.6C38.116,7.877,41.4,5.53,46.1,2.847S55.937-.2,61.453.089c-2.438,1.656-7.9,5.219-8.6,9.707a28.618,28.618,0,0,0-.223,6.281c10.992,0,13.989,1.525,20.8,4.4C80,23.242,86.1,27.468,89.209,31.938a17.769,17.769,0,0,0-7.177-.64c-3.934.36-5.613,1.673-5.613,1.673-1.016.143,12.973-.851,26.351,3.717a47.066,47.066,0,0,1,16.456,9.867c.994.948-.325,1.462-1.65,1.142-5.2-1.388-10.061-2.587-11.271-2.821C100.96,43.735,86.89,41.7,85.212,41.594a65.663,65.663,0,0,0-12.727.388A72,72,0,0,1,91.435,44.54c2.147,7.309,2.632,13.8-.948,19.642A36.132,36.132,0,0,1,78.337,76.424a10.894,10.894,0,0,1,1.142,4.168c.268,3.089-.662,9.992-2.284,12.824a.571.571,0,0,1-1.033-.268c-.285-7.8-2.33-10.9-5.556-14.229A16.68,16.68,0,0,0,57.73,74.112c-1.336.046-.691-1.142.571-1.582,2.381-.828,4.517-1.011,8.211-.936,3.323.069,5.2.217,7.994,1.639,1.473-1.427,2.986-3.055,4.083-7.531a20.555,20.555,0,0,0-.194-10.495c3.78,1.21,5.207,1.9,7.754,3.906-1.056-3.026-4.7-5.87-10.352-7.109-5.9-1.3-12.579-.611-18.369.7-3.494.8-6.6,1.673-9.547,2.427-2.158.571-4.117,1.028-6.178,1.376a49.8,49.8,0,0,1-9.49.9,38.187,38.187,0,0,1-10.586-.891,3.9,3.9,0,0,1-.5-.16c-1.1-.434-1.593-1.2-.851-1.713,4.083-2.895,8.451-4,12.95-4.928a34.988,34.988,0,0,1,8.656-.885,14.475,14.475,0,0,0-5.6-2.027,21.412,21.412,0,0,0-12.362,2.347c-.3.154-.611.32-.914.485-1.353.748-3.466,2.158-5.059,3.255a6.281,6.281,0,0,1-4.922.959c-3.357-.748-8.9-2.153-11.374-3.723C-.186,48.96-.522,47.047.808,44.8Zm25.478-3.683a4,4,0,0,0,3.848-.765,6.641,6.641,0,0,0,2.358-3.078c.263-.748-.291-.9-.777-.765-2.8.782-4.517,1.473-5.482,3.095C25.932,40.1,25.972,40.954,26.286,41.114Z" transform="translate(-0.001 -0.007)" fill="#c5cee0"/>
          <path id="Trazado_885" data-name="Trazado 885" d="M137.54,117.519c0,.7.851.468,1.37-.542a59.638,59.638,0,0,1,4.8-7.423c2.4-3.426,7.526-7.063,9.433-8.354l-.485.057h-.046a47.621,47.621,0,0,1-8.279.7h-1.964c-1.77,2.284-2.5,4.659-3.569,8.074A22.269,22.269,0,0,0,137.54,117.519Z" transform="translate(-112.106 -43.42)" fill="#c5cee0"/>
        </g>
      </g>
    </g>
    <rect id="Rectángulo_2530" data-name="Rectángulo 2530" width="140" height="140" transform="translate(19842 8739)" fill="none"/>
  </g>
</svg>
