<svg xmlns="http://www.w3.org/2000/svg" width="140" height="140" viewBox="0 0 140 140">
  <g id="whale" transform="translate(-19645 -8850)">
    <g id="Capa_2" data-name="Capa 2" transform="translate(20185.992 9031)">
      <g id="Capa_1" data-name="Capa 1" transform="translate(-530.993 -157)">
        <path id="Trazado_886" data-name="Trazado 886" d="M23.9,69.923c-2.506-1.347-5.181-2.633-7.7-4.18-6.11-3.756-11.085-8.6-13.954-15.325A26.525,26.525,0,0,1,.531,34.5,3.038,3.038,0,0,1,3.74,31.688c1.6-.061,3.2,0,4.811,0,3.737-.091,7.481-.073,11.206-.352,7.681-.564,14.361,1.875,20.349,6.492,9.471,7.28,19.912,8.033,30.942,4.508A34.879,34.879,0,0,0,88.891,29.929a16.124,16.124,0,0,0,3.325-13.038,12.2,12.2,0,0,0-6.759-8.852A23.231,23.231,0,0,1,80.6,4.708,8.021,8.021,0,0,1,78.729,1.28c-.358-1.1.406-1.626,1.438-1.031A12.777,12.777,0,0,0,89.456,1.7a8.712,8.712,0,0,1,6.674,1.286,4.953,4.953,0,0,0,6.176-.036,9.189,9.189,0,0,1,7.159-1.171A12.055,12.055,0,0,0,117.88.437a.461.461,0,0,1,.109-.055,1.213,1.213,0,0,1,1.59,1.213,1.123,1.123,0,0,1-.042.249,7.2,7.2,0,0,1-3.094,4.126,23.054,23.054,0,0,1-3.549,2.075,19.687,19.687,0,0,0-11.649,14.6A93.937,93.937,0,0,1,90.4,51.34c-4.247,7.28-9.556,13.621-16.721,18.2-1.917,1.213-3.962,2.251-6.067,3.416L69.55,74.5a24.8,24.8,0,0,1,6.437,7.808c.764,1.4,1.772,2.682,2.494,4.1a12.862,12.862,0,0,1,1.213,3.525c.206,1.183-.546,1.82-1.571,1.292C74.7,89.471,70.963,89.568,67.3,89.095c-6.959-.9-11.376-4.926-13.7-11.424-.607-1.693-.607-1.7-2.427-1.693a59.19,59.19,0,0,1-13.257-1.7,1.517,1.517,0,0,0-1.147.109c-2.912,2.487-6.407,3.185-10.077,3.561-2.53.255-5.03.777-7.547,1.141-.455.067-1.128.1-1.359-.158a1.717,1.717,0,0,1-.067-1.377,4.5,4.5,0,0,1,.862-1.468C20.388,74.018,22.178,71.937,23.9,69.923Z" transform="translate(-0.007 0)" fill="#c5cee0"/>
      </g>
    </g>
    <rect id="Rectángulo_2531" data-name="Rectángulo 2531" width="140" height="140" transform="translate(19645 8850)" fill="none"/>
  </g>
</svg>
