<svg xmlns="http://www.w3.org/2000/svg" xmlns:xlink="http://www.w3.org/1999/xlink" viewBox="0 0 144 144"><defs><style>.cls-1{fill:url(#Degradado_sin_nombre_38);}.cls-2{fill:url(#Degradado_sin_nombre_38-2);}.cls-3{fill:url(#Degradado_sin_nombre_38-3);}.cls-4{fill:#fff;}</style><linearGradient id="Degradado_sin_nombre_38" y1="72" x2="144" y2="72" gradientUnits="userSpaceOnUse"><stop offset="0" stop-color="#226fcd"/><stop offset="0.78" stop-color="#17378c"/><stop offset="1" stop-color="#153383"/></linearGradient><linearGradient id="Degradado_sin_nombre_38-2" x1="40.32" x2="103.74" xlink:href="#Degradado_sin_nombre_38"/><linearGradient id="Degradado_sin_nombre_38-3" x1="20.57" x2="123.48" xlink:href="#Degradado_sin_nombre_38"/></defs><title>Logo1 144x144</title><g id="Capa_2" data-name="Capa 2"><g id="Capa"><path class="cls-1" d="M72,0a72,72,0,1,0,72,72A72,72,0,0,0,72,0Zm50.66,112.8c-.46.59-1,1.18-1.45,1.75a66.83,66.83,0,0,1-8.09,7.87q-1.77,1.44-3.62,2.74a63.41,63.41,0,0,1-5.76,3.63c-1.33.75-2.68,1.44-4.06,2.09h0q-2.5,1.17-5.11,2.14t-5.33,1.71c-.91.25-1.82.48-2.74.69q-.69.17-1.38.3a65.56,65.56,0,0,1-26.18,0q-.69-.14-1.38-.3c-.92-.21-1.83-.44-2.74-.69-1.8-.5-3.59-1.07-5.33-1.71s-3.44-1.35-5.11-2.14h0c-1.38-.65-2.74-1.35-4.06-2.09a67,67,0,0,1-5.75-3.63c-1.24-.88-2.45-1.8-3.63-2.74a65.3,65.3,0,0,1-5.22-4.76c-.82-.85-1.62-1.7-2.41-2.58,0,0,0,0,0,0-.63-.72-1.25-1.45-1.85-2.19s-1.19-1.5-1.76-2.27-1.12-1.56-1.66-2.36c-.43-.64-.85-1.3-1.27-2h0c-.39-.62-.76-1.25-1.13-1.89s-.68-1.2-1-1.81a64.95,64.95,0,0,1,0-61.16c.32-.61.66-1.21,1-1.81s.74-1.27,1.13-1.89h0c.42-.66.84-1.32,1.27-2,.54-.8,1.1-1.59,1.66-2.36s1.15-1.53,1.76-2.27,1.22-1.47,1.85-2.19h0c.79-.88,1.59-1.73,2.41-2.58a65.3,65.3,0,0,1,5.22-4.76c1.18-.94,2.39-1.86,3.63-2.74a67,67,0,0,1,5.75-3.63c1.32-.74,2.68-1.44,4.06-2.09,0,0,0,0,0,0q2.51-1.18,5.11-2.14c1.74-.64,3.53-1.21,5.33-1.71.91-.25,1.82-.48,2.74-.69l1.38-.3a65.56,65.56,0,0,1,26.18,0q.69.13,1.38.3c.92.21,1.83.44,2.74.69Q91.94,10,94.55,11t5.11,2.14h0c1.38.65,2.73,1.34,4.06,2.09a63.41,63.41,0,0,1,5.76,3.63q1.85,1.31,3.62,2.74a66.83,66.83,0,0,1,8.09,7.87c.5.57,1,1.16,1.45,1.75l.83,1.05a65.08,65.08,0,0,1,0,79.5Z"/><path class="cls-2" d="M72,40.29A31.71,31.71,0,1,0,103.74,72,31.7,31.7,0,0,0,72,40.29ZM91.3,87.52c-.18.23-.36.45-.55.67a26.36,26.36,0,0,1-3.08,3q-.67.55-1.38,1a22.43,22.43,0,0,1-2.19,1.38c-.51.28-1,.55-1.55.79h0c-.64.3-1.28.57-1.94.82s-1.34.46-2,.65l-1,.26-.53.11a24.57,24.57,0,0,1-10,0l-.53-.11-1-.26c-.68-.19-1.36-.41-2-.65s-1.31-.52-2-.82h0c-.53-.24-1-.51-1.55-.79-.75-.42-1.48-.89-2.19-1.38q-.71-.51-1.38-1a24.12,24.12,0,0,1-2-1.81c-.31-.32-.62-.64-.92-1h0c-.24-.28-.48-.55-.7-.83s-.46-.58-.67-.87-.43-.59-.64-.9L51,85.05h0c-.15-.23-.29-.47-.43-.72s-.26-.45-.38-.69a24.7,24.7,0,0,1,0-23.26c.12-.24.25-.46.38-.69s.28-.49.43-.72h0l.48-.74c.21-.31.42-.61.64-.9s.43-.58.67-.87.46-.55.7-.83h0c.3-.34.61-.66.92-1a24.12,24.12,0,0,1,2-1.81q.68-.54,1.38-1c.71-.49,1.44-1,2.19-1.38.5-.28,1-.55,1.55-.79h0c.64-.3,1.28-.57,2-.82s1.34-.46,2-.65l1-.26.53-.11a24.57,24.57,0,0,1,10,0l.53.11,1,.26c.69.19,1.36.4,2,.65s1.3.52,1.94.82h0c.53.24,1,.51,1.55.79a22.43,22.43,0,0,1,2.19,1.38q.7.49,1.38,1a26.36,26.36,0,0,1,3.08,3c.19.22.37.44.55.67s.21.26.31.4a24.75,24.75,0,0,1,0,30.25Z"/><path class="cls-3" d="M72,20.55A51.45,51.45,0,1,0,123.48,72,51.45,51.45,0,0,0,72,20.55Zm35,79.61c-.32.41-.66.82-1,1.21a47,47,0,0,1-5.59,5.43q-1.22,1-2.49,1.89a44.38,44.38,0,0,1-4,2.51c-.92.52-1.85,1-2.8,1.44h0c-1.16.54-2.33,1-3.53,1.48s-2.42.84-3.67,1.18c-.63.17-1.26.33-1.9.47-.31.08-.63.15-1,.21A45.31,45.31,0,0,1,63,116q-.48-.09-1-.21c-.63-.14-1.26-.3-1.89-.47-1.24-.34-2.47-.74-3.67-1.18s-2.38-.93-3.53-1.48h0c-.95-.45-1.89-.93-2.8-1.44a46.58,46.58,0,0,1-4-2.51c-.86-.6-1.69-1.24-2.5-1.89a45,45,0,0,1-3.61-3.29c-.56-.58-1.11-1.16-1.66-1.77,0,0,0,0,0,0-.44-.5-.86-1-1.28-1.51s-.82-1-1.21-1.57-.78-1.08-1.15-1.63-.59-.9-.88-1.35h0c-.27-.43-.52-.86-.78-1.3s-.47-.83-.69-1.25a44.92,44.92,0,0,1,0-42.22c.22-.42.46-.83.69-1.25s.51-.87.78-1.3h0c.29-.45.58-.91.88-1.35s.76-1.1,1.15-1.63.79-1.06,1.21-1.57.84-1,1.28-1.51h0c.55-.61,1.1-1.19,1.66-1.77a45,45,0,0,1,3.61-3.29c.81-.65,1.64-1.29,2.5-1.89a46.58,46.58,0,0,1,4-2.51c.91-.51,1.85-1,2.8-1.44h0c1.15-.55,2.33-1,3.53-1.48s2.43-.84,3.67-1.18c.63-.17,1.26-.33,1.89-.47q.48-.12,1-.21a45.31,45.31,0,0,1,18.07,0c.32.06.64.13,1,.21.64.14,1.27.3,1.9.47,1.25.34,2.47.73,3.67,1.18s2.37.94,3.53,1.48h0c1,.45,1.88.92,2.8,1.44a44.38,44.38,0,0,1,4,2.51q1.28.9,2.49,1.89A47,47,0,0,1,106,42.63c.34.39.68.8,1,1.21l.57.72a44.94,44.94,0,0,1,0,54.88Z"/><path class="cls-4" d="M144,77.7a3.47,3.47,0,0,1-1,2.48,3.6,3.6,0,0,1-1.41.87,3.43,3.43,0,0,1-1.07.17h-.07c-19.52.55-20.79-.25-21.73-.85-3.93-2.47-8.46-12.51-10.33-17a1.84,1.84,0,0,0-1.67-1c-.64.07-1.46.67-1.87,2.08l-.1.27L96.24,86.83a6.47,6.47,0,0,1-6.48,4.8,6.65,6.65,0,0,1-6.08-5.75L74,38.46,64.62,113.3a7.77,7.77,0,0,1-7.11,7.11h-.43a6.92,6.92,0,0,1-6.78-5.35l0-.16-9.83-50L39.58,62a11.57,11.57,0,0,0-.68,1.17C36.5,67.66,34.53,71.29,33,74c-3.1,5.48-3.93,7-6.32,7-1.82,0-18,.21-22.78.27h-.2A3.4,3.4,0,0,1,2.58,81,3.53,3.53,0,0,1,.26,77.66a3.46,3.46,0,0,1,1-2.47,3.41,3.41,0,0,1,1.2-.78,3.27,3.27,0,0,1,1.08-.24.11.11,0,0,1,.08,0c.1,0,.2,0,.3,0,4.22-.06,16.26-.21,21-.25.95-1.56,3.08-5.26,7.77-14.06,2.43-4.54,5.26-6.41,8.44-5.55,4.2,1.14,5.77,7,6.14,9.21l9.82,49.89a.29.29,0,0,0,.15-.06,1.33,1.33,0,0,0,.41-.93L68,30.28a5.9,5.9,0,0,1,5.61-5.44,5.82,5.82,0,0,1,5.83,5.07L90.22,83l7.92-20.63a9.37,9.37,0,0,1,7.7-6.91A8.85,8.85,0,0,1,114.53,60l.21.41c2.51,6.07,5.8,12.16,7.38,13.74,2.35.26,10.5.23,17.82,0l.83,0a2.9,2.9,0,0,1,.59.09A3.52,3.52,0,0,1,144,77.7Z"/></g></g></svg>