<svg xmlns="http://www.w3.org/2000/svg" width="44" height="44" viewBox="0 0 44 44">
  <g id="first_place_01" transform="translate(-1868 2815)">
    <g id="Grupo_1020" data-name="Grupo 1020" transform="translate(1880 -2807)">
      <path id="Trazado_748" data-name="Trazado 748" d="M98.375,355.114l-1.115.054L95.1,361.381a.286.286,0,0,0,.3.378l3.031-.317a.286.286,0,0,1,.23.08l2.179,2.131a.286.286,0,0,0,.47-.11l2.177-6.253-.642-.623Z" transform="translate(-93.711 -335.735)" fill="#0083fd"/>
      <path id="Trazado_749" data-name="Trazado 749" d="M140.954,336.559l.44-1.264-6.225-2.117-.438,1.26A11.426,11.426,0,0,0,140.954,336.559Z" transform="translate(-131.291 -314.969)" fill="#0072fc"/>
      <path id="Trazado_750" data-name="Trazado 750" d="M269.113,355.114l1.115.054,2.162,6.213a.286.286,0,0,1-.3.378l-3.031-.317a.286.286,0,0,0-.23.08l-2.179,2.131a.286.286,0,0,1-.47-.11l-2.177-6.253.642-.623Z" transform="translate(-253.778 -335.735)" fill="#0083fd"/>
      <path id="Trazado_751" data-name="Trazado 751" d="M256.44,336.559l-.44-1.264,6.225-2.117.439,1.26A11.426,11.426,0,0,1,256.44,336.559Z" transform="translate(-246.103 -314.969)" fill="#0072fc"/>
      <path id="Trazado_752" data-name="Trazado 752" d="M80.359,19.654c-10,0-10-9.853-9.987-10.022a9.994,9.994,0,0,1,19.975,0C90.355,9.8,90.359,19.654,80.359,19.654Z" transform="translate(-70.359 0)" fill="#ffe27a"/>
      <path id="Trazado_753" data-name="Trazado 753" d="M80.148,186.182a10.1,10.1,0,0,1-9.987-9.7q-.012.256-.013.515a10,10,0,1,0,20,0q0-.259-.013-.515A10.1,10.1,0,0,1,80.148,186.182Z" transform="translate(-70.148 -166.861)" fill="#f9cf58"/>
      <path id="Trazado_754" data-name="Trazado 754" d="M117.687,51.9c-7.817,0-7.827-7.9-7.817-8.065a7.822,7.822,0,0,1,15.633,0C125.514,44,125.5,51.9,117.687,51.9Z" transform="translate(-107.687 -34.307)" fill="#ffba57"/>
      <path id="Trazado_755" data-name="Trazado 755" d="M117.421,184.014a7.925,7.925,0,0,1-7.816-7.531c-.01.17-.016.342-.016.515a7.836,7.836,0,1,0,15.666,0c0-.173-.006-.344-.016-.515a7.925,7.925,0,0,1-7.816,7.531Z" transform="translate(-107.421 -166.853)" fill="#ffac3e"/>
      <g id="Grupo_1017" data-name="Grupo 1017" transform="translate(7.187 4.927)">
        <path id="Trazado_759" data-name="Trazado 759" d="M26.516-171.785a1.578,1.578,0,0,1-.678,1.24,2.644,2.644,0,0,1-1.6.459v1.654h2.044v6.936h2.389v-10.289Z" transform="translate(-24.242 172.609)" fill="#f9cf58"/>
        <path id="Trazado_760" data-name="Trazado 760" d="M26.516-171.785a1.578,1.578,0,0,1-.678,1.24,2.644,2.644,0,0,1-1.6.459v1.654h2.044v6.936h2.389v-10.289Z" transform="translate(-24.242 171.785)" fill="#ffe27a"/>
      </g>
    </g>
    <g id="Rectángulo_2209" data-name="Rectángulo 2209" transform="translate(1868 -2815)" fill="none" stroke="#707070" stroke-width="1" opacity="0">
      <rect width="44" height="44" stroke="none"/>
      <rect x="0.5" y="0.5" width="43" height="43" fill="none"/>
    </g>
  </g>
</svg>
