<svg xmlns="http://www.w3.org/2000/svg" width="44" height="44" viewBox="0 0 44 44">
  <g id="second_place_02" transform="translate(-1868 2751)">
    <g id="Grupo_1021" data-name="Grupo 1021" transform="translate(1880 -2743)">
      <path id="Trazado_738" data-name="Trazado 738" d="M102.8,355.817l-4.535-1.568-1,.1L95.1,360.564a.286.286,0,0,0,.3.378l3.031-.317a.286.286,0,0,1,.23.08l2.179,2.131a.286.286,0,0,0,.47-.11l2.177-6.254Z" transform="translate(-93.711 -335.368)" fill="#98db7c"/>
      <path id="Trazado_739" data-name="Trazado 739" d="M140.954,336.559l.44-1.264-6.225-2.117-.438,1.26A11.426,11.426,0,0,0,140.954,336.559Z" transform="translate(-131.291 -315.303)" fill="#82d361"/>
      <path id="Trazado_740" data-name="Trazado 740" d="M264.694,355.817l4.535-1.568,1,.1,2.162,6.213a.286.286,0,0,1-.3.378l-3.031-.317a.286.286,0,0,0-.23.08l-2.179,2.131a.286.286,0,0,1-.47-.11l-2.177-6.254Z" transform="translate(-253.778 -335.368)" fill="#98db7c"/>
      <path id="Trazado_741" data-name="Trazado 741" d="M256.44,336.559l-.44-1.264,6.225-2.117.439,1.26A11.426,11.426,0,0,1,256.44,336.559Z" transform="translate(-246.103 -315.303)" fill="#82d361"/>
      <path id="Trazado_742" data-name="Trazado 742" d="M80.36,19.166c-9.987,0-10-9.59-9.987-9.755A10,10,0,0,1,90.346,9.4C90.355,9.569,90.346,19.166,80.36,19.166Z" transform="translate(-70.36 0)" fill="#e0e0e0"/>
      <path id="Trazado_743" data-name="Trazado 743" d="M80.148,186.182a10.1,10.1,0,0,1-9.987-9.7q-.012.256-.013.515a10,10,0,1,0,20,0q0-.259-.013-.515A10.1,10.1,0,0,1,80.148,186.182Z" transform="translate(-70.148 -167.112)" fill="#cecece"/>
      <path id="Trazado_744" data-name="Trazado 744" d="M117.686,54.891c-7.832,0-7.827-7.75-7.817-7.921a7.822,7.822,0,0,1,15.633,0C125.514,47.141,125.5,54.891,117.686,54.891Z" transform="translate(-107.686 -37.273)" fill="#9e9e9e"/>
      <path id="Trazado_745" data-name="Trazado 745" d="M117.421,184.015a7.925,7.925,0,0,1-7.816-7.53c-.01.17-.016.342-.016.515a7.836,7.836,0,1,0,15.666,0c0-.173-.006-.344-.016-.515a7.925,7.925,0,0,1-7.816,7.53Z" transform="translate(-107.421 -167.077)" fill="#898989"/>
      <g id="Grupo_1018" data-name="Grupo 1018" transform="translate(6.539 4.795)">
        <path id="Trazado_761" data-name="Trazado 761" d="M16.876-174.687a3.6,3.6,0,0,0-2.354.754,3.156,3.156,0,0,0-1.084,2.2H15.93a1.539,1.539,0,0,1,.266-.923.894.894,0,0,1,.774-.369.915.915,0,0,1,.725.3,1.386,1.386,0,0,1,.266.933,2.339,2.339,0,0,1-.45,1.247,3.8,3.8,0,0,1-1.279,1.178,5.445,5.445,0,0,0-2.073,2.017,4.248,4.248,0,0,0-.628,1.9,1.086,1.086,0,0,0,.4.886,1.463,1.463,0,0,0,.959.326H20.36V-165.9H15.883a2.655,2.655,0,0,1,.588-1.177,5.007,5.007,0,0,1,1.258-1.061,7.662,7.662,0,0,0,2-1.673,2.889,2.889,0,0,0,.635-1.811,2.89,2.89,0,0,0-.9-2.25A3.709,3.709,0,0,0,16.876-174.687Z" transform="translate(-13.438 175.348)" fill="#cecece"/>
        <path id="Trazado_763" data-name="Trazado 763" d="M16.876-174.687a3.6,3.6,0,0,0-2.354.754,3.156,3.156,0,0,0-1.084,2.2H15.93a1.539,1.539,0,0,1,.266-.923.894.894,0,0,1,.774-.369.915.915,0,0,1,.725.3,1.386,1.386,0,0,1,.266.933,2.339,2.339,0,0,1-.45,1.247,3.8,3.8,0,0,1-1.279,1.178,5.445,5.445,0,0,0-2.073,2.017,4.248,4.248,0,0,0-.628,1.9,1.086,1.086,0,0,0,.4.886,1.463,1.463,0,0,0,.959.326H20.36V-165.9H15.883a2.655,2.655,0,0,1,.588-1.177,5.007,5.007,0,0,1,1.258-1.061,7.662,7.662,0,0,0,2-1.673,2.889,2.889,0,0,0,.635-1.811,2.89,2.89,0,0,0-.9-2.25A3.709,3.709,0,0,0,16.876-174.687Z" transform="translate(-13.438 174.688)" fill="#e0e0e0"/>
      </g>
    </g>
    <g id="Rectángulo_2212" data-name="Rectángulo 2212" transform="translate(1868 -2751)" fill="none" stroke="#707070" stroke-width="1" opacity="0">
      <rect width="44" height="44" stroke="none"/>
      <rect x="0.5" y="0.5" width="43" height="43" fill="none"/>
    </g>
  </g>
</svg>
