<svg xmlns="http://www.w3.org/2000/svg" width="44" height="44" viewBox="0 0 44 44">
  <g id="third_place_03" transform="translate(-1868 2687)">
    <g id="Grupo_1022" data-name="Grupo 1022" transform="translate(1880 -2678)">
      <path id="Trazado_727" data-name="Trazado 727" d="M102.713,357.518,98.5,356.112,97.26,356.1,95.1,362.318a.286.286,0,0,0,.3.378l3.031-.317a.286.286,0,0,1,.23.08l2.179,2.131a.286.286,0,0,0,.47-.11l2.177-6.254Z" transform="translate(-93.711 -337.122)" fill="#ff4755"/>
      <path id="Trazado_728" data-name="Trazado 728" d="M140.954,336.559l.44-1.264-6.225-2.117-.438,1.26A11.426,11.426,0,0,0,140.954,336.559Z" transform="translate(-131.291 -315.303)" fill="#fc2b3a"/>
      <path id="Trazado_729" data-name="Trazado 729" d="M264.776,357.518l4.217-1.406,1.236-.007,2.162,6.213a.286.286,0,0,1-.3.378l-3.031-.317a.286.286,0,0,0-.23.08l-2.179,2.131a.286.286,0,0,1-.47-.11l-2.177-6.253Z" transform="translate(-253.778 -337.122)" fill="#ff4755"/>
      <path id="Trazado_730" data-name="Trazado 730" d="M256.44,336.559l-.44-1.264,6.225-2.117.439,1.26A11.426,11.426,0,0,1,256.44,336.559Z" transform="translate(-246.103 -315.303)" fill="#fc2b3a"/>
      <path id="Trazado_731" data-name="Trazado 731" d="M80.36,18.983c-9.987,0-10-9.409-9.987-9.575a10.005,10.005,0,0,1,19.975,0C90.355,9.573,90.347,18.983,80.36,18.983Z" transform="translate(-70.36 0)" fill="#ff9838"/>
      <path id="Trazado_732" data-name="Trazado 732" d="M80.148,186.183a10.1,10.1,0,0,1-9.987-9.7q-.012.256-.013.515a10,10,0,1,0,20,0q0-.259-.013-.515A10.1,10.1,0,0,1,80.148,186.183Z" transform="translate(-70.148 -167.113)" fill="#ff8709"/>
      <path id="Trazado_733" data-name="Trazado 733" d="M125.254,47.485a8.211,8.211,0,0,1-7.833,7.551c-4.326,0-7.833-4.332-7.833-7.551q0-.259.016-.515a7.822,7.822,0,0,1,15.634,0Q125.254,47.226,125.254,47.485Z" transform="translate(-107.421 -37.273)" fill="#ce7430"/>
      <path id="Trazado_734" data-name="Trazado 734" d="M117.421,184.015a7.925,7.925,0,0,1-7.816-7.53c-.01.17-.016.342-.016.515a7.836,7.836,0,1,0,15.666,0c0-.173-.006-.344-.016-.515a7.925,7.925,0,0,1-7.816,7.53Z" transform="translate(-107.421 -167.077)" fill="#bc672e"/>
      <g id="Grupo_1019" data-name="Grupo 1019" transform="translate(6.406 4.795)">
        <path id="Trazado_762" data-name="Trazado 762" d="M15.332-173.457a3.832,3.832,0,0,0-2.48.743,2.868,2.868,0,0,0-1.034,2.089h2.389a.955.955,0,0,1,.264-.662.9.9,0,0,1,.7-.29.818.818,0,0,1,.678.3,1.188,1.188,0,0,1,.241.766,1.236,1.236,0,0,1-.459.975,1.755,1.755,0,0,1-1.24.371v1.671a2.192,2.192,0,0,1,1.585.371,1.463,1.463,0,0,1,.528,1.184,1.415,1.415,0,0,1-.333.963,1.018,1.018,0,0,1-.792.383,1.271,1.271,0,0,1-.919-.31,1.326,1.326,0,0,1-.367-.884H11.7a2.786,2.786,0,0,0,1.263,2.184,4.639,4.639,0,0,0,2.48.664,3.547,3.547,0,0,0,2.527-.861,2.85,2.85,0,0,0,.918-2.17,2.5,2.5,0,0,0-.632-1.677,2.259,2.259,0,0,0-1.619-.8,2.051,2.051,0,0,0,1.344-.861,2.666,2.666,0,0,0,.494-1.573,2.226,2.226,0,0,0-.9-1.918A3.714,3.714,0,0,0,15.332-173.457Z" transform="translate(-11.703 174.052)" fill="#ea9957"/>
        <path id="Trazado_764" data-name="Trazado 764" d="M15.332-173.457a3.832,3.832,0,0,0-2.48.743,2.868,2.868,0,0,0-1.034,2.089h2.389a.955.955,0,0,1,.264-.662.9.9,0,0,1,.7-.29.818.818,0,0,1,.678.3,1.188,1.188,0,0,1,.241.766,1.236,1.236,0,0,1-.459.975,1.755,1.755,0,0,1-1.24.371v1.671a2.192,2.192,0,0,1,1.585.371,1.463,1.463,0,0,1,.528,1.184,1.415,1.415,0,0,1-.333.963,1.018,1.018,0,0,1-.792.383,1.271,1.271,0,0,1-.919-.31,1.326,1.326,0,0,1-.367-.884H11.7a2.786,2.786,0,0,0,1.263,2.184,4.639,4.639,0,0,0,2.48.664,3.547,3.547,0,0,0,2.527-.861,2.85,2.85,0,0,0,.918-2.17,2.5,2.5,0,0,0-.632-1.677,2.259,2.259,0,0,0-1.619-.8,2.051,2.051,0,0,0,1.344-.861,2.666,2.666,0,0,0,.494-1.573,2.226,2.226,0,0,0-.9-1.918A3.714,3.714,0,0,0,15.332-173.457Z" transform="translate(-11.703 173.457)" fill="#ffaa5c"/>
      </g>
    </g>
    <g id="Rectángulo_2210" data-name="Rectángulo 2210" transform="translate(1868 -2687)" fill="none" stroke="#707070" stroke-width="1" opacity="0">
      <rect width="44" height="44" stroke="none"/>
      <rect x="0.5" y="0.5" width="43" height="43" fill="none"/>
    </g>
  </g>
</svg>
