<svg width="24" height="24" viewBox="0 0 24 24" fill="none" xmlns="http://www.w3.org/2000/svg">
<mask id="mask0_12581_74526" style="mask-type:alpha" maskUnits="userSpaceOnUse" x="0" y="0" width="24" height="24">
<path d="M12 24C18.6274 24 24 18.6274 24 12C24 5.37258 18.6274 0 12 0C5.37258 0 0 5.37258 0 12C0 18.6274 5.37258 24 12 24Z" fill="#C4C4C4"/>
</mask>
<g mask="url(#mask0_12581_74526)">
<path d="M12 24C18.6274 24 24 18.6274 24 12C24 5.37258 18.6274 0 12 0C5.37258 0 0 5.37258 0 12C0 18.6274 5.37258 24 12 24Z" fill="white"/>
<g style="mix-blend-mode:multiply" opacity="0.2">
<g style="mix-blend-mode:multiply" opacity="0.2">
<path fill-rule="evenodd" clip-rule="evenodd" d="M12 23.2174C18.1952 23.2174 23.2174 18.1952 23.2174 12C23.2174 5.80483 18.1952 0.782621 12 0.782621C5.80483 0.782621 0.782622 5.80483 0.782622 12C0.782622 18.1952 5.80483 23.2174 12 23.2174ZM12 24C18.6274 24 24 18.6274 24 12C24 5.3726 18.6274 0 12 0C5.3726 0 0 5.3726 0 12C0 18.6274 5.3726 24 12 24Z" fill="#191326"/>
</g>
</g>
</g>
<path d="M17.6959 15.4239C17.7279 15.6799 17.8239 16.8319 17.6959 17.4079C17.5679 17.9839 15.8399 18.5599 15.7439 18.6239C15.6159 18.7199 14.5919 19.0399 14.4319 19.1039C14.2399 19.1679 13.1199 19.2319 12.8319 19.3919C12.5439 19.5519 11.5839 19.4239 11.1999 19.3919C10.8479 19.3599 10.3999 19.2959 10.0159 19.1999C9.85594 19.1679 9.05594 18.9759 8.73594 18.8159C8.95994 18.5919 9.11994 18.2719 9.15194 17.9199C9.15194 17.8879 9.15194 17.8559 9.15194 17.8239C9.15194 17.6639 9.11994 17.5359 9.08794 17.3759C9.56794 17.1519 9.91994 16.6719 9.91994 16.0639C9.91994 15.2639 9.27994 14.6559 8.51194 14.6559C8.44794 14.6559 8.38394 14.6559 8.31994 14.6879C8.19194 14.2079 7.83994 13.7919 7.35994 13.6639C7.32794 13.6639 7.26394 13.6319 7.23194 13.6319C7.07194 13.5999 6.97594 13.5999 6.87994 13.5999H6.84794C6.62394 13.5999 6.39994 13.6639 6.23994 13.7599C6.23994 13.5359 6.23994 13.3119 6.20794 13.1519C6.14394 12.7679 6.14394 12.3199 6.11194 12.0319C6.04794 11.7439 6.23994 10.9759 6.23994 10.6879C6.23994 10.4319 6.78394 9.37593 6.94394 9.05593C7.10394 8.73593 7.29594 8.73593 7.35994 8.57593C7.42394 8.41593 7.80794 8.09593 8.06394 7.90393C8.28794 7.71193 9.31194 6.97593 9.53594 6.87993C9.75994 6.78393 10.5599 6.68793 10.8799 6.62393C11.1999 6.52793 11.8399 6.36793 12.0959 6.43193C12.2239 6.46393 12.5119 6.52793 12.8639 6.59193C12.9279 6.59193 12.9919 6.62393 13.0239 6.62393C13.0559 6.62393 13.0559 6.62393 13.0879 6.62393C13.3439 6.68793 13.5679 6.71993 13.7279 6.71993C14.1439 6.75193 14.6239 7.07193 14.9439 7.23193C15.2959 7.39193 15.7759 7.99993 16.1279 8.25593C16.4799 8.47993 16.8639 9.18393 16.8639 9.37593C16.8959 9.59993 17.3119 9.88793 17.3759 10.0159C17.4399 10.1439 17.6639 10.7199 17.6319 10.9759C17.6319 11.1999 17.7279 12.0959 17.7599 12.2559C17.7919 12.4159 17.7599 13.5359 17.6639 13.7599C17.5999 13.9519 17.5679 14.6559 17.6959 15.4239Z" fill="#EA9640" stroke="#673506" stroke-width="0.5" stroke-miterlimit="10"/>
<path d="M17.216 15.0721C17.248 15.2961 17.344 16.3201 17.216 16.8001C17.088 17.2801 15.872 18.0161 15.584 18.2401C15.488 18.3041 14.464 18.5921 14.304 18.6241C14.144 18.6881 13.152 18.7521 12.832 18.7201C12.544 18.7201 11.84 18.5921 11.52 18.5281C11.2 18.4961 10.816 18.4641 10.464 18.3681C10.304 18.3361 9.53596 18.1441 9.27996 17.9841C9.21596 17.9521 9.18396 17.9201 9.11996 17.8881C9.11996 17.8561 9.11996 17.8241 9.11996 17.7921C9.11996 17.6321 9.08796 17.5041 9.05596 17.3441C9.53596 17.1201 9.88796 16.6401 9.88796 16.0321C9.88796 15.2321 9.24796 14.6241 8.47996 14.6241C8.41596 14.6241 8.35196 14.6241 8.28796 14.6561C8.15996 14.1761 7.80796 13.7601 7.32796 13.6321C7.29596 13.6321 7.23196 13.6001 7.19996 13.6001C7.19996 13.3761 7.19996 13.2161 7.16796 13.0561C7.10396 12.7361 7.10396 12.3201 7.07196 12.0641C7.03996 11.8081 7.23196 11.1361 7.23196 10.8801C7.23196 10.6561 7.71196 9.72809 7.83996 9.44009C7.96796 9.15209 8.12796 9.15209 8.19196 8.99209C8.25596 8.83209 8.57596 8.57609 8.79996 8.41609C9.02396 8.25609 9.91996 7.58409 10.112 7.52009C10.304 7.42409 11.2 7.16809 11.488 7.07209C11.744 7.00809 12.48 6.72009 12.736 6.59209C12.736 6.59209 12.768 6.59209 12.768 6.56009C12.8 6.56009 12.832 6.52809 12.864 6.52809C12.928 6.49609 12.96 6.49609 12.992 6.49609H13.024C13.056 6.49609 13.088 6.52809 13.088 6.56009C13.088 6.59209 13.088 6.65609 13.056 6.72009C13.024 6.88009 12.8 7.16809 12.896 7.26409C13.088 7.39209 13.6 7.36009 13.728 7.36009C14.08 7.39209 14.496 7.68009 14.816 7.80809C15.104 7.93609 15.552 8.48009 15.84 8.70409C16.128 8.92809 16.48 9.50409 16.512 9.69609C16.544 9.88809 16.896 10.1441 16.96 10.2721C17.024 10.4001 17.216 10.8801 17.184 11.1041C17.184 11.3281 17.248 12.0961 17.312 12.2241C17.344 12.3521 17.312 13.3441 17.216 13.5361C17.152 13.7921 17.12 14.4001 17.216 15.0721Z" fill="#F6B55A"/>
<path d="M10.656 6.62417C11.008 6.62417 11.616 6.43217 11.712 6.36817C11.936 6.27217 12.416 6.20817 12.704 6.01617C12.928 5.88817 13.344 5.44017 13.504 5.56817C13.6 5.63217 13.824 6.11217 13.76 6.40017C13.696 6.68817 13.536 7.04017 13.44 7.16817C13.44 7.16817 13.088 6.84817 13.024 6.68817C12.992 6.62417 12.928 6.62417 12.864 6.62417C12.704 6.62417 12.32 6.88017 12.32 6.88017L10.656 6.62417Z" fill="#EA9640"/>
<path d="M13.472 7.26404C13.44 7.26404 13.44 7.26404 13.408 7.23204C13.376 7.20004 13.376 7.16804 13.408 7.10404C13.504 7.00804 13.632 6.68804 13.696 6.36804C13.76 6.11204 13.536 5.66404 13.472 5.60004C13.408 5.60004 13.12 5.82404 12.992 5.92004C12.896 5.98404 12.832 6.04804 12.768 6.08004C12.576 6.20804 12.32 6.27204 12.096 6.33604C11.968 6.36804 11.84 6.40004 11.776 6.43204C11.68 6.46404 11.072 6.68804 10.688 6.68804C10.656 6.68804 10.592 6.65604 10.592 6.59204C10.592 6.52804 10.624 6.56004 10.656 6.56004C11.008 6.56004 11.584 6.36804 11.68 6.30404C11.776 6.27204 11.904 6.24004 12.032 6.17604C12.256 6.11204 12.512 6.04804 12.672 5.95204C12.736 5.92004 12.8 5.85604 12.864 5.79204C13.152 5.60004 13.408 5.37604 13.6 5.53604C13.696 5.63204 13.952 6.11204 13.888 6.46404C13.824 6.78404 13.664 7.13604 13.568 7.26404C13.536 7.26404 13.504 7.26404 13.472 7.26404Z" fill="#673506"/>
<path d="M11.4879 17.152C11.4239 16.992 11.4879 16.896 11.6479 16.96C11.8079 17.024 12.4159 16.8 12.3199 16.96C12.1599 17.184 11.9679 17.248 11.8719 17.28C11.6159 17.312 11.5199 17.312 11.4879 17.152Z" fill="#EA963E"/>
<path d="M15.392 16.032C15.328 15.872 15.392 15.776 15.552 15.84C15.712 15.904 15.84 15.584 15.968 15.776C16.128 16 15.872 16.128 15.744 16.16C15.52 16.192 15.424 16.192 15.392 16.032Z" fill="#EA963E"/>
<path d="M8.22404 10.688C8.16004 10.528 8.38404 10.496 8.57604 10.56C8.73604 10.624 8.86404 10.304 8.99204 10.496C9.15204 10.72 8.89604 10.848 8.76804 10.88C8.54404 10.912 8.25604 10.848 8.22404 10.688Z" fill="#FED781"/>
<path d="M14.08 8.57594C14.048 8.38394 14.496 8.41594 14.592 8.54394C14.688 8.67194 14.464 8.70394 14.464 8.70394C14.464 8.70394 14.08 8.67194 14.08 8.57594Z" fill="#FED781"/>
<path d="M12.8319 6.62402C12.7999 6.62402 12.7359 6.62402 12.6719 6.65602C12.6079 6.65602 12.5439 6.68802 12.5119 6.72002C12.2879 6.81602 12.2239 6.84802 12.0959 6.88002C11.7759 6.97602 10.8479 7.20002 10.3359 7.39202C9.82387 7.58402 8.92787 8.00002 8.51187 8.35202C8.09587 8.73602 7.61587 9.31202 7.19987 9.92002C6.78387 10.528 6.78387 11.008 6.71987 11.552C6.65587 12.128 6.71987 12.416 6.78387 12.928C6.81587 13.152 6.81587 13.376 6.81587 13.6H6.87987C6.97587 13.6 7.07187 13.6 7.13587 13.632C7.16787 13.632 7.23187 13.664 7.26387 13.664C7.23187 13.056 7.19987 12.384 7.16787 11.84C7.16787 10.624 7.48787 10.144 7.99987 9.50402C8.41587 8.99202 9.27987 8.41602 9.79187 7.93602C10.3359 7.45602 11.4559 7.48802 11.7759 7.45602C12.0959 7.39202 12.6719 7.00802 12.7359 6.94402C12.7999 6.88002 13.0239 6.72002 12.9599 6.68802C12.9279 6.62402 12.8959 6.62402 12.8319 6.62402Z" fill="#FED781"/>
<path d="M11.2639 8.76798C11.2639 8.63998 11.1039 8.47998 10.9439 8.47998C10.7839 8.47998 10.5599 8.51198 10.5279 8.63998C10.4959 8.76798 10.4959 8.89598 10.5279 8.95998C10.5599 9.02398 10.8799 9.15198 11.0079 9.05598C11.1359 8.99198 11.2639 8.86398 11.2639 8.76798Z" fill="#FED781"/>
<path d="M12.384 8.288C12.448 8.192 12.224 7.936 12.064 7.904C11.904 7.872 11.68 7.936 11.648 8.096C11.616 8.256 11.616 8.416 11.648 8.512C11.68 8.608 12 8.736 12.128 8.64C12.256 8.544 12.32 8.416 12.384 8.288Z" fill="#EA963E"/>
<path d="M12.2878 8.15986C12.3518 8.06386 12.1598 7.80786 11.9998 7.80786C11.8398 7.80786 11.6158 7.83986 11.6158 7.99986C11.5838 8.12786 11.5838 8.28786 11.6158 8.38386C11.6478 8.47986 11.9678 8.60786 12.0958 8.51186C12.1918 8.41586 12.2238 8.25586 12.2878 8.15986Z" fill="#663506"/>
<path d="M11.9359 7.93599C11.9359 7.80799 11.7119 8.06399 11.7119 8.15999C11.7119 8.25599 11.7439 8.38399 11.8399 8.25599C11.9359 8.12799 11.9359 7.99999 11.9359 7.93599Z" fill="#AE6118"/>
<path d="M10.0477 8.416C10.0797 8.224 10.2717 7.84 10.4957 7.872C10.7197 7.904 11.0717 7.872 11.1357 8C11.1997 8.16 11.1997 8.416 11.1997 8.544C11.1997 8.672 10.9117 8.832 10.7837 8.832C10.6557 8.832 9.98374 8.736 10.0477 8.416Z" fill="#EA9640"/>
<path d="M9.9519 8.28797C9.9839 8.09597 10.1439 7.74397 10.3679 7.77597C10.5919 7.80797 10.9119 7.77597 10.9759 7.90397C11.0399 8.03197 11.0399 8.28797 11.0719 8.38397C11.1039 8.47997 10.7839 8.67197 10.6559 8.67197C10.5279 8.67197 9.9199 8.57597 9.9519 8.28797Z" fill="#673506"/>
<path d="M10.72 8.03188C10.816 7.96788 10.528 7.93588 10.432 7.96788C10.336 7.99988 10.208 8.06388 10.208 8.15988C10.208 8.25588 10.208 8.35188 10.24 8.38388C10.304 8.41588 10.304 8.28788 10.368 8.22388C10.432 8.15988 10.656 8.09588 10.72 8.03188Z" fill="#AF6119"/>
<path d="M14.304 17.3121C14.176 17.2801 13.856 17.3441 13.792 17.1841C13.76 17.0561 13.76 16.8001 13.952 16.7041C14.144 16.6081 14.368 16.5121 14.528 16.6081C14.688 16.7361 14.848 16.8321 14.848 16.9921C14.848 17.1521 14.88 17.2481 14.752 17.2481C14.624 17.2801 14.464 17.3441 14.304 17.3121Z" fill="#E08B3A"/>
<path d="M14.272 17.1842C14.144 17.2162 13.76 17.2482 13.696 17.1202C13.664 16.9922 13.664 16.7362 13.856 16.6402C14.048 16.5442 14.272 16.4482 14.432 16.5442C14.592 16.6722 14.752 16.7682 14.752 16.9282C14.752 17.0882 14.72 17.1842 14.592 17.2162C14.464 17.2162 14.4 17.1522 14.272 17.1842Z" fill="#663506"/>
<path d="M14.3679 16.6723C14.3039 16.6083 13.9519 16.6723 13.8879 16.7363C13.8239 16.8003 13.6639 16.9283 13.7599 17.0563C13.8879 17.1523 13.8879 17.0243 14.0159 16.9283C14.1119 16.8323 14.3039 16.7683 14.3679 16.6723Z" fill="#AE6118"/>
<path d="M13.728 18.72C13.504 18.784 13.056 18.848 12.96 18.88C12.672 18.912 12.128 18.784 11.936 18.624C12.416 18.528 12.32 18.176 12.448 17.984C12.576 17.792 12.64 17.6 12.832 17.568C13.024 17.536 13.344 17.472 13.504 17.6C13.664 17.728 13.792 17.952 13.824 18.176C13.856 18.368 13.92 18.688 13.728 18.72Z" fill="#EA963E"/>
<path d="M13.472 18.4641C13.248 18.5281 13.056 18.4961 12.96 18.5281C12.672 18.5601 12.448 18.4961 12.384 18.3361C12.32 18.1441 12.16 18.0161 12.288 17.8241C12.416 17.6321 12.48 17.4401 12.672 17.4081C12.864 17.3761 13.184 17.3121 13.344 17.4401C13.504 17.5681 13.632 17.7921 13.664 18.0161C13.696 18.1761 13.664 18.4321 13.472 18.4641Z" fill="#673506"/>
<path d="M12.4481 18.0802C12.3841 17.9202 12.4801 17.6962 12.6081 17.6322C12.7361 17.5682 12.8641 17.4722 12.9601 17.4722C13.0561 17.4722 13.3121 17.5362 13.3761 17.6322C13.3121 17.6322 13.1841 17.5682 13.0881 17.6642C12.9921 17.7602 12.9281 17.8562 12.8001 17.8562C12.6721 17.8562 12.4481 17.9842 12.4481 18.0802Z" fill="#AF6119"/>
<path d="M15.2961 18.2082C15.3601 18.1122 15.1361 17.8562 14.9761 17.8242C14.8161 17.7922 14.5601 17.8562 14.5601 18.0162C14.5281 18.1762 14.5281 18.3362 14.5601 18.4322C14.5921 18.5282 14.9121 18.6562 15.0721 18.5602C15.1681 18.4642 15.2321 18.3362 15.2961 18.2082Z" fill="#EA963E"/>
<path d="M15.1999 18.0802C15.2639 17.9842 15.0399 17.7282 14.8799 17.6962C14.7199 17.6642 14.4959 17.7282 14.4639 17.8882C14.4319 18.0482 14.4319 18.1762 14.4639 18.2722C14.4959 18.3682 14.8159 18.4962 14.9439 18.4002C15.1039 18.3362 15.1359 18.1762 15.1999 18.0802Z" fill="#663506"/>
<path d="M14.8481 17.8562C14.8481 17.7282 14.5921 17.9842 14.6241 18.0802C14.6241 18.1762 14.6561 18.3042 14.7521 18.1762C14.8481 18.0482 14.8481 17.8882 14.8481 17.8562Z" fill="#AE6118"/>
<path d="M15.52 8.28789C15.648 8.06389 15.008 8.15989 14.976 8.38389C14.944 8.60789 14.784 9.27989 15.072 9.53589C15.36 9.82389 15.616 10.0159 15.808 10.2399C16 10.4639 16.512 10.6239 16.768 10.4959C17.024 10.3679 17.152 10.3039 16.832 10.0159C16.512 9.72789 16.288 9.72789 15.936 9.40789C15.584 9.08789 15.456 8.44789 15.52 8.28789Z" fill="#FED781"/>
<path d="M15.712 11.36C15.648 11.2 15.712 11.04 15.872 11.072C16.032 11.104 16.16 11.072 16.224 11.2C16.288 11.36 16.224 11.456 16.128 11.488C15.84 11.52 15.744 11.52 15.712 11.36Z" fill="#EA963E"/>
<path d="M11.9679 13.1841C13.0636 13.1841 13.9519 12.2958 13.9519 11.2001C13.9519 10.1043 13.0636 9.21606 11.9679 9.21606C10.8722 9.21606 9.98389 10.1043 9.98389 11.2001C9.98389 12.2958 10.8722 13.1841 11.9679 13.1841Z" fill="white" stroke="#673506" stroke-width="0.5" stroke-miterlimit="10"/>
<path d="M11.9678 12.16C12.498 12.16 12.9278 11.7302 12.9278 11.2C12.9278 10.6698 12.498 10.24 11.9678 10.24C11.4376 10.24 11.0078 10.6698 11.0078 11.2C11.0078 11.7302 11.4376 12.16 11.9678 12.16Z" fill="#673506"/>
<path d="M12.3199 11.2641C12.638 11.2641 12.8959 11.0062 12.8959 10.6881C12.8959 10.3699 12.638 10.1121 12.3199 10.1121C12.0018 10.1121 11.7439 10.3699 11.7439 10.6881C11.7439 11.0062 12.0018 11.2641 12.3199 11.2641Z" fill="white"/>
<path d="M10.3679 14.4C10.3999 14.528 10.7839 14.848 11.3599 14.912C11.9999 14.976 12.7359 14.944 13.1519 14.816C13.5039 14.688 13.6959 14.336 13.5999 14.4C13.5039 14.432 12.8959 14.72 11.9999 14.688C11.0399 14.624 10.3679 14.4 10.3679 14.4Z" fill="#EA963E"/>
<path d="M11.2958 14.5921C11.2958 14.9121 11.1678 15.1361 11.0078 15.1681C10.8478 15.1681 10.6558 14.9121 10.6558 14.5601C10.6558 14.4961 10.6558 14.4961 10.6558 14.4321C10.7838 14.4961 10.9118 14.5281 11.1038 14.5601C11.1678 14.5601 11.2318 14.5921 11.2958 14.5921Z" fill="white"/>
<path d="M13.3119 14.5601C13.2799 14.9121 13.1199 15.1681 12.9599 15.1681C12.7999 15.1681 12.6719 14.9121 12.6719 14.5921C12.7679 14.5921 12.8319 14.5601 12.8959 14.5601C13.0559 14.5281 13.1839 14.4961 13.3119 14.4321C13.3119 14.4641 13.3119 14.5281 13.3119 14.5601Z" fill="white"/>
<path d="M11.968 14.752C11.872 14.752 11.776 14.752 11.712 14.752C11.456 14.752 11.264 14.72 11.104 14.688C10.88 14.656 10.688 14.592 10.496 14.528C10.4 14.464 10.336 14.432 10.336 14.432C10.304 14.4 10.304 14.368 10.304 14.336C10.336 14.304 10.368 14.272 10.4 14.304C10.4 14.304 10.432 14.336 10.528 14.368C10.688 14.432 10.88 14.496 11.104 14.528C11.264 14.56 11.456 14.56 11.68 14.592C11.776 14.592 11.84 14.592 11.936 14.592C12.064 14.592 12.16 14.592 12.256 14.592C12.512 14.592 12.704 14.56 12.832 14.528C13.152 14.464 13.312 14.4 13.408 14.368C13.504 14.336 13.536 14.304 13.536 14.304C13.568 14.272 13.632 14.272 13.664 14.304C13.696 14.336 13.696 14.4 13.664 14.4C13.664 14.4 13.6 14.432 13.504 14.496C13.376 14.56 13.152 14.624 12.896 14.656C12.736 14.688 12.544 14.72 12.288 14.72C12.192 14.752 12.064 14.752 11.968 14.752Z" fill="#673506"/>
<path d="M8.03199 14.0479C7.87199 13.8879 7.64799 13.7599 7.35999 13.6959C7.07199 13.6319 6.68799 13.5679 6.52799 13.6639C6.33599 13.7279 6.23999 13.7599 6.23999 13.7599C6.59199 13.7599 7.07199 13.9839 7.23199 14.1439C7.51999 14.4639 7.61599 14.8799 7.61599 15.2319C7.99999 15.1679 8.51199 15.0399 8.99199 15.7119C9.34399 16.1919 9.11999 16.9279 8.57599 17.2799C8.79999 17.5359 8.95999 17.7919 8.99199 18.1119C8.99199 18.3359 8.83199 18.6559 8.70399 18.8159C8.83199 18.8159 9.24799 18.5599 9.34399 18.4639C9.47199 18.3039 9.53599 18.1439 9.56799 17.8239C9.59999 17.5999 9.37599 17.2799 9.24799 17.2799C9.31199 17.2159 9.69599 16.8639 9.85599 16.4799C9.95199 16.2239 9.85599 15.8399 9.75999 15.6479C9.66399 15.4239 9.47199 15.1039 9.24799 14.9759C9.02399 14.8479 8.63999 14.6879 8.28799 14.7199C8.31999 14.5279 8.22399 14.2719 8.03199 14.0479Z" fill="#EA9640" stroke="#673506" stroke-width="0.5" stroke-miterlimit="10" stroke-linecap="round" stroke-linejoin="round"/>
<path d="M9.216 17.3759H9.184C9.12 17.3439 8.832 17.3119 8.672 17.3759C8.64 17.4079 8.576 17.3759 8.576 17.3439C8.544 17.3119 8.576 17.2479 8.608 17.2479C8.8 17.1519 9.152 17.1839 9.28 17.2799C9.312 17.3119 9.312 17.3439 9.312 17.3759C9.28 17.3439 9.248 17.3759 9.216 17.3759Z" fill="#673506"/>
<path d="M7.61607 15.3278H7.58407C7.55207 15.2958 7.52007 15.2638 7.55207 15.2318C7.68007 15.0078 8.06407 14.6238 8.28807 14.6238C8.32007 14.6238 8.38407 14.6558 8.38407 14.6878C8.38407 14.7198 8.35207 14.7838 8.32007 14.7838C8.19207 14.7838 7.84007 15.0718 7.74407 15.3278C7.64807 15.3278 7.64807 15.3278 7.61607 15.3278Z" fill="#673506"/>
<path d="M5.95219 9.66396C6.01619 9.75996 6.08019 9.82396 6.14419 9.91996C6.20819 9.98396 6.27219 10.08 6.33619 10.112C6.52819 10.304 6.81619 10.368 7.13619 10.304C7.45618 10.24 7.77618 10.112 8.00018 9.88796C8.25618 9.63196 8.44818 9.34396 8.54418 9.02396C8.64018 8.73596 8.60818 8.44796 8.44818 8.28796C8.44818 8.28796 8.44818 8.28796 8.41618 8.25596C8.41618 8.25596 8.41618 8.25596 8.38418 8.22396C8.19218 8.06396 8.00018 7.96796 7.87218 7.83996C7.71218 7.71196 7.58419 7.58396 7.55219 7.39196C7.52019 7.29596 7.48818 7.13596 7.45618 6.97596C7.42419 6.81596 7.36018 6.59196 7.32818 6.39996C7.32818 6.36796 7.29618 6.30396 7.26418 6.27196C7.23218 6.23996 7.20019 6.17596 7.20019 6.14396C7.20019 6.01596 7.20019 5.85596 7.20019 5.72796C7.20019 5.59996 7.20018 5.47196 7.16818 5.37596C7.10418 5.02396 7.04019 4.79996 6.97619 4.67196C6.91219 4.54396 6.81619 4.51196 6.72019 4.51196C6.59219 4.51196 6.49619 4.67196 6.36819 4.86396C6.24019 5.05596 6.20819 5.34396 6.11219 5.53596V5.56796V5.59996C6.01619 5.75996 5.98419 5.88796 5.88819 6.07996C5.79219 6.27196 5.66419 6.52796 5.66419 6.75196C5.66419 6.97596 5.60019 7.23196 5.53619 7.42396C5.47219 7.61596 5.44019 7.83996 5.44019 8.03196C5.44019 8.06396 5.44019 8.06396 5.44019 8.09596C5.44019 8.12796 5.44019 8.12796 5.44019 8.15996C5.44019 8.44796 5.50419 8.73596 5.60019 8.99196C5.69619 9.24796 5.72819 9.40796 5.85619 9.59996L5.95219 9.66396Z" fill="#F6B55A"/>
<path d="M6.40007 10.2082C6.72007 10.3042 6.88007 10.3042 7.20007 10.2402C7.04007 10.1762 7.10407 10.1442 6.49607 9.40819C6.27207 9.12019 6.11207 8.76819 5.98407 8.28819C5.92007 8.00019 5.66407 7.71219 5.85607 7.29619C6.01607 6.91219 5.92007 6.27219 6.20807 5.88819C6.56007 5.40819 6.62407 4.67219 6.72007 4.54419C6.43207 4.60819 6.08007 5.37619 6.01607 5.69619C5.95207 6.01619 5.50407 7.20019 5.44007 7.71219C5.37607 8.28819 5.50407 9.05619 5.82407 9.50419C6.11207 9.92019 6.40007 10.2082 6.40007 10.2082Z" fill="#EA9640"/>
<path d="M8.22396 9.6639C8.06396 9.6319 8.09596 9.4399 7.87196 9.1519C7.67996 8.9279 7.42396 8.6399 7.29596 8.4479C7.16796 8.1919 7.03996 8.0319 7.00796 7.7759C7.00796 7.3599 6.84796 6.9759 6.87996 6.7519C6.94396 6.3359 7.16796 5.6319 7.16796 5.6639C7.19996 5.9839 7.29596 6.2079 7.42396 6.9439C7.48796 7.3279 7.87196 7.9999 8.41596 8.3519C8.95996 8.7039 8.22396 9.6639 8.22396 9.6639Z" fill="#FED781"/>
<path d="M6.27201 10.176C6.20801 10.112 6.14401 10.048 6.08001 9.95202C6.01601 9.85602 5.95201 9.79202 5.88801 9.69602L5.79201 9.63202C5.66401 9.47202 5.63201 9.34402 5.56801 9.18402C5.53601 9.12002 5.53601 9.08802 5.50401 9.02402C5.40801 8.73602 5.34401 8.44802 5.31201 8.16002C5.31201 8.12802 5.31201 8.12802 5.31201 8.09602V8.03202C5.31201 7.84002 5.37601 7.64802 5.40801 7.45602V7.42402C5.47201 7.20002 5.53601 6.97602 5.53601 6.75202C5.53601 6.52802 5.66401 6.27202 5.72801 6.08002L5.76001 6.04802C5.85601 5.92002 5.88801 5.82402 5.92001 5.72802C5.95201 5.66402 5.95201 5.63202 5.98401 5.53602V5.50402V5.47202C6.04801 5.44002 6.08001 5.34402 6.11201 5.28002C6.17601 5.12002 6.24001 4.96002 6.30401 4.83202C6.40001 4.64002 6.52801 4.41602 6.72001 4.41602C6.84801 4.41602 6.97601 4.48002 7.04001 4.64002C7.13601 4.76802 7.20001 5.02402 7.26401 5.37602C7.29601 5.47202 7.29601 5.60002 7.29601 5.76002C7.29601 5.88802 7.29601 6.01602 7.32801 6.14402C7.32801 6.17602 7.36001 6.24002 7.39201 6.27202C7.42401 6.33602 7.45601 6.40002 7.45601 6.43202C7.48801 6.62402 7.55201 6.81602 7.58401 7.00802L7.61601 7.10402C7.64801 7.23202 7.68001 7.36002 7.71201 7.42402C7.74401 7.58402 7.80801 7.71202 8.00001 7.84002C8.06401 7.87202 8.12801 7.93602 8.19201 7.96802C8.28801 8.03202 8.41601 8.12802 8.54401 8.22402L8.57601 8.25602L8.60801 8.28802C8.80001 8.44802 8.86401 8.76802 8.73601 9.12002C8.64001 9.44002 8.41601 9.76002 8.16001 10.016C7.93601 10.24 7.58401 10.4 7.26401 10.464C7.16801 10.464 7.10401 10.496 7.00801 10.496C6.65601 10.432 6.43201 10.336 6.27201 10.176ZM6.46401 4.92802C6.40001 5.05602 6.33601 5.18402 6.27201 5.34402C6.24001 5.44002 6.20801 5.50402 6.17601 5.56802V5.60002V5.63202C6.14401 5.69602 6.11201 5.76002 6.08001 5.82402C6.04801 5.88802 6.01601 5.98402 5.98401 6.11202L5.95201 6.14402C5.85601 6.33602 5.76001 6.56002 5.76001 6.75202C5.76001 7.00802 5.69601 7.23202 5.63201 7.45602V7.48802C5.56801 7.68002 5.53601 7.87202 5.53601 8.03202V8.09602C5.53601 8.12802 5.53601 8.12802 5.53601 8.16002C5.53601 8.41602 5.60001 8.70402 5.69601 8.96002C5.72801 9.02402 5.72801 9.08802 5.76001 9.12002C5.82401 9.28002 5.85601 9.40802 5.95201 9.50402L6.04801 9.56802V9.60002C6.11201 9.69602 6.17601 9.76002 6.24001 9.85602C6.30401 9.92002 6.36801 9.98402 6.40001 10.048C6.56001 10.208 6.81601 10.272 7.13601 10.208C7.42401 10.144 7.74401 10.016 7.93601 9.82402C8.19201 9.60002 8.38401 9.28002 8.44801 9.02402C8.51201 8.86402 8.54401 8.54402 8.38401 8.38402C8.38401 8.38402 8.35201 8.38402 8.35201 8.35202C8.25601 8.25602 8.12801 8.19202 8.03201 8.12802C7.96801 8.06402 7.90401 8.03202 7.84001 7.96802C7.68001 7.84002 7.55201 7.71202 7.48801 7.45602C7.48801 7.39202 7.45601 7.26402 7.42401 7.13602L7.39201 7.04002C7.32801 6.84802 7.29601 6.65602 7.26401 6.43202C7.26401 6.40002 7.23201 6.36802 7.20001 6.33602C7.13601 6.24002 7.13601 6.20802 7.13601 6.14402C7.10401 6.01602 7.10401 5.85602 7.10401 5.72802C7.10401 5.60002 7.10401 5.50402 7.07201 5.40802C7.00801 5.05602 6.94401 4.86402 6.88001 4.73602C6.81601 4.60802 6.78401 4.60802 6.72001 4.60802C6.68801 4.60802 6.59201 4.64002 6.46401 4.92802Z" fill="#673506"/>
<path d="M6.62415 7.29594C6.72015 7.23194 6.78415 7.39194 6.75215 7.55194C6.72015 7.67994 6.97615 7.74394 6.84815 7.87194C6.72015 7.99994 6.59215 7.83994 6.56015 7.74394C6.49615 7.55194 6.52815 7.35994 6.62415 7.29594Z" fill="#FED781"/>
<path d="M6.43197 9.1519C6.52797 9.0879 6.59197 9.2479 6.55997 9.4079C6.52797 9.5359 6.78397 9.5999 6.65597 9.7279C6.52797 9.8559 6.39997 9.6959 6.36797 9.5999C6.30397 9.4079 6.30397 9.2159 6.43197 9.1519Z" fill="#EA9640"/>
<path d="M18.0481 9.72817C17.9841 9.82417 17.9201 9.88817 17.8561 9.98417C17.7921 10.0482 17.7281 10.1442 17.6641 10.1762C17.4721 10.3682 17.1841 10.4322 16.8641 10.3682C16.5441 10.3042 16.2241 10.1762 16.0001 9.95217C15.7441 9.69617 15.5521 9.40817 15.4561 9.08817C15.3601 8.76817 15.3921 8.51217 15.5521 8.35217C15.5521 8.35217 15.5521 8.35217 15.5841 8.32017C15.5841 8.32017 15.5841 8.32017 15.6161 8.28817C15.8081 8.12817 16.0001 8.03217 16.1281 7.90417C16.2881 7.77617 16.4161 7.64817 16.4481 7.45617C16.4801 7.36017 16.5121 7.20017 16.5441 7.04017C16.5761 6.88017 16.6401 6.65617 16.6721 6.46417C16.6721 6.43217 16.7041 6.36817 16.7361 6.33617C16.7681 6.30417 16.8001 6.24017 16.8001 6.20817C16.8001 6.04817 16.8001 5.92017 16.8001 5.79217C16.8001 5.66417 16.8001 5.53617 16.8321 5.44017C16.8961 5.08817 16.9601 4.86417 17.0241 4.73617C17.0881 4.60817 17.1841 4.57617 17.2801 4.57617C17.4081 4.57617 17.5041 4.73617 17.6321 4.92817C17.7281 5.12017 17.8241 5.37617 17.9201 5.60017V5.63217V5.66417C17.9841 5.82417 18.0161 5.95217 18.1121 6.11217C18.2081 6.27217 18.3361 6.56017 18.3361 6.78417C18.3361 7.00817 18.4001 7.26417 18.4641 7.45617C18.5281 7.64817 18.5921 7.87217 18.5921 8.06417C18.5921 8.09617 18.5921 8.09617 18.5921 8.12817C18.5921 8.16017 18.5921 8.16017 18.5921 8.19217C18.5921 8.48017 18.5281 8.76817 18.4321 9.02417C18.3361 9.28017 18.3041 9.44017 18.1761 9.63217L18.0481 9.72817Z" fill="#F6B55A"/>
<path d="M15.9042 9.85609C16.0322 9.82409 16.3202 9.66409 16.4802 9.44009C16.6722 9.18409 16.7362 8.83209 16.8642 8.57609C16.9602 8.38409 16.9282 7.93609 16.9922 7.42409C17.0562 7.00809 17.2802 6.62409 17.2162 6.20809C17.1522 5.56809 17.2482 4.96009 17.2162 4.80009C17.1202 4.35209 16.8642 5.63209 16.8642 5.66409C16.8322 5.98409 16.7362 6.20809 16.6082 6.94409C16.5442 7.32809 16.1602 8.00009 15.6162 8.35209C15.0722 8.70409 15.9042 9.85609 15.9042 9.85609Z" fill="#EA963E"/>
<path d="M17.088 10.496C17.024 10.496 16.928 10.496 16.832 10.464C16.512 10.4 16.16 10.24 15.936 10.016C15.68 9.76 15.4561 9.44 15.3601 9.12C15.2321 8.768 15.2961 8.48 15.4881 8.288L15.52 8.256C15.648 8.16 15.744 8.064 15.872 8C15.936 7.968 16.0001 7.904 16.064 7.872C16.224 7.744 16.32 7.616 16.352 7.456C16.352 7.36 16.3841 7.264 16.4481 7.136L16.48 7.04C16.544 6.848 16.5761 6.656 16.6081 6.464C16.6081 6.432 16.64 6.368 16.672 6.304C16.704 6.272 16.704 6.208 16.736 6.176C16.768 6.048 16.768 5.92 16.768 5.792C16.768 5.664 16.768 5.536 16.8 5.408C16.864 5.056 16.928 4.8 17.024 4.672C17.12 4.544 17.216 4.448 17.344 4.448C17.536 4.448 17.664 4.672 17.76 4.864C17.824 4.992 17.888 5.152 17.952 5.312C17.984 5.408 18.016 5.472 18.048 5.536V5.568V5.6C18.08 5.664 18.112 5.728 18.112 5.792C18.144 5.888 18.176 5.952 18.24 6.08L18.272 6.112C18.368 6.304 18.464 6.56 18.464 6.784C18.464 7.008 18.528 7.232 18.592 7.456V7.488C18.656 7.68 18.688 7.872 18.688 8.064V8.128C18.688 8.16 18.688 8.16 18.688 8.192C18.688 8.48 18.624 8.768 18.496 9.056C18.464 9.12 18.464 9.184 18.432 9.216C18.368 9.376 18.336 9.536 18.208 9.664L18.112 9.728C18.048 9.824 17.984 9.888 17.92 9.984C17.856 10.048 17.792 10.144 17.728 10.208C17.568 10.4 17.344 10.496 17.088 10.496ZM17.28 4.672C17.216 4.672 17.184 4.672 17.12 4.8C17.056 4.928 16.992 5.152 16.928 5.472C16.896 5.568 16.896 5.696 16.896 5.792C16.896 5.92 16.896 6.08 16.864 6.208C16.864 6.24 16.832 6.304 16.8 6.368C16.768 6.4 16.768 6.464 16.736 6.464C16.704 6.688 16.6401 6.88 16.6081 7.072V7.2C16.5761 7.328 16.544 7.424 16.544 7.52C16.512 7.776 16.352 7.936 16.192 8.032C16.128 8.096 16.064 8.128 16 8.192C15.904 8.256 15.776 8.352 15.68 8.416L15.6481 8.448C15.4561 8.608 15.5201 8.896 15.5841 9.088C15.6801 9.376 15.872 9.664 16.096 9.888C16.32 10.08 16.608 10.24 16.896 10.272C17.216 10.336 17.472 10.272 17.632 10.112C17.696 10.048 17.76 9.984 17.792 9.92C17.856 9.856 17.92 9.76 17.984 9.664V9.632L18.08 9.568C18.176 9.472 18.208 9.344 18.272 9.184C18.304 9.12 18.304 9.056 18.336 9.024C18.432 8.768 18.496 8.48 18.496 8.224C18.496 8.192 18.496 8.192 18.496 8.16V8.096C18.496 7.936 18.432 7.744 18.4 7.552V7.52C18.336 7.296 18.272 7.072 18.272 6.816C18.272 6.624 18.176 6.4 18.08 6.24L18.048 6.208C17.984 6.08 17.952 6.016 17.92 5.92C17.888 5.856 17.888 5.824 17.856 5.76V5.728V5.696C17.824 5.632 17.792 5.536 17.76 5.472C17.696 5.312 17.632 5.184 17.568 5.056C17.408 4.704 17.312 4.672 17.28 4.672Z" fill="#673506"/>
<path d="M16.896 7.87188C16.704 7.80788 16.928 7.42388 17.088 7.39188C17.248 7.35988 17.344 7.64788 17.28 7.71188C17.024 8.03188 16.992 7.90388 16.896 7.87188Z" fill="#EA963E"/>
</svg>
