<svg xmlns="http://www.w3.org/2000/svg" width="326" height="326" viewBox="0 0 326 326">
  <g id="Pancakeswap-logo-fondo" transform="translate(-3854 5716)">
    <circle id="Elipse_219" data-name="Elipse 219" cx="163" cy="163" r="163" transform="translate(3854 -5716)" fill="#39c9d2"/>
    <g id="pancakeswap-cake-logo" transform="translate(3896.317 -5674.438)">
      <path id="Trazado_622" data-name="Trazado 622" d="M43.259,37.946a31.8,31.8,0,1,1,62.991-6.071V71.339c4.554,0,9.107-.759,13.661-.759a73.63,73.63,0,0,1,12.9.759V31.875A32.067,32.067,0,0,1,164.688,0C184.42,0,199.6,18.214,196.563,37.946l-8.348,46.295c29.6,12.9,52.366,35.67,52.366,63.75v17.455c0,23.527-15.179,43.259-37.188,56.161-22.009,13.661-50.848,21.25-83.482,21.25s-61.473-7.589-83.482-21.25C15.179,208.706,0,188.973,0,165.447V147.991c0-28.08,22.009-50.848,51.607-63.75ZM176.831,90.313,186.7,35.67c2.277-13.661-7.589-26.563-22.009-26.563a22.025,22.025,0,0,0-22.009,22.009V81.205a43.274,43.274,0,0,0-9.866-.759c-4.554,0-8.348-.759-12.9-.759a82.485,82.485,0,0,0-13.661.759c-3.036,0-6.83.759-9.866.759V31.875a21.883,21.883,0,1,0-43.259,4.554l9.866,54.643C31.116,103.214,9.866,124.464,9.866,148.75v17.455c0,37.188,49.33,67.545,110.045,67.545s110.045-30.357,110.045-67.545V148.75C230.715,123.706,209.465,102.455,176.831,90.313Z" transform="translate(0 0)" fill="#633001" fill-rule="evenodd"/>
      <path id="Trazado_623" data-name="Trazado 623" d="M224.209,37.171c0,37.647-49.94,68.379-111.4,68.379S1.4,74.818,1.4,37.171V19.5H224.977V37.171Z" transform="translate(7.87 128.819)" fill="#fedc90"/>
      <path id="Trazado_624" data-name="Trazado 624" d="M44.425,28.191a22.153,22.153,0,1,1,43.793-4.61V74.289a232.671,232.671,0,0,1,23.818-1.537c7.683,0,15.366.768,23.049,1.537V23.581A22.3,22.3,0,0,1,157.366,1.3c13.83,0,24.586,13.061,22.281,26.891l-9.988,55.318c32.269,12.293,54.55,33.806,54.55,58.391,0,37.647-49.94,68.379-111.4,68.379S1.4,179.547,1.4,141.9c0-24.586,21.513-46.1,53.782-58.391Z" transform="translate(7.87 5.676)" fill="#d1884f" fill-rule="evenodd"/>
      <path id="Trazado_625" data-name="Trazado 625" d="M33.186,34.939c0,9.988-5.378,18.439-12.293,18.439S8.6,44.927,8.6,34.939,13.978,16.5,20.893,16.5,33.186,24.951,33.186,34.939Z" transform="translate(55.988 108.77)" fill="#633001"/>
      <path id="Trazado_626" data-name="Trazado 626" d="M44.286,34.939c0,9.988-5.378,18.439-12.293,18.439S19.7,44.927,19.7,34.939,25.078,16.5,31.993,16.5,44.286,24.951,44.286,34.939Z" transform="translate(130.17 108.77)" fill="#633001"/>
    </g>
  </g>
</svg>
