<svg xmlns="http://www.w3.org/2000/svg" viewBox="0 0 178 146.38"><defs><style>.cls-1{opacity:0.8;}.cls-2{fill:#2a6cff;}.cls-3{fill:#fff;}</style></defs><g id="Capa_2" data-name="Capa 2"><g id="Capa_1-2" data-name="Capa 1"><g id="Grupo_1500" data-name="Grupo 1500" class="cls-1"><path id="Trazado_613-2" data-name="Trazado 613-2" class="cls-2" d="M92,0a65,65,0,1,0,65,65A65,65,0,0,0,92,0Zm37.13,110.51c-1.07.87-2.16,1.69-3.27,2.48a56,56,0,0,1-5.2,3.27c-1.2.68-2.42,1.3-3.66,1.89q-2.27,1.06-4.62,1.93c-1.57.59-3.17,1.1-4.81,1.55-.82.22-1.64.43-2.47.62-.42.1-.83.19-1.25.27a59.13,59.13,0,0,1-23.63,0c-.42-.08-.83-.17-1.25-.27-.83-.19-1.65-.4-2.47-.62q-2.45-.67-4.82-1.55c-1.57-.57-3.1-1.22-4.61-1.93-1.24-.59-2.47-1.22-3.66-1.89A58,58,0,0,1,58.23,113c-1.12-.8-2.22-1.63-3.28-2.48a56.35,56.35,0,0,1-4.71-4.3c-.74-.76-1.47-1.53-2.18-2.33-.57-.65-1.13-1.31-1.67-2s-1.07-1.36-1.59-2-1-1.41-1.5-2.13-.77-1.18-1.15-1.81-.68-1.13-1-1.71-.61-1.08-.9-1.63a58.67,58.67,0,0,1,0-55.21c.29-.55.6-1.1.9-1.64s.67-1.14,1-1.7l1.15-1.81q.73-1.08,1.5-2.13c.51-.7,1-1.38,1.59-2.05s1.1-1.33,1.67-2,1.44-1.56,2.18-2.33A60,60,0,0,1,55,19.43C56,18.6,57.1,17.77,58.22,17a61,61,0,0,1,5.19-3.27c1.2-.67,2.42-1.3,3.67-1.89q2.27-1.07,4.61-1.93c1.57-.58,3.19-1.09,4.81-1.54.83-.23,1.65-.44,2.48-.63l1.24-.27a59.18,59.18,0,0,1,23.64,0c.41.08.83.17,1.24.27.84.19,1.66.4,2.48.63,1.62.46,3.22,1,4.79,1.6s3.11,1.24,4.62,1.93c1.24.59,2.46,1.21,3.66,1.89a56,56,0,0,1,5.2,3.27c1.11.79,2.2,1.62,3.27,2.48a59.71,59.71,0,0,1,7.3,7.1c.45.51.9,1,1.31,1.58l.75.95a58.75,58.75,0,0,1,0,71.77l-.73.92c-.42.54-.9,1.07-1.31,1.58A59.71,59.71,0,0,1,129.14,110.51Z"/><path id="Trazado_614" data-name="Trazado 614" class="cls-2" d="M117.17,51a28.14,28.14,0,0,0-4.67-6.26l-.15-.15A28.93,28.93,0,1,0,117.17,51Zm-7.41,27.72-.26.34-.5.61a24.05,24.05,0,0,1-2.8,2.73,12.6,12.6,0,0,1-1.26.91,21.45,21.45,0,0,1-2,1.25c-.46.25-.9.5-1.4.72s-1.17.52-1.77.74-1.21.42-1.81.59l-.91.24-.48.1a22.44,22.44,0,0,1-9.09,0l-.48-.1-.9-.24c-.62-.17-1.24-.37-1.82-.59s-1.19-.47-1.82-.74-.91-.46-1.41-.72c-.68-.38-1.34-.81-2-1.25l-1.25-.91A21.84,21.84,0,0,1,76,80.77c-.28-.29-.56-.58-.83-.9s-.44-.5-.64-.76-.42-.52-.61-.79-.39-.53-.58-.82l-.45-.66c-.14-.21-.27-.43-.39-.65s-.24-.41-.35-.63a22.51,22.51,0,0,1,0-21.13c.11-.22.23-.42.35-.62a7.59,7.59,0,0,1,.39-.66l.43-.67c.19-.28.39-.55.58-.82l.61-.79.64-.75c.27-.31.55-.6.84-.91a21.59,21.59,0,0,1,1.81-1.64,15.42,15.42,0,0,1,1.26-.91,16.92,16.92,0,0,1,2-1.25,13.37,13.37,0,0,1,1.41-.72,19.32,19.32,0,0,1,1.82-.75c.65-.22,1.22-.42,1.82-.59l.9-.23.49-.1a22,22,0,0,1,9.08,0l.48.1.91.23c.61.17,1.22.36,1.81.59s1.19.47,1.77.75.9.46,1.4.72a17,17,0,0,1,2,1.25c.43.29.85.6,1.26.91a21.83,21.83,0,0,1,1.66,1.52q.6.58,1.14,1.2l.5.61.28.36a22.46,22.46,0,0,1,0,27.48Z"/><path class="cls-2" d="M92,18.65h0a46.26,46.26,0,1,0,46.26,46.27A46.26,46.26,0,0,0,92,18.65ZM124,89.7l-.51.65c-.29.37-.59.74-.9,1.09a43,43,0,0,1-5,4.89c-.74.6-1.48,1.16-2.24,1.7-1.16.81-2.37,1.57-3.6,2.26-.83.47-1.67.9-2.53,1.3-1,.48-2.1.9-3.18,1.33a29.47,29.47,0,0,1-3.3,1.06c-.57.16-1.14.3-1.71.43-.28.07-.57.13-.9.19a40.87,40.87,0,0,1-16.23,0c-.29,0-.59-.11-.9-.19-.57-.12-1.13-.26-1.7-.42-1.12-.3-2.22-.66-3.3-1.06s-2.15-.84-3.19-1.34c-.85-.4-1.7-.83-2.52-1.3A39.49,39.49,0,0,1,68.65,98c-.77-.54-1.52-1.11-2.25-1.7a37.88,37.88,0,0,1-3.25-3c-.5-.52-1-1-1.49-1.59s-.78-.9-1.16-1.36A17.71,17.71,0,0,1,59.41,89c-.35-.51-.7-1-1-1.47s-.53-.81-.8-1.21-.46-.78-.7-1.17-.42-.75-.62-1.13a40.49,40.49,0,0,1,0-38c.2-.38.42-.75.62-1.13s.46-.78.7-1.17.53-.82.8-1.21.68-1,1-1.47.71-1,1.09-1.42l1.16-1.36c.5-.54,1-1.07,1.49-1.59a43.21,43.21,0,0,1,3.24-3c.73-.58,1.48-1.16,2.26-1.7,1.16-.81,2.36-1.56,3.6-2.26.82-.46,1.66-.9,2.52-1.3,1-.5,2.1-.9,3.18-1.33a29.47,29.47,0,0,1,3.3-1.06c.57-.16,1.14-.3,1.7-.43q.43-.11.9-.18a40.52,40.52,0,0,1,16.27,0l.9.18c.58.13,1.15.27,1.72.43a34.26,34.26,0,0,1,3.3,1.06c1.08.41,2.13.85,3.18,1.33s1.69.83,2.52,1.3a41.8,41.8,0,0,1,3.6,2.26c.77.54,1.52,1.11,2.24,1.7a42.26,42.26,0,0,1,5,4.84c.31.35.61.72.9,1.09l.52.65A40.49,40.49,0,0,1,124,89.7Z"/><g id="Componente_89_1" data-name="Componente 89 1"><circle id="Elipse_253" data-name="Elipse 253" class="cls-2" cx="128" cy="142.38" r="4"/><circle id="Elipse_254" data-name="Elipse 254" class="cls-2" cx="6" cy="33.38" r="6"/><circle id="Elipse_255" data-name="Elipse 255" class="cls-2" cx="173" cy="19.38" r="5"/></g></g><path class="cls-3" d="M117.17,51l-.14.16-4.57,4.57L86.87,81.34a4,4,0,0,1-5.64,0l-11.1-11.1-4-4a4,4,0,0,1,5.64-5.64L84.05,72.88l23.79-23.79,3.55-3.55A4,4,0,0,1,117.17,51Z"/></g></g></svg>