<svg xmlns="http://www.w3.org/2000/svg" width="42" height="42" viewBox="0 0 42 42">
  <g id="award_02" transform="translate(-671 -350)">
    <g id="Elipse_258" data-name="Elipse 258" transform="translate(671 350)" fill="none" stroke="#2a6cff" stroke-width="2">
      <circle cx="21" cy="21" r="21" stroke="none"/>
      <circle cx="21" cy="21" r="20" fill="none"/>
    </g>
    <g id="award" transform="translate(252 171)">
      <path id="Vector" d="M11.62,3.49v.74L8.08,2.18a4.75,4.75,0,0,0-4.54,0L0,4.24V3.49A3.141,3.141,0,0,1,3.48,0H8.14A3.141,3.141,0,0,1,11.62,3.49Z" transform="translate(434.19 190)" fill="#2a6cff"/>
      <path id="Vector-2" data-name="Vector" d="M13.59,2.855l-.14-.07-1.36-.78L9.27.375a3.268,3.268,0,0,0-3.04,0L3.41,2l-1.36.8-.18.09C.12,4.065,0,4.285,0,6.175V10.7c0,1.89.12,2.11,1.91,3.32l4.32,2.49a2.954,2.954,0,0,0,1.52.37,3.082,3.082,0,0,0,1.52-.37l4.36-2.52c1.76-1.18,1.87-1.39,1.87-3.29V6.175C15.5,4.285,15.38,4.065,13.59,2.855Zm-3.05,5.53-.61.75a.724.724,0,0,0-.16.47l.06.96a.631.631,0,0,1-.93.68l-.89-.36a.886.886,0,0,0-.51,0l-.89.35a.629.629,0,0,1-.93-.68l.06-.96a.724.724,0,0,0-.16-.47l-.62-.74a.635.635,0,0,1,.36-1.1l.93-.24a.806.806,0,0,0,.4-.3l.52-.8a.636.636,0,0,1,1.16,0l.52.8a.792.792,0,0,0,.4.3l.93.24A.635.635,0,0,1,10.54,8.385Z" transform="translate(432.25 193.115)" fill="#2a6cff"/>
      <path id="Vector-3" data-name="Vector" d="M0,0H24V24H0Z" transform="translate(452 212) rotate(180)" fill="none" opacity="0"/>
    </g>
  </g>
</svg>
