<svg xmlns="http://www.w3.org/2000/svg" width="24" height="24" viewBox="0 0 24 24">
  <g id="award" transform="translate(-428 -188)">
    <path id="Vector" d="M8.49,18.5a3.442,3.442,0,0,1-1.67-.41l-4.73-2.73C.13,14.043,0,13.8,0,11.733V6.773c0-2.07.13-2.31,2.05-3.6L6.83.413a3.567,3.567,0,0,1,3.33,0l4.73,2.73c1.96,1.32,2.09,1.56,2.09,3.63v4.96c0,2.07-.13,2.31-2.05,3.6l-4.78,2.76A3.3,3.3,0,0,1,8.49,18.5Zm0-17a1.9,1.9,0,0,0-.92.21L2.84,4.442c-1.34.91-1.34.91-1.34,2.33v4.96c0,1.42,0,1.42,1.39,2.36l4.69,2.7a2.1,2.1,0,0,0,1.83,0l4.73-2.73c1.34-.91,1.34-.91,1.34-2.33V6.773c0-1.42,0-1.42-1.39-2.36L9.4,1.713A1.828,1.828,0,0,0,8.49,1.5Z" transform="translate(431.51 192.247)" fill="#fff"/>
    <path id="Vector-2" data-name="Vector" d="M11.75,7.13A.755.755,0,0,1,11,6.38V3.75c0-1.58-.67-2.25-2.25-2.25h-5c-1.58,0-2.25.67-2.25,2.25V6.31a.75.75,0,1,1-1.5,0V3.75A3.381,3.381,0,0,1,3.75,0h5A3.381,3.381,0,0,1,12.5,3.75V6.38A.755.755,0,0,1,11.75,7.13Z" transform="translate(433.75 189.25)" fill="#fff"/>
    <path id="Vector-3" data-name="Vector" d="M5.66,7.76a1.712,1.712,0,0,1-.65-.13l-.98-.38-.98.39a1.518,1.518,0,0,1-1.47-.13A1.534,1.534,0,0,1,1,6.15L1.06,5.1.39,4.29A1.523,1.523,0,0,1,.07,2.84a1.509,1.509,0,0,1,1.11-.97L2.2,1.61,2.77.72A1.471,1.471,0,0,1,5.3.72l.57.89,1.02.26A1.509,1.509,0,0,1,8,2.84a1.536,1.536,0,0,1-.33,1.44L7,5.09l.06,1.05A1.545,1.545,0,0,1,6.48,7.5,1.4,1.4,0,0,1,5.66,7.76ZM1.55,3.33l.67.81a1.6,1.6,0,0,1,.34,1.05L2.5,6.24l.98-.39a1.6,1.6,0,0,1,1.1,0l.98.39L5.5,5.19a1.614,1.614,0,0,1,.34-1.05l.67-.81L5.49,3.07a1.649,1.649,0,0,1-.89-.64l-.56-.88-.57.88a1.617,1.617,0,0,1-.89.65Z" transform="translate(435.97 197.87)" fill="#fff"/>
    <path id="Vector-4" data-name="Vector" d="M0,0H24V24H0Z" transform="translate(428 188)" fill="none" opacity="0"/>
  </g>
</svg>
