<svg xmlns="http://www.w3.org/2000/svg" width="42" height="42" viewBox="0 0 42 42">
  <g id="es_" transform="translate(-901 -350)">
    <g id="Elipse_260" data-name="Elipse 260" transform="translate(901 350)" fill="none" stroke="#2a6cff" stroke-width="2">
      <circle cx="21" cy="21" r="21" stroke="none"/>
      <circle cx="21" cy="21" r="20" fill="none"/>
    </g>
    <path id="Trazado_798" data-name="Trazado 798" d="M-2.268-11.8q.9.039.9-1.25t-.9-1.172q-.859.039-1.641.1t-1.484.059q-.7,0-1.445-.059t-1.445-.1a1.934,1.934,0,0,0-1.484.293,1.546,1.546,0,0,0-.469,1.348q.117.82.176,2.656T-10-7.187q0,.938-.059,2.715t-.176,2.6A1.5,1.5,0,0,0-9.846-.469a1.611,1.611,0,0,0,1.328.313Q-7.58-.234-6.9-.273t1.426-.039q.7,0,1.641.059t1.8.176q.9.039.9-1.289t-.9-1.211q-.859.039-1.777.1t-1.582.059q-.625,0-1.348-.059a2.6,2.6,0,0,1-.918-.176,10.079,10.079,0,0,1-.117-1.953,8.763,8.763,0,0,1,.117-1.875,9.216,9.216,0,0,0,1.074-.078,9.435,9.435,0,0,1,1.113-.078,8.96,8.96,0,0,1,1.094.078q.625.078,1.328.156.9.117.9-1.172t-.9-1.172a11.026,11.026,0,0,1-1.367.137q-.625.02-1.055.02-.469,0-1.094-.059t-1.094-.1a7.433,7.433,0,0,1-.117-1.641,5.283,5.283,0,0,1,.117-1.484,2.1,2.1,0,0,1,.859-.137q.664-.02,1.406-.02.82,0,1.543.059T-2.268-11.8Zm7.544-2.656A4.628,4.628,0,0,0,1.9-13.32,3.485,3.485,0,0,0,.745-10.781a4.473,4.473,0,0,0,.9,2.656,5.311,5.311,0,0,0,3.242,1.8,5.521,5.521,0,0,1,2.363.938,1.724,1.724,0,0,1,.605,1.328,1.527,1.527,0,0,1-.566,1.27,3.01,3.01,0,0,1-1.855.449,2.52,2.52,0,0,1-1.68-.527,1.589,1.589,0,0,1-.508-1.5q.078-.9-1.426-.9t-1.465.9a4.168,4.168,0,0,0,1.523,3.32A5.761,5.761,0,0,0,5.432,0,5.624,5.624,0,0,0,9.241-1.172a3.764,3.764,0,0,0,1.348-2.969A3.68,3.68,0,0,0,9.475-7.09,10.111,10.111,0,0,0,5.432-8.75a2.826,2.826,0,0,1-1.6-.9A1.853,1.853,0,0,1,3.4-10.7a1.427,1.427,0,0,1,.508-1.113,2.112,2.112,0,0,1,1.445-.449,2.945,2.945,0,0,1,1.641.41,1.071,1.071,0,0,1,.547,1.074q-.117.859,1.387.859t1.426-.859A3.375,3.375,0,0,0,8.87-13.535,6.34,6.34,0,0,0,5.276-14.453Z" transform="translate(922.259 378.453)" fill="#2a6cff"/>
  </g>
</svg>
