<svg xmlns="http://www.w3.org/2000/svg" width="24" height="24" viewBox="0 0 24 24">
  <g id="filter" transform="translate(-556 -508)">
    <path id="Vector" d="M8.29,21.3a2.881,2.881,0,0,1-1.39-.36,2.7,2.7,0,0,1-1.41-2.38v-5.3a3.137,3.137,0,0,0-.64-1.63L1.11,7.67A4.013,4.013,0,0,1,0,5.15V2.85A2.772,2.772,0,0,1,2.75,0h13.2A2.748,2.748,0,0,1,18.7,2.75v2.2a4.5,4.5,0,0,1-1.22,2.83l-4.33,3.83a2.52,2.52,0,0,0-.75,1.74v4.3a2.962,2.962,0,0,1-1.26,2.34l-1.38.89A2.78,2.78,0,0,1,8.29,21.3ZM2.75,1.5A1.288,1.288,0,0,0,1.5,2.85v2.3a2.616,2.616,0,0,0,.68,1.47l3.81,4.01A4.581,4.581,0,0,1,7,13.25v5.3a1.2,1.2,0,0,0,.64,1.07,1.323,1.323,0,0,0,1.32-.01l1.39-.89a1.508,1.508,0,0,0,.56-1.07v-4.3a3.983,3.983,0,0,1,1.27-2.88l4.28-3.79a2.984,2.984,0,0,0,.75-1.74V2.75A1.25,1.25,0,0,0,15.96,1.5Z" transform="translate(558.65 509.35)" fill="#fff"/>
    <path id="Vector-2" data-name="Vector" d="M0,0H24V24H0Z" transform="translate(556 508)" fill="none" opacity="0"/>
  </g>
</svg>
