<svg id="free" xmlns="http://www.w3.org/2000/svg" width="32" height="32" viewBox="0 0 32 32">
  <g id="Grupo_2059" data-name="Grupo 2059" transform="translate(-1188.227 -2404.953)">
    <path id="Vector" d="M1.292,2.577a1.286,1.286,0,0,1-.491-.1A1.492,1.492,0,0,1,.375,2.2,1.333,1.333,0,0,1,.1,1.776,1.286,1.286,0,0,1,0,1.285,1.286,1.286,0,0,1,.1.794,1.492,1.492,0,0,1,.375.368,1.492,1.492,0,0,1,.8.1a1.292,1.292,0,0,1,.982,0,1.492,1.492,0,0,1,.426.271A1.492,1.492,0,0,1,2.48.794a1.286,1.286,0,0,1,.1.491,1.286,1.286,0,0,1-.1.491,1.333,1.333,0,0,1-.271.426,1.492,1.492,0,0,1-.426.271A1.286,1.286,0,0,1,1.292,2.577Z" transform="translate(1211.208 2430.53)" fill="#2a6cff"/>
    <circle id="Elipse_254" data-name="Elipse 254" cx="1.75" cy="1.75" r="1.75" transform="translate(1215.769 2408.703)" fill="#2a6cff"/>
    <circle id="Elipse_255" data-name="Elipse 255" cx="1.25" cy="1.25" r="1.25" transform="translate(1189.227 2406.953)" fill="#2a6cff"/>
    <path id="Vector-2" data-name="Vector" d="M11.563,20.759a2.784,2.784,0,0,1-.925-.14C6.529,19.21,0,14.208,0,6.819A6.808,6.808,0,0,1,6.787,0a6.684,6.684,0,0,1,4.776,1.979A6.684,6.684,0,0,1,16.338,0a6.814,6.814,0,0,1,6.787,6.819c0,7.4-6.529,12.391-10.638,13.8A2.784,2.784,0,0,1,11.563,20.759ZM6.787,1.613A5.2,5.2,0,0,0,1.613,6.819c0,7.346,7.067,11.433,9.551,12.283a1.7,1.7,0,0,0,.807,0c2.474-.85,9.551-4.926,9.551-12.283a5.2,5.2,0,0,0-5.174-5.206A5.11,5.11,0,0,0,12.219,3.7a.833.833,0,0,1-1.291,0A5.131,5.131,0,0,0,6.787,1.613Z" transform="translate(1191.686 2409.771)" fill="#2a6cff"/>
    <path id="Vector_-_Contorno" data-name="Vector - Contorno" d="M11.563,20.759l.182-.718.743.578c4.109-1.409,9.8-6.4,9.8-13.8,0-3.754-2.193-6.01-5.937-6.01a7.088,7.088,0,0,0-4.776,2.362A7.113,7.113,0,0,0,6.787.81C3.044.81.835,3.055.835,6.819c0,7.389,6.7,11.738,10.809,13.147.269.1-.333,0,0,0M6.787.81a6.707,6.707,0,0,1,4.786,2.362c.3.409-.3.409,0,0A6.684,6.684,0,0,1,16.349.81a6.569,6.569,0,0,1,5.937,5.94c0,7.357-8.167,12.441-10.641,13.291-.194.065.194-.011,0-.075C9.16,19.116.835,14.228.835,6.882.835,4.01,3.937.81,6.787.81m4.776,20.149a2.987,2.987,0,0,1-.993-.152C6.408,19.38-.2,14.319-.2,6.819A7.011,7.011,0,0,1,6.787-.2a6.872,6.872,0,0,1,4.776,1.9A6.872,6.872,0,0,1,16.338-.2a7.011,7.011,0,0,1,6.987,7.019c0,7.5-6.608,12.561-10.773,13.989A2.985,2.985,0,0,1,11.563,20.959ZM6.787,1.813A5,5,0,0,0,1.813,6.819,11.875,11.875,0,0,0,5.6,15.255a16.572,16.572,0,0,0,5.632,3.659,1.539,1.539,0,0,0,.679,0c2.441-.838,9.414-4.861,9.414-12.093a5,5,0,0,0-4.974-5.006,4.895,4.895,0,0,0-3.969,2.006,1.032,1.032,0,0,1-1.613,0A4.942,4.942,0,0,0,6.787,1.813Z" transform="translate(1191.686 2409.771)" fill="#2a6cff"/>
  </g>
  <path id="Vector-3" data-name="Vector" d="M0,0H32V32H0Z" fill="none" opacity="0"/>
</svg>
