<svg id="gift" xmlns="http://www.w3.org/2000/svg" width="32" height="32" viewBox="0 0 32 32">
  <path id="Vector" d="M17.02,15.972H6.341C1.775,15.972,0,14.4,0,10.352V.887A.956.956,0,0,1,1,0H22.359a.956.956,0,0,1,1,.887v9.465C23.36,14.4,21.585,15.972,17.02,15.972ZM2,1.775v8.578C2,13.4,2.9,14.2,6.341,14.2H17.02c3.444,0,4.338-.793,4.338-3.845V1.775Z" transform="translate(4.28 12.395)" fill="#fff"/>
  <path id="Vector-2" data-name="Vector" d="M23.679,8.64H3.669A3.331,3.331,0,0,1,0,4.984V3.655A3.331,3.331,0,0,1,3.669,0H23.679a3.393,3.393,0,0,1,3.669,3.655V4.984A3.393,3.393,0,0,1,23.679,8.64ZM3.669,1.994C2.455,1.994,2,2.446,2,3.655V4.984c0,1.21.454,1.661,1.668,1.661H23.679c1.174,0,1.668-.492,1.668-1.661V3.655c0-1.17-.494-1.661-1.668-1.661Z" transform="translate(2.326 5.673)" fill="#fff"/>
  <path id="Vector-3" data-name="Vector" d="M8.658,5.975H1.321A1,1,0,0,1,.59,5.656a2.253,2.253,0,0,1,.066-3.11L2.544.658a2.278,2.278,0,0,1,3.2,0L9.363,4.273a1,1,0,0,1,.213,1.09A.972.972,0,0,1,8.658,5.975ZM2.052,3.981H6.266L4.339,2.067a.273.273,0,0,0-.385,0L2.066,3.954C2.066,3.968,2.052,3.968,2.052,3.981Z" transform="translate(6.844 1.668)" fill="#fff"/>
  <path id="Vector-4" data-name="Vector" d="M8.332,5.975H.995a.985.985,0,0,1-.917-.611A1.006,1.006,0,0,1,.29,4.273L3.906.658a2.278,2.278,0,0,1,3.2,0L9,2.545a2.24,2.24,0,0,1,.066,3.11A1,1,0,0,1,8.332,5.975ZM3.414,3.981H7.627L7.6,3.954,5.713,2.067a.273.273,0,0,0-.385,0Z" transform="translate(15.49 1.668)" fill="#fff"/>
  <path id="Vector-5" data-name="Vector" d="M2.326,10.168A2.328,2.328,0,0,1,0,7.842V1A1,1,0,0,1,1,0H9.025a1,1,0,0,1,1,1V7.815A2.32,2.32,0,0,1,6.407,9.743l-1.183-.8a.319.319,0,0,0-.372,0L3.6,9.769A2.26,2.26,0,0,1,2.326,10.168ZM1.994,1.994V7.829a.335.335,0,0,0,.518.279l1.249-.824a2.31,2.31,0,0,1,2.565,0l1.183.8A.335.335,0,0,0,8.028,7.8V1.98H1.994Z" transform="translate(10.936 12.351)" fill="#fff"/>
  <path id="Vector-6" data-name="Vector" d="M0,0H32V32H0Z" fill="none" opacity="0"/>
</svg>
