<svg xmlns="http://www.w3.org/2000/svg" width="26" height="26" viewBox="0 0 26 26">
  <g id="students" transform="translate(-122.595)">
    <path id="Vector" d="M5.106,9.9H5.03a.518.518,0,0,0-.172,0,4.911,4.911,0,1,1,.277,0ZM4.954,1.432A3.518,3.518,0,0,0,4.82,8.466a1.575,1.575,0,0,1,.305,0,3.519,3.519,0,0,0-.172-7.034Z" transform="translate(131.101 3.457)" fill="#fff"/>
    <path id="Vector-2" data-name="Vector" d="M0,0H26V26H0Z" transform="translate(122.595)" fill="none" opacity="0"/>
    <path id="Vector-3" data-name="Vector" d="M7.225,9.652A9.428,9.428,0,0,1,2.052,8.22,4.1,4.1,0,0,1,0,4.832,4.138,4.138,0,0,1,2.052,1.425a10.105,10.105,0,0,1,10.346,0,4.118,4.118,0,0,1,2.052,3.388A4.138,4.138,0,0,1,12.4,8.22,9.451,9.451,0,0,1,7.225,9.652ZM2.844,2.627A2.745,2.745,0,0,0,1.432,4.842a2.738,2.738,0,0,0,1.413,2.2,8.625,8.625,0,0,0,8.762,0,2.745,2.745,0,0,0,1.413-2.214,2.738,2.738,0,0,0-1.413-2.2A8.67,8.67,0,0,0,2.844,2.627Z" transform="translate(128.992 14.135)" fill="#fff"/>
  </g>
</svg>
