<svg xmlns="http://www.w3.org/2000/svg" width="42" height="42" viewBox="0 0 42 42">
  <g id="frame_02" transform="translate(-464 -350)">
    <g id="Elipse_259" data-name="Elipse 259" transform="translate(464 350)" fill="none" stroke="#2a6cff" stroke-width="2">
      <circle cx="21" cy="21" r="21" stroke="none"/>
      <circle cx="21" cy="21" r="20" fill="none"/>
    </g>
    <g id="frame" transform="translate(365 107)">
      <path id="Vector" d="M4.75,0a4.746,4.746,0,0,0-.12,9.49.807.807,0,0,1,.22,0h.07A4.746,4.746,0,0,0,4.75,0Z" transform="translate(115.25 254)" fill="#2a6cff"/>
      <path id="Vector-2" data-name="Vector" d="M12.12,1.395a9.929,9.929,0,0,0-10.15,0A3.947,3.947,0,0,0,0,4.625a3.914,3.914,0,0,0,1.96,3.21,9.239,9.239,0,0,0,5.08,1.41,9.239,9.239,0,0,0,5.08-1.41,3.945,3.945,0,0,0,1.96-3.23A3.937,3.937,0,0,0,12.12,1.395Z" transform="translate(112.96 264.755)" fill="#2a6cff"/>
      <path id="Vector-3" data-name="Vector" d="M0,0H24V24H0Z" transform="translate(132 276) rotate(180)" fill="none" opacity="0"/>
    </g>
  </g>
</svg>
