<svg id="verify" xmlns="http://www.w3.org/2000/svg" width="24" height="24" viewBox="0 0 24 24">
  <path id="Vector" d="M19.555,8.742,18.2,7.162a2.216,2.216,0,0,1-.47-1.26V4.2a1.938,1.938,0,0,0-1.93-1.93H14.1a2.243,2.243,0,0,1-1.26-.47L11.255.442a2.015,2.015,0,0,0-2.52,0l-1.57,1.37a2.307,2.307,0,0,1-1.26.46H4.175A1.938,1.938,0,0,0,2.245,4.2v1.71a2.276,2.276,0,0,1-.46,1.25L.435,8.752a2.013,2.013,0,0,0,0,2.5l1.35,1.59a2.276,2.276,0,0,1,.46,1.25V15.8a1.938,1.938,0,0,0,1.93,1.93H5.9a2.243,2.243,0,0,1,1.26.47l1.58,1.36a2.015,2.015,0,0,0,2.52,0l1.58-1.36a2.216,2.216,0,0,1,1.26-.47h1.7a1.938,1.938,0,0,0,1.93-1.93V14.1a2.243,2.243,0,0,1,.47-1.26l1.36-1.58A2.029,2.029,0,0,0,19.555,8.742Zm-5.4-.63-4.83,4.83a.748.748,0,0,1-1.06,0l-2.42-2.42A.75.75,0,0,1,6.9,9.462l1.89,1.89,4.3-4.3a.75.75,0,0,1,1.06,1.06Z" transform="translate(2.005 1.997)" fill="#2a6cff"/>
  <path id="Vector-2" data-name="Vector" d="M0,0H24V24H0Z" transform="translate(24 24) rotate(180)" fill="none" opacity="0"/>
</svg>
