<svg xmlns="http://www.w3.org/2000/svg" width="24" height="24" viewBox="0 0 24 24">
  <g id="video-play" transform="translate(-236 -380)">
    <path id="Vector" d="M13.75,21.5h-6C2.32,21.5,0,19.18,0,13.75v-6C0,2.32,2.32,0,7.75,0h6c5.43,0,7.75,2.32,7.75,7.75v6C21.5,19.18,19.18,21.5,13.75,21.5Zm-6-20C3.14,1.5,1.5,3.14,1.5,7.75v6C1.5,18.36,3.14,20,7.75,20h6C18.36,20,20,18.36,20,13.75v-6c0-4.61-1.64-6.25-6.25-6.25Z" transform="translate(237.25 381.25)" fill="#fff"/>
    <path id="Vector-2" data-name="Vector" d="M19.71,1.5H.75A.75.75,0,0,1,.75,0H19.71a.75.75,0,0,1,0,1.5Z" transform="translate(237.77 386.36)" fill="#fff"/>
    <path id="Vector-3" data-name="Vector" d="M.75,6.36A.755.755,0,0,1,0,5.61V.75A.755.755,0,0,1,.75,0,.755.755,0,0,1,1.5.75V5.61A.755.755,0,0,1,.75,6.36Z" transform="translate(243.77 381.36)" fill="#fff"/>
    <path id="Vector-4" data-name="Vector" d="M.75,5.91A.755.755,0,0,1,0,5.16V.75A.755.755,0,0,1,.75,0,.755.755,0,0,1,1.5.75V5.16A.743.743,0,0,1,.75,5.91Z" transform="translate(250.73 381.36)" fill="#fff"/>
    <path id="Vector-5" data-name="Vector" d="M2.09,7.352a2.08,2.08,0,0,1-1.01-.26A2.448,2.448,0,0,1,0,4.882v-2.4A2.451,2.451,0,0,1,1.09.262a2.421,2.421,0,0,1,2.46.17l2.08,1.2a2.446,2.446,0,0,1,1.38,2.05,2.438,2.438,0,0,1-1.39,2.05l-2.08,1.2A2.9,2.9,0,0,1,2.09,7.352ZM2.1,1.5a.526.526,0,0,0-.26.06,1.046,1.046,0,0,0-.34.92v2.4a1.071,1.071,0,0,0,.34.92,1.04,1.04,0,0,0,.96-.17l2.08-1.2c.39-.23.63-.51.63-.75s-.23-.52-.63-.75L2.8,1.732A1.5,1.5,0,0,0,2.1,1.5Z" transform="translate(245 390.768)" fill="#fff"/>
    <path id="Vector-6" data-name="Vector" d="M0,0H24V24H0Z" transform="translate(236 380)" fill="none" opacity="0"/>
  </g>
</svg>
