<svg xmlns="http://www.w3.org/2000/svg" width="33.545" height="39.341" viewBox="0 0 33.545 39.341">
  <path id="discord" d="M39.545,44.466V9.177a3.992,3.992,0,0,0-3.93-4.052H9.93A3.992,3.992,0,0,0,6,9.177V35.771a3.992,3.992,0,0,0,3.93,4.052H31.667l-1.016-3.639c2.984,2.847,3.944,3.769,4.915,4.668l.234.216C36.589,41.794,37.49,42.6,39.545,44.466ZM28.216,30.814s-.456-.558-.935-1.169l-.221-.284-.109-.141a6.062,6.062,0,0,0,3.47-2.341,10.863,10.863,0,0,1-2.2,1.161,13.655,13.655,0,0,1-11.961-.688c-.039-.027-.5-.289-.786-.492a5.979,5.979,0,0,0,3.354,2.321l-.109.142h0l-.334.429c-.442.564-.841,1.062-.841,1.062a6.921,6.921,0,0,1-5.846-2.99,26.869,26.869,0,0,1,2.76-11.468,9.319,9.319,0,0,1,5.386-2.066l.192.236A12.831,12.831,0,0,0,14.99,17.1s.105-.059.3-.16l.223-.114c.168-.085.372-.185.608-.3a15.916,15.916,0,0,1,14.319.57,12.67,12.67,0,0,0-4.773-2.5l.268-.315a9.319,9.319,0,0,1,5.386,2.066,26.869,26.869,0,0,1,2.76,11.468A6.976,6.976,0,0,1,28.216,30.814ZM26.3,26a2.2,2.2,0,1,0-1.955-2.183A2.074,2.074,0,0,0,26.3,26Zm-7,0a2.2,2.2,0,0,0,0-4.367A2.2,2.2,0,0,0,19.3,26Z" transform="translate(-6 -5.125)" fill="#fff"/>
</svg>
