<svg id="instagram" xmlns="http://www.w3.org/2000/svg" width="40.697" height="40.697" viewBox="0 0 40.697 40.697">
  <g id="Grupo_3" data-name="Grupo 3">
    <g id="Grupo_2" data-name="Grupo 2">
      <path id="Trazado_20" data-name="Trazado 20" d="M27.979,0H12.718A12.719,12.719,0,0,0,0,12.718V27.979A12.719,12.719,0,0,0,12.718,40.7H27.979A12.719,12.719,0,0,0,40.7,27.979V12.718A12.719,12.719,0,0,0,27.979,0Zm8.9,27.979a8.912,8.912,0,0,1-8.9,8.9H12.718a8.912,8.912,0,0,1-8.9-8.9V12.718a8.912,8.912,0,0,1,8.9-8.9H27.979a8.912,8.912,0,0,1,8.9,8.9Z" fill="#fff"/>
    </g>
  </g>
  <g id="Grupo_5" data-name="Grupo 5" transform="translate(10.174 10.174)">
    <g id="Grupo_4" data-name="Grupo 4">
      <path id="Trazado_21" data-name="Trazado 21" d="M138.174,128a10.174,10.174,0,1,0,10.174,10.174A10.175,10.175,0,0,0,138.174,128Zm0,16.533a6.359,6.359,0,1,1,6.359-6.359A6.368,6.368,0,0,1,138.174,144.533Z" transform="translate(-128 -128)" fill="#fff"/>
    </g>
  </g>
  <g id="Grupo_7" data-name="Grupo 7" transform="translate(29.93 8.056)">
    <g id="Grupo_6" data-name="Grupo 6">
      <circle id="Elipse_5" data-name="Elipse 5" cx="1.356" cy="1.356" r="1.356" fill="#fff"/>
    </g>
  </g>
</svg>
