<svg xmlns="http://www.w3.org/2000/svg" width="41.741" height="33.915" viewBox="0 0 41.741 33.915">
  <path id="Trazado_19" data-name="Trazado 19" d="M41.741,52.015a17.841,17.841,0,0,1-4.931,1.351,8.509,8.509,0,0,0,3.765-4.73,17.1,17.1,0,0,1-5.426,2.071,8.557,8.557,0,0,0-14.8,5.852,8.811,8.811,0,0,0,.2,1.951A24.221,24.221,0,0,1,2.906,49.56,8.56,8.56,0,0,0,5.536,61,8.451,8.451,0,0,1,1.67,59.943v.094a8.6,8.6,0,0,0,6.856,8.408,8.54,8.54,0,0,1-2.244.282,7.566,7.566,0,0,1-1.62-.146,8.639,8.639,0,0,0,8,5.961,17.194,17.194,0,0,1-10.61,3.65A16.028,16.028,0,0,1,0,78.074a24.091,24.091,0,0,0,13.128,3.84c15.747,0,24.356-13.044,24.356-24.351,0-.378-.013-.744-.031-1.106A17.071,17.071,0,0,0,41.741,52.015Z" transform="translate(0 -48)" fill="#fff"/>
</svg>
